<svg width="24" height="24" viewBox="0 0 24 24" fill="none" xmlns="http://www.w3.org/2000/svg">
<path d="M15.9591 9.25122C16.1718 9.23965 16.3797 9.3193 16.5304 9.46997L20.5304 13.47C20.6709 13.6106 20.7501 13.8014 20.7501 14.0002V19.0002C20.75 19.4143 20.4141 19.7501 20.0001 19.7502H4.00012C3.72363 19.7502 3.46955 19.5975 3.33899 19.3538C3.20861 19.1099 3.22272 18.8143 3.3761 18.5842L7.3761 12.5842L7.46399 12.4758C7.68782 12.2467 8.03926 12.1816 8.33508 12.3293L11.7921 14.0579L15.4142 9.53149L15.4669 9.47192C15.597 9.34067 15.7727 9.26154 15.9591 9.25122ZM12.5861 15.469C12.3653 15.7449 11.9813 15.8288 11.6652 15.6711L8.25696 13.967L5.40149 18.2502H19.2501V14.3108L16.0626 11.1233L12.5861 15.469ZM15.9659 3.25122C16.1764 3.24167 16.3814 3.32097 16.5304 3.46997L20.5304 7.46997C20.8232 7.76287 20.8233 8.23764 20.5304 8.53052C20.2375 8.82324 19.7627 8.8233 19.4698 8.53052L16.0499 5.1106L11.5763 10.4807C11.3535 10.7477 10.9762 10.8265 10.6652 10.6711L7.22375 8.95044L4.59973 12.4504C4.35112 12.7814 3.88113 12.8482 3.54993 12.5999C3.21889 12.3513 3.15222 11.8813 3.40051 11.55L6.40051 7.55005L6.48938 7.45044C6.71476 7.24083 7.05156 7.18779 7.33508 7.32935L10.8038 9.06372L15.424 3.51978L15.4777 3.46216C15.6085 3.33514 15.782 3.25964 15.9659 3.25122Z" fill="#242E54"/>
</svg>
