<svg width="24" height="24" viewBox="0 0 24 24" fill="none" xmlns="http://www.w3.org/2000/svg">
<path d="M6.96973 15.9698C7.26262 15.677 7.73739 15.677 8.03027 15.9698C8.32307 16.2627 8.32311 16.7375 8.03027 17.0304L5.53027 19.5304C5.23741 19.8233 4.76263 19.8232 4.46973 19.5304L2.96973 18.0304C2.67683 17.7375 2.67683 17.2627 2.96973 16.9698C3.26262 16.677 3.73739 16.677 4.03027 16.9698L5 17.9396L6.96973 15.9698ZM20 17.2501C20.4142 17.2502 20.75 17.5859 20.75 18.0001C20.75 18.4143 20.4142 18.7501 20 18.7501H11C10.5858 18.7501 10.25 18.4143 10.25 18.0001C10.25 17.5859 10.5858 17.2501 11 17.2501H20ZM6.96973 9.96985C7.26262 9.67698 7.73739 9.67696 8.03027 9.96985C8.32307 10.2627 8.32311 10.7375 8.03027 11.0304L5.53027 13.5304C5.23741 13.8233 4.76263 13.8232 4.46973 13.5304L2.96973 12.0304C2.67683 11.7375 2.67683 11.2627 2.96973 10.9698C3.26262 10.677 3.73739 10.677 4.03027 10.9698L5 11.9396L6.96973 9.96985ZM20 11.2501C20.4142 11.2502 20.75 11.5859 20.75 12.0001C20.75 12.4143 20.4142 12.7501 20 12.7501H11C10.5858 12.7501 10.25 12.4143 10.25 12.0001C10.25 11.5859 10.5858 11.2501 11 11.2501H20ZM6.96973 3.96985C7.26262 3.67698 7.73739 3.67696 8.03027 3.96985C8.32307 4.26274 8.32311 4.73753 8.03027 5.0304L5.53027 7.5304C5.23741 7.82326 4.76263 7.8232 4.46973 7.5304L2.96973 6.0304C2.67683 5.7375 2.67683 5.26274 2.96973 4.96985C3.26262 4.67698 3.73739 4.67696 4.03027 4.96985L5 5.93958L6.96973 3.96985ZM20 5.25012C20.4142 5.25015 20.75 5.58593 20.75 6.00012C20.75 6.41428 20.4142 6.75009 20 6.75012H11C10.5858 6.75012 10.25 6.4143 10.25 6.00012C10.25 5.58591 10.5858 5.25012 11 5.25012H20Z" fill="#242E54"/>
</svg>
