<svg width="320" height="540" viewBox="0 0 320 540" fill="none" xmlns="http://www.w3.org/2000/svg">
<path d="M319.571 24.8718C319.223 25.4605 318.918 26.1037 318.721 26.7687C318.438 27.739 317.894 28.7202 318.711 29.7232C318.809 29.8322 318.7 30.301 318.547 30.3991C317.774 30.8897 317.393 31.3585 318.242 32.1325C318.351 32.2306 318.242 32.634 318.166 32.863C317.817 33.7787 316.619 34.1712 316.641 35.3377C316.641 35.4467 316.227 35.6321 315.987 35.6648C315.399 35.7629 315.04 36.0136 314.942 36.635C314.865 37.1474 314.517 37.7253 314.669 38.1504C315.127 39.4914 314.048 40.1455 313.569 41.0613C313.275 41.6064 312.894 42.0643 312.229 42.206C311.565 42.3477 311.227 42.8601 310.944 43.4161C310.127 45.0514 308.951 46.4142 307.774 47.7878C307.186 48.4746 306.674 49.0851 305.803 49.325C304.909 49.5757 304.125 50.2081 303.886 50.9603C303.548 51.9851 302.883 52.4975 302.088 53.0099C301.293 53.5223 300.509 54.0674 299.735 54.6234C299.18 55.0267 298.548 55.3974 298.167 55.9316C297.742 56.5203 297.339 57.0436 296.642 57.2617C295.956 57.4797 295.629 58.4718 294.605 58.0466C294.289 57.9158 293.712 58.4718 293.243 58.6898C290.727 59.8672 288.189 60.9902 285.357 61.1864C285.194 61.1973 285.03 61.1755 284.867 61.1646C284.943 60.9465 284.954 60.6522 285.096 60.5432C286.065 59.8127 287.067 59.1259 288.037 58.4064C288.396 58.1338 288.712 57.7413 288.385 57.3162C288.254 57.1417 287.764 57.109 287.492 57.1853C284.66 58.0248 281.849 58.897 279.028 59.7691C276.61 60.5214 274.083 60.5541 271.599 60.8484C271.175 60.9029 270.728 60.8375 270.303 60.783C269.366 60.6631 268.43 60.5214 267.493 60.3905C263.855 60.0853 260.293 59.4094 257.014 57.6977C255.478 56.891 253.975 56.0297 252.461 55.1903C252.167 55.0267 251.851 54.8632 251.6 54.6452C249.966 53.1516 248.735 51.3964 248.223 49.216C247.842 47.6134 247.559 45.989 247.243 44.3646C247.21 44.201 247.178 43.983 247.243 43.8522C247.908 42.7184 247.548 41.4864 247.624 40.2872C247.657 39.7857 247.69 39.2079 247.951 38.8264C248.681 37.7471 248.877 36.5369 248.692 35.3377C248.518 34.1603 248.812 33.3535 249.716 32.6231C250.38 32.0889 250.609 31.3694 250.195 30.519C249.966 30.0502 250.271 29.7232 250.663 29.4506C252.439 28.2078 253.016 26.3326 253.3 24.3267C253.387 23.6944 253.681 23.3019 254.247 23.3455C254.955 23.4109 255.217 23.0402 255.315 22.4951C255.38 22.0591 255.347 21.6666 255.892 21.4813C256.186 21.3831 256.546 21.1106 256.622 20.8489C256.84 20.1076 257.264 19.6715 257.951 19.3445C258.201 19.2245 258.484 18.8321 258.474 18.5813C258.43 17.9926 258.386 17.6219 259.182 17.5347C259.977 17.4475 260.576 16.9024 260.935 16.172C261.295 15.4415 261.741 14.9182 262.613 14.6893C263.343 14.4931 264.083 14.1333 264.475 13.3593C264.519 13.2829 264.541 13.1957 264.563 13.1085C264.682 12.5525 265.118 12.3454 265.543 12.0292C267.122 10.83 268.865 9.85971 270.151 8.25711C270.88 7.34134 271.752 6.31656 273.244 6.36017C273.636 6.37107 274.137 5.88048 274.442 5.50981C275.205 4.58314 275.848 3.55835 277.274 3.67827C277.416 3.68917 277.645 3.56925 277.721 3.44933C278.418 2.34823 279.649 2.50085 280.651 2.08658C282.133 1.47607 283.647 1.34524 285.183 1.1708C286.806 0.98547 288.429 0.85465 289.932 0.135117C290.15 0.0260967 290.455 -0.0393137 290.673 0.0260984C291.903 0.429473 293.265 -0.366381 294.474 0.462172C294.67 0.603898 295.117 0.385857 295.444 0.342249C295.781 0.287739 296.13 0.167823 296.446 0.211431C297.306 0.331353 298.145 0.582095 299.006 0.658409C299.942 0.734723 300.879 1.06178 301.838 0.734723C302.862 0.385858 303.254 1.61779 304.103 1.72681C304.278 1.74861 304.463 1.6832 304.626 1.72681C305.269 1.94485 305.955 2.10838 306.543 2.45724C308.319 3.49293 310.062 4.60494 311.815 5.68424C313.33 5.50981 313.286 7.22143 314.245 7.73382C314.299 7.76653 314.212 8.04997 314.19 8.2135C314.168 8.45335 314.038 8.85672 314.125 8.91123C315.127 9.51084 315.475 10.9499 316.881 11.0589C317.382 11.1025 317.599 11.4623 317.338 12.0074C317.229 12.2254 317.131 12.5634 317.229 12.7269C318.09 14.1442 318.144 15.8776 318.983 17.2949C319.353 17.9163 319.604 18.5595 319.244 19.2681C318.7 20.3256 318.896 21.2196 319.582 22.1681C320.192 23.0075 320.094 23.9451 319.549 24.8609L319.571 24.8718Z" fill="#AC81FF"></path>
<path d="M255.696 42.4677C256.044 42.6421 256.415 42.8275 256.142 43.4598C255.489 44.9643 255.576 45.2477 257.046 46.0981C257.547 46.3924 257.635 46.5887 257.438 47.0575C257.373 47.2101 257.33 47.4935 257.417 47.548C258.452 48.3984 258.985 49.9247 260.554 50.0773C261.295 50.1536 261.796 50.557 262.384 50.9386C263.604 51.7235 264.965 52.2795 266.196 53.0536C266.741 53.3915 267.111 53.3479 267.612 53.119C268.004 52.9445 268.386 52.9446 268.811 53.2498C270.553 54.4926 272.492 55.0377 274.638 54.7325C275.063 54.6671 275.531 54.6235 275.923 54.7543C276.653 55.005 277.252 54.9396 277.852 54.4381C278.32 54.0457 278.799 54.1329 279.202 54.6344C279.475 54.9723 279.616 54.678 279.78 54.5035C280.095 54.1547 280.335 54.0565 280.858 54.3509C281.61 54.7761 281.816 54.6562 282.078 53.7295C282.274 53.0427 282.503 52.8682 283.145 53.1299C283.984 53.4787 284.66 52.8028 285.433 52.7047C285.814 52.6611 286.13 52.116 286.5 52.0724C288.439 51.8434 289.921 50.5134 291.74 50.0119C292.382 49.8375 293.014 49.5431 293.134 48.6601C293.167 48.3984 293.766 48.0495 294.125 48.0277C295.149 47.9841 295.977 47.6571 296.62 46.8503C297.197 46.1417 298.406 46.0436 298.515 44.8335C298.537 44.6045 298.951 44.3865 299.223 44.2229C299.67 43.9613 300.225 43.8523 300.585 43.5252C301.315 42.8493 302.066 42.1298 302.589 41.2903C303.025 40.5817 303.504 39.9711 304.234 39.7095C305.127 39.3933 305.661 38.7719 306.151 38.0415C306.892 36.9295 308.024 36.1336 308.743 35.0107L310.388 32.8085C310.563 32.6123 310.737 32.427 310.868 32.2089C311.478 31.1732 312.044 30.1048 312.981 29.2981C313.405 28.9383 313.351 28.4259 313.438 27.9135C313.634 26.856 314.19 25.864 314.517 24.8174C315.137 22.8332 315.889 20.8708 316.227 18.8322C316.63 16.3683 316.347 13.8935 314.941 11.7131C314.19 10.5575 313.286 9.50003 312.414 8.42073C312.207 8.16998 311.891 7.97375 311.586 7.84292C310.094 7.1888 308.591 6.54558 307.066 5.95687C306.608 5.78244 306.086 5.79335 305.726 5.74974C304.8 6.27304 304.506 4.94298 303.711 5.36816C302.992 5.74973 302.393 5.36817 301.794 4.96479C301.532 4.79036 301.14 4.69224 300.813 4.71404C299.986 4.77946 299.288 4.49601 298.591 4.11444C298.145 3.87459 297.698 3.82008 297.241 3.89639L295.629 3.85278L294.463 4.17985H292.023L290.803 4.38699L288.385 4.68134C288.113 4.67044 287.829 4.70314 287.557 4.74675H287.546C287.394 4.76855 287.252 4.79036 287.099 4.81217C284.06 5.28095 281.239 6.42566 278.472 7.6903C276.599 8.54065 274.758 9.47822 272.917 10.4049C271.142 11.2989 269.519 12.3891 268.124 13.8172C267.58 14.3732 267.111 15.0382 266.251 15.1473C265.053 15.289 264.41 16.1066 264.116 17.1423C263.691 18.6795 262.863 19.8787 261.61 20.849C261.295 21.0998 260.968 21.525 260.924 21.9065C260.815 22.7787 260.891 23.6835 259.639 23.7272C259.584 23.7272 259.486 23.858 259.486 23.9234C259.53 25.7985 257.743 26.8342 257.373 28.5567C257.221 29.2763 256.687 29.9413 256.208 30.5409C255.576 31.315 255.031 32.0345 255.489 33.1029C255.587 33.3209 255.5 33.6153 255.5 34.4547C255.663 35.1852 255.467 36.4171 254.966 37.649C254.813 38.0197 254.781 38.5321 254.911 38.9028C255.097 39.4479 255.042 39.8948 254.802 40.3963C254.356 41.3666 254.683 42.0425 255.63 42.5113L255.696 42.4677Z" fill="#AC81FF"></path>
<path d="M117.565 402.975C118.698 402.975 119.831 403.019 120.964 402.964C122.38 402.888 123.763 403.117 125.059 403.618C126.138 404.033 127.216 404.196 128.371 404.24C129.405 404.273 130.462 404.393 131.464 404.632C134.514 405.385 137.455 405.439 140.331 403.858C141.039 403.466 142.008 403.542 142.858 403.422C144.143 403.248 145.44 403.139 146.725 402.899C147.052 402.834 147.542 402.408 147.553 402.125C147.564 401.798 147.204 401.351 146.888 401.133C146.562 400.904 146.061 400.773 145.668 400.817C143.991 401.013 142.411 401.002 141.028 399.77C140.669 399.454 139.939 399.498 139.656 400.054C139.263 400.828 138.664 400.926 137.924 400.915C136.889 400.893 135.832 400.817 134.808 400.948C134.078 401.046 133.392 401.667 132.695 401.656C132.107 401.656 131.54 400.849 130.93 400.795C129.983 400.719 129.199 400.457 128.327 400.054C127.641 399.737 126.628 400.021 125.778 400.173C124.918 400.326 124.09 400.664 123.316 399.955C121.791 399.988 120.375 398.713 118.774 399.585C118.611 399.672 118.262 399.53 118.055 399.399C116.846 398.593 115.495 398.353 114.09 398.342C114.003 398.342 113.883 398.407 113.84 398.364C112.369 397.11 110.398 397.502 108.775 396.794C107.696 396.325 106.433 396.052 106.095 394.603C106.041 394.384 105.594 394.21 105.3 394.123C104.744 393.948 104.167 393.839 103.59 393.73C102.457 393.512 102.293 391.55 100.954 392.008C99.7336 392.422 99.0582 391.299 98.0016 391.419C97.3698 391.485 96.9124 391.048 96.8143 390.285C96.7708 389.893 96.5311 389.37 96.2152 389.195C94.9517 388.497 93.7317 387.712 92.5008 386.971C91.8472 386.568 91.1828 386.23 90.6163 385.685C89.7558 384.834 88.9062 383.94 87.9476 383.199C87.1851 382.61 86.2701 382.229 86.6405 380.997C86.684 380.866 86.5969 380.626 86.488 380.528C85.3007 379.492 85.7582 378.119 85.7037 376.854C85.671 376.036 85.9215 375.317 86.7058 374.87C86.9999 374.706 87.4574 374.467 87.4792 374.238C87.6099 372.94 88.8082 372.766 89.5271 372.068C90.3876 371.24 91.3135 370.814 92.479 370.662C93.0346 370.585 93.5792 370.193 94.0802 369.866C94.516 369.593 94.8863 369.201 95.3002 368.896C96.444 368.067 97.5986 367.467 99.1345 367.794C100.213 368.023 101.378 367.86 102.5 367.904C104.156 367.98 105.714 368.198 107.021 369.462C108.415 370.803 110.343 370.847 112.13 371.065C113.012 371.174 113.807 371.218 114.45 371.915C114.744 372.232 115.147 372.428 115.626 372.155C115.768 372.079 116.095 372.035 116.105 372.079C116.596 373.169 117.434 372.897 118.382 372.886C119.286 372.864 120.223 373.289 121.192 373.115C121.443 373.071 121.737 373.093 121.966 373.18C124.515 374.259 127.303 374.238 129.928 375.033C131.028 375.36 132.183 375.328 133.283 375.971C133.926 376.342 135.048 375.927 135.941 375.829C136.453 375.775 136.943 375.622 137.455 375.535C137.63 375.502 137.902 375.437 137.956 375.513C138.893 376.734 140.603 376.582 141.638 377.552C142.106 377.999 142.542 378.25 142.891 377.715C143.348 376.985 143.904 376.832 144.644 376.985C145.331 377.127 145.984 377.29 146.627 376.756C146.801 376.603 147.259 376.712 147.553 376.8C148.054 376.941 148.544 377.116 149.012 377.334C149.742 377.683 150.418 377.77 151.256 377.606C153.152 377.236 155.058 377.29 156.79 378.38C157.03 378.533 157.443 378.5 157.759 378.446C158.522 378.315 159.263 378.064 160.036 377.966C160.428 377.912 160.853 378.064 161.256 378.173C161.496 378.239 161.779 378.587 161.909 378.522C163.445 377.759 164.851 378.577 166.321 378.729C167.312 378.838 168.369 378.457 169.382 378.26C170.482 378.042 171.528 377.955 172.672 378.195C173.499 378.359 174.545 378.555 175.373 377.813C175.602 377.617 176.059 377.519 176.364 377.585C178.804 378.162 180.329 376.429 181.811 375.142C183.63 373.573 182.595 370.727 180.275 369.8C178.935 369.266 177.66 368.47 176.517 367.587C175.874 367.086 175.406 366.922 174.665 367.151C174.186 367.304 173.63 367.304 173.118 367.282C172.04 367.228 171.19 366.279 169.894 366.726C169.001 367.042 167.868 366.77 166.866 366.661C165.755 366.541 164.654 366.323 163.554 366.137C163.129 366.061 162.694 366.007 162.302 365.843C161.245 365.407 160.145 365.374 159.023 365.342C157.291 365.287 155.559 365.047 153.827 364.971C153.075 364.938 152.531 364.567 151.953 364.186C150.124 365.254 148.37 363.216 146.507 364.066C146.137 364.24 145.309 364.055 145.058 363.739C144.165 362.638 142.967 363.554 142.019 363.107C139.786 363.848 137.586 363.172 135.386 362.91C134.177 362.769 133 362.572 131.769 362.747C131.105 362.845 130.397 362.867 129.917 362.136C129.493 361.493 128.992 361.471 128.447 362.115C128.294 362.3 127.804 362.3 127.499 362.234C126.573 362.06 125.669 361.787 124.754 361.602C124.079 361.46 123.48 361.591 122.772 361.842C121.345 362.365 119.82 362.452 118.295 361.929C117.75 361.744 117.108 361.646 116.552 361.722C114.221 362.06 111.923 362.278 109.646 361.428C109.33 361.308 108.938 361.231 108.622 361.297C107.25 361.602 105.888 361.231 104.548 361.253C103.165 361.275 101.999 360.915 100.823 360.327C100.431 360.13 100.06 359.781 99.6573 359.749C97.8709 359.563 96.8252 358.299 95.5181 357.296C94.3744 356.413 93.5247 354.952 91.8037 354.887C91.564 354.887 91.3462 354.429 91.0956 354.221C90.7797 353.96 90.4202 353.513 90.1044 353.535C88.9388 353.622 88.5249 353.066 88.0239 352.074C87.2505 350.558 86.1067 349.239 85.0828 347.866C84.1025 346.546 84.1134 345.489 85.0175 344.126C85.5294 343.352 86.0632 342.502 86.2374 341.619C86.4771 340.43 87.0435 339.722 88.1873 339.558C88.7864 339.471 89.0805 339.155 89.3855 338.697C89.843 338.01 90.5074 337.531 91.368 337.694C92.1304 337.836 92.7295 337.858 93.0563 336.985C93.1217 336.822 93.4485 336.702 93.6663 336.647C95.6815 336.146 97.7402 335.797 99.7009 335.132C101.411 334.543 103.045 333.922 104.864 334.467C105.877 333.519 107.435 334.445 108.491 333.366C108.807 333.039 109.635 333.191 110.234 333.137C110.746 333.093 111.269 333.17 111.759 333.05C112.75 332.799 113.644 332.81 114.439 333.562C114.842 333.955 115.343 334.064 115.888 333.889C116.955 333.54 117.761 333.813 118.262 334.86C119.678 335.372 120.724 336.702 122.543 336.32C124.417 335.928 126.007 337.149 127.663 337.814C129.122 338.403 130.462 339.133 132.074 338.392C132.423 338.228 137.368 340.016 137.542 340.387C137.956 341.237 138.468 341.259 139.22 340.867C139.492 340.725 139.928 340.725 140.211 340.834C141.083 341.161 141.878 341.401 142.891 341.379C144.165 341.335 145.146 342.72 146.747 342.393C147.956 342.142 149.296 342.611 150.57 342.687C151.768 342.763 152.999 342.938 154.154 342.731C155.461 342.491 156.572 342.6 157.52 343.505C158.718 344.65 160.058 344.17 161.387 343.952C161.877 343.875 162.411 343.483 162.835 343.603C165.057 344.224 167.258 343.995 169.436 343.505C170.003 343.374 170.428 343.363 170.874 343.756C171.059 343.919 171.452 344.148 171.517 344.094C172.421 343.265 173.314 343.734 174.175 344.115C175.057 344.508 176.081 343.712 176.92 344.551C177.203 344.835 177.519 344.486 177.748 344.192C178.281 343.505 179.044 343.309 179.85 343.396C182.072 343.636 184.142 343.265 186.048 342.088C186.124 342.044 186.211 342.022 186.287 341.989C187.061 341.673 188.03 341.684 188.303 340.594C188.629 339.253 188.379 337.999 187.693 336.855C187.442 336.418 187.028 335.95 186.592 335.786C185.144 335.252 183.978 334.173 182.399 333.835C180.983 333.529 179.654 332.821 178.281 332.308C177.889 332.167 177.497 332.003 177.083 331.938C175.634 331.698 174.186 331.513 172.726 331.284C172.475 331.24 172.192 331.196 172.007 331.044C171.179 330.357 170.33 329.866 169.175 330.172C168.914 330.248 168.543 329.943 168.227 329.801C167.988 329.692 167.65 329.408 167.541 329.474C165.972 330.586 164.556 329.169 163.042 329.201C161.604 329.223 160.156 328.733 158.718 328.427C158.141 328.307 157.574 328.089 157.019 327.904C156.049 327.566 155.178 327.315 154.067 327.828C153.315 328.177 152.237 327.839 151.3 327.806C150.755 326.705 149.764 327.348 149.034 327.348C147.237 327.348 145.451 327.141 143.61 327.424C142.052 327.664 140.374 327.152 138.751 327.032C137.423 326.934 136.072 326.487 134.776 327.348C134.046 327.839 133.065 327.533 132.586 327.032C131.802 326.225 131.007 326.356 130.212 326.628C129.373 326.923 128.632 327.141 127.75 326.803C127.314 326.639 126.748 326.803 126.236 326.836C124.852 326.934 123.469 327.065 122.086 327.13C121.225 327.163 120.364 327.141 119.504 327.065C118.829 326.999 118.131 326.89 117.5 326.65C116.617 326.323 115.844 325.735 114.798 325.865C114.526 325.898 114.145 325.625 113.938 325.397C113.513 324.917 113.055 324.622 112.38 324.579C111.302 324.503 110.398 324.186 110.038 322.933C109.929 322.573 109.254 322.17 108.818 322.148C107.598 322.093 106.716 321.417 105.768 320.807C105.409 320.578 105.038 320.131 104.69 320.142C103.089 320.196 102.359 318.921 101.629 317.972C100.986 317.133 100.278 316.599 99.3741 316.511C98.1432 316.391 97.2718 315.89 96.5311 314.942C96.1172 314.407 95.5617 313.939 94.9844 313.601C93.6119 312.783 93.0454 311.486 92.8603 310.036C92.7513 309.142 92.4028 308.597 91.5858 308.269C90.8669 307.975 90.1589 307.637 89.4835 307.245C88.8191 306.863 88.0347 306.482 88.4704 305.457C87.5881 304.606 87.7407 303.647 88.1219 302.622C88.22 302.361 88.1219 301.783 87.9367 301.674C86.9781 301.161 87.1416 300.267 87.0218 299.461C86.9891 299.21 86.8584 298.97 86.7494 298.73C86.3246 297.847 86.4226 297.04 87.1307 296.354C87.708 295.787 88.111 295.22 87.8932 294.282C87.8169 293.933 88.2744 293.345 88.6339 293.039C89.3637 292.451 90.1916 291.982 90.9867 291.469C91.1283 291.371 91.2808 291.241 91.4442 291.23C92.1087 291.175 92.9038 291.36 93.4158 291.055C93.9387 290.75 93.9822 289.823 94.712 289.551C95.2676 289.344 95.8122 289.071 96.3786 288.929C97.555 288.657 98.7423 288.504 99.9187 288.232C100.224 288.166 100.452 287.817 100.747 287.654C100.954 287.534 101.389 287.425 101.411 287.468C102.076 288.733 103.241 287.981 104.145 288.21C104.788 288.373 105.409 288.766 105.964 289.169C107.794 290.521 109.777 291.513 112.075 291.6C112.859 291.633 113.535 291.895 113.862 292.472C114.548 293.672 115.681 294.151 116.846 294.359C119.319 294.806 121.29 296.299 123.523 297.248C124.024 297.455 124.362 298.076 124.743 298.545C125.43 299.384 125.571 299.461 126.443 298.981C126.813 298.785 127.107 298.294 127.554 298.61C127.674 298.698 127.369 299.275 127.488 299.515C127.652 299.853 128.087 300.366 128.294 300.311C129.71 299.973 130.723 301.183 132.042 301.183C132.858 301.183 132.913 302.546 133.893 302.404C134.58 302.306 135.255 302.099 135.93 302.055C136.344 302.023 136.78 302.197 137.205 302.306C138.436 302.633 139.514 303.494 140.952 303.058C141.333 302.938 142.019 303.527 142.444 303.92C142.814 304.258 143.043 304.77 143.305 305.217C143.729 305.958 144.339 306.383 145.211 306.351C147.389 306.274 149.415 307.288 151.583 307.31C151.91 307.31 152.28 307.452 152.553 307.637C154.96 309.272 157.781 309.752 160.515 310.406C161.18 310.57 161.931 310.384 162.182 311.311C162.204 311.409 162.552 311.551 162.607 311.507C163.489 310.81 164.426 311.507 165.308 311.366C166.811 311.137 168.107 311.747 169.219 312.467C171.255 313.786 173.51 313.513 175.689 313.797C176.549 313.165 177.41 314.407 178.39 313.72C179.164 313.186 180.013 313.993 180.83 314.167C181.462 314.309 182.181 313.949 182.834 314.026C184.643 314.222 186.462 314.418 188.237 314.811C189.174 315.018 189.969 314.942 190.721 314.473C192.551 313.328 194.457 313.154 196.45 313.939C197.191 314.233 197.453 314.026 197.692 313.208C197.856 312.641 198.575 311.845 199.076 311.824C200.568 311.747 200.492 310.755 200.786 309.763C201.08 308.749 201.178 308.062 200.274 307.234C199.751 306.754 199.25 305.915 199.283 304.955C199.293 304.508 198.967 303.996 198.662 303.625C198.28 303.167 197.779 302.818 197.3 302.448C195.633 301.118 193.564 300.366 192.126 298.719C190.743 298.719 189.849 298.076 189.381 296.757C189.337 296.626 188.924 296.55 188.695 296.572C188.107 296.648 187.769 296.43 187.388 295.961C187.028 295.514 186.462 295.165 185.917 294.958C185.035 294.62 184.087 294.5 183.455 293.65C183.303 293.443 182.845 293.443 182.529 293.366C182.29 293.312 181.941 293.366 181.811 293.214C181.451 292.8 181.255 291.993 180.874 291.916C180.416 291.829 179.926 292.385 179.24 292.145C178.608 291.927 178.216 291.633 177.856 291.088C177.584 290.674 177.018 290.03 176.745 290.096C174.774 290.597 173.761 288.798 172.214 288.33C171.974 288.253 171.648 288.166 171.539 287.981C171.114 287.294 170.569 287.381 169.959 287.621C169.436 287.828 169.153 287.643 169.066 287.076C168.935 286.215 168.086 285.844 167.574 286.018C166.604 286.356 165.864 285.92 165.09 285.67C164.121 285.353 163.282 284.601 162.138 285.005C161.931 285.081 161.604 284.972 161.398 284.83C160.123 283.98 158.642 283.838 157.215 283.467C156.245 283.217 155.363 282.617 154.47 282.116C153.925 281.81 153.511 281.603 152.836 281.996C152.422 282.235 151.583 282.148 151.137 281.865C149.405 280.786 147.172 281.178 145.549 279.87C145.429 279.772 145.091 279.99 144.851 280.022C144.448 280.088 144.013 280.251 143.642 280.153C141.388 279.543 138.958 280.088 136.758 279.096C136.551 278.998 136.257 279.096 135.996 279.107C134.253 279.27 134.285 279.161 132.412 278.605C131.377 278.3 130.19 278.267 129.122 278.42C127.586 278.649 126.029 278.343 124.504 278.812C124.046 278.954 123.491 278.78 122.979 278.725C121.541 278.561 120.005 277.995 118.676 278.322C117.456 278.616 116.356 278.572 115.19 278.529C115.103 278.529 114.983 278.452 114.94 278.485C113.469 279.619 111.661 279.237 110.005 279.543C108.992 279.739 107.936 279.924 106.923 279.826C105.975 279.739 105.082 279.554 104.102 279.793C103.59 279.924 102.936 279.597 102.381 279.39C101.738 279.139 101.139 278.79 100.529 278.474C100.311 278.354 99.9296 278.202 99.9296 278.049C99.897 276.741 99.2107 276.512 98.0779 276.73C97.8164 276.784 97.3154 276.545 97.2065 276.305C96.7272 275.269 96.0192 275.062 94.9299 275.258C94.2654 275.378 93.601 275.062 93.1544 274.397C92.6097 273.59 91.9126 272.947 90.8778 272.783C90.0717 272.664 89.8756 271.889 89.4508 271.366C88.8517 270.614 88.6557 270.603 87.708 271.028C86.4335 271.617 84.8867 270.974 84.5926 269.491C84.4401 268.706 84.1896 268.466 83.5142 268.368C82.523 268.237 81.4664 268.346 81.1178 266.918C80.9871 266.417 80.0831 266.035 79.4731 265.752C78.8304 265.457 78.1441 265.305 77.9372 264.509C77.9154 264.433 77.8718 264.334 77.8065 264.28C77.1856 263.713 76.0854 263.986 75.6497 263.004C75.312 262.23 74.8546 261.5 74.3753 260.813C74.0376 260.333 73.9177 259.995 74.2554 259.428C74.495 259.025 74.4624 258.436 74.4624 257.924C74.4624 257.51 74.1901 256.986 74.3426 256.692C74.4842 256.42 75.0942 256.441 75.4427 256.234C75.8022 256.016 76.0963 255.678 76.434 255.417C76.7716 255.155 77.1856 254.664 77.4906 254.719C78.9393 254.991 79.7454 253.967 80.7257 253.302C81.9893 252.44 83.3509 251.95 84.8977 252.19C85.9434 252.353 86.9455 252.462 87.8932 251.775C88.1982 251.557 88.6992 251.59 89.1131 251.59C89.9083 251.59 90.6163 251.481 91.3352 251.034C92.4681 250.358 93.8188 250.162 95.0824 250.336C96.0845 250.478 96.9886 250.38 97.8818 250.053C99.6355 249.399 101.411 249.017 103.197 249.715C104.82 250.358 106.444 249.595 108.067 249.944C108.916 250.129 109.962 249.268 110.659 250.445C110.703 250.522 111.029 250.543 111.127 250.467C112.587 249.366 114.166 250.554 115.67 250.194C115.855 250.151 116.214 250.336 116.312 250.511C116.737 251.306 117.358 251.241 118.099 251.11C118.458 251.045 118.992 251.176 119.264 251.415C120.397 252.44 121.258 253.879 123.12 253.705C123.251 253.694 123.534 254.054 123.545 254.25C123.578 255.395 124.896 255.526 125.234 256.43C125.277 256.55 125.691 256.572 125.931 256.583C127.793 256.627 129.057 257.052 130.32 257.978C130.876 258.393 131.432 258.883 132.074 259.08C133.381 259.483 134.416 260.093 135.059 261.369C135.353 261.958 136.301 261.969 136.529 262.754C136.573 262.895 137.063 263.059 137.194 262.972C138.24 262.285 139.046 263.037 139.841 263.44C141.377 264.225 142.88 265.065 144.329 266.002C145.069 266.482 145.657 267.027 146.66 266.864C147.498 266.722 147.89 267.431 148.141 268.085C148.392 268.75 148.838 269.044 149.503 269.077C150.276 269.12 151.082 269.066 151.823 269.262C152.705 269.502 153.936 269.055 154.339 270.429C154.393 270.614 154.753 270.767 154.993 270.821C156.528 271.126 157.596 272.435 159.175 272.707C160.689 272.958 162.16 273.481 163.663 273.841C164.251 273.983 164.861 273.939 165.156 274.659C165.221 274.822 165.722 274.877 166.016 274.866C166.343 274.844 166.844 274.506 166.964 274.615C168.151 275.76 169.948 275.476 171.19 276.501C172.41 277.515 173.815 278.038 175.438 278.136C176.996 278.224 178.565 278.485 179.708 279.739C180.144 280.208 180.536 280.12 181.092 279.924C181.625 279.739 182.333 279.63 182.824 279.826C185.906 281.047 189.087 280.873 192.246 280.535C193.596 280.393 194.816 280.448 196.069 280.862C196.559 281.025 197.071 281.134 197.561 281.298C199.119 281.799 200.503 281.679 202.017 280.829C203.128 280.208 204.359 279.27 205.916 279.913C206.461 280.142 207.539 279.085 207.692 278.354C207.757 278.049 207.583 277.635 207.714 277.395C208.345 276.272 209.053 275.193 209.75 274.113C209.936 273.819 210.219 273.59 210.382 273.296C210.644 272.86 210.546 272.336 210.099 272.217C209.478 272.053 209.075 271.944 208.901 271.17C208.618 269.938 207.311 269.131 207.343 267.681C207.343 267.463 206.701 267.071 206.319 267.038C205.121 266.918 204.326 266.22 203.411 265.523C201.45 264.029 199.631 262.35 197.224 261.456C195.47 260.802 193.695 259.995 192.311 258.611C191.581 257.869 190.59 257.88 189.664 257.695C188.771 257.51 187.704 257.782 187.094 256.757C186.996 256.605 186.625 256.518 186.407 256.55C185.318 256.736 184.359 256.321 183.357 256.027C182.105 255.667 180.689 255.624 179.61 255.002C178.499 254.359 177.29 254.468 176.179 253.956C175.111 253.454 173.892 253.236 172.628 253.345C171.68 253.432 170.689 253.247 169.97 252.506C169.491 252.015 168.957 251.819 168.325 252.026C166.724 252.527 165.264 251.961 163.772 251.525C162.966 251.296 162.236 250.903 161.289 251.274C160.7 251.503 159.807 251.437 159.252 251.143C157.509 250.184 155.537 250.478 153.729 249.955C153.402 249.857 153.01 249.933 152.738 249.78C152.302 249.54 151.866 248.854 151.54 248.919C150.113 249.202 148.925 248.232 147.509 248.352C146.464 248.439 145.342 248.232 144.252 247.807C143.272 247.425 142.041 247.578 140.941 247.654C138.751 247.807 136.682 247.578 134.525 246.989C131.704 246.226 128.937 245.125 125.952 244.994C125.223 244.961 124.264 244.689 123.839 244.166C123.011 243.174 121.552 243.599 120.898 242.694C120.288 241.844 119.842 241.015 118.785 240.557C118.338 240.361 117.718 239.772 117.739 238.933C117.761 237.995 117.129 237.363 116.476 236.752C115.713 236.044 114.983 235.291 114.243 234.55C113.742 234.059 113.328 233.569 113.35 232.762C113.35 232.304 112.936 231.846 112.75 231.378C112.663 231.16 112.554 230.822 112.663 230.68C113.262 229.862 113.208 229.088 112.729 228.249C112.62 228.063 112.631 227.649 112.761 227.518C113.687 226.559 114.177 225.044 115.888 225.076C116.149 225.076 116.519 225.12 116.639 224.967C117.652 223.713 119.417 223.713 120.506 222.601C120.746 222.362 120.964 222.056 121.247 221.926C121.879 221.642 122.554 221.348 123.12 222.111C123.643 222.809 124.34 223.016 125.19 222.885C126.105 222.743 126.846 223.092 127.477 223.779C128.839 225.218 130.571 226.177 132.194 227.268C132.39 227.398 132.597 227.595 132.652 227.802C132.782 228.303 133 228.576 133.545 228.434C135.266 227.987 136.616 228.783 137.728 229.906C138.773 230.963 139.95 231.465 141.409 231.617C143.348 231.825 145.102 232.544 146.616 233.831C147.204 234.332 147.858 234.812 148.566 235.095C149.524 235.466 150.614 235.542 151.561 235.924C152.509 236.305 153.326 237.014 154.263 237.406C154.873 237.657 155.33 237.832 155.385 238.573C155.385 238.704 155.864 238.954 156.006 238.9C157.792 238.126 159.034 239.848 160.646 239.881C160.842 239.881 161.016 240.372 161.212 240.623C161.354 240.797 161.615 241.124 161.659 241.091C163.042 240.252 164.001 241.571 165.166 241.778C166.332 241.996 167.563 242.094 168.565 242.89C168.739 243.021 169.131 243.119 169.262 243.021C170.057 242.4 170.656 243.021 171.092 243.424C171.996 244.253 172.933 244.591 174.153 244.395C174.708 244.307 175.406 244.395 175.896 244.656C177.769 245.692 179.806 246.008 181.876 246.281C182.126 246.313 182.442 246.542 182.617 246.455C183.989 245.736 185.067 246.117 186.146 247.131C186.418 247.393 187.148 247.273 187.638 247.175C188.597 246.978 189.49 246.804 190.372 247.48C190.677 247.709 191.244 247.818 191.625 247.72C193.738 247.131 195.786 248.058 197.877 247.97C198.585 247.938 199.195 248.014 199.805 247.523C200.263 247.164 200.949 246.749 201.45 246.837C202.627 247.033 203.128 246.488 203.596 245.572C203.988 244.809 204.467 244.035 205.067 243.424C205.938 242.541 205.241 241.244 206.025 240.394C205.644 239.347 205.513 238.071 204.816 237.308C203.705 236.076 202.703 234.572 200.971 234.059C198.956 233.46 197.365 232.108 195.633 231.018C195.165 230.723 194.74 230.135 194.577 229.601C194.315 228.728 193.989 228.499 193.117 228.827C192.801 228.946 192.278 228.674 191.919 228.467C189.588 227.137 187.006 226.417 184.534 225.436C183.662 225.087 182.845 224.542 182.105 223.964C181.386 223.408 180.678 223.07 179.741 223.092C178.957 223.092 178.205 222.896 177.802 222.035C177.693 221.795 177.236 221.544 176.985 221.577C176.135 221.697 175.449 221.588 174.894 220.868C174.785 220.715 174.338 220.606 174.229 220.705C173.314 221.5 172.377 220.955 171.528 220.705C170.537 220.399 169.578 220.149 168.521 220.072C167.432 219.996 166.31 219.821 165.33 219.08C164.404 218.382 163.217 218.415 162.073 218.361C160.951 218.306 159.807 218.208 158.729 217.914C157.868 217.685 157.117 216.976 156.202 217.717C156.147 217.761 156.017 217.772 155.951 217.739C153.99 216.889 151.627 217.674 149.808 216.224C149.557 216.028 149.1 215.82 148.871 215.919C147.564 216.464 146.137 215.722 144.841 216.344C144.274 216.616 143.675 216.638 143.119 216.191C142.945 216.049 142.608 215.995 142.401 216.06C141.006 216.475 139.732 216.344 138.37 215.711C137.684 215.395 136.616 215.515 135.843 215.799C134.471 216.311 133.131 216.126 131.758 216.06C130.811 216.017 129.798 215.81 128.937 216.06C128.044 216.322 127.521 216.082 126.802 215.679C126.072 215.275 125.702 214.294 124.678 214.338C124.526 214.338 124.297 214.011 124.21 213.793C123.916 213.04 123.611 212.375 122.728 212.114C121.966 211.885 122.456 210.566 121.334 210.446C121.007 210.413 120.561 209.704 120.495 209.257C120.277 207.797 119.961 206.39 119.134 205.136C119.003 204.929 118.839 204.559 118.938 204.406C119.515 203.479 119.188 202.705 118.796 201.8C118.426 200.961 118.436 199.947 118.262 199.02C118.142 198.388 118.153 197.865 118.731 197.385C119.471 196.775 119.656 196.055 119.101 195.096C118.698 194.398 118.938 193.482 119.471 192.893C120.375 191.88 120.811 190.68 121.29 189.459C121.53 188.838 121.802 188.151 122.761 188.293C122.99 188.326 123.436 187.977 123.512 187.726C123.85 186.614 124.743 186.156 125.626 185.556C126.66 184.859 128.153 185.066 128.926 183.79C129.09 183.518 129.885 183.659 130.397 183.583C131.181 183.474 132.107 183.79 132.575 182.722C132.673 182.515 133.381 182.406 133.73 182.515C135.244 182.973 136.638 182.58 138.022 182.046C139.754 181.381 141.54 181.13 143.381 181.13C143.98 181.13 144.644 181.098 145.178 181.337C145.941 181.675 146.67 181.621 147.455 181.61C148.01 181.61 148.577 181.926 149.143 182.09C149.437 182.177 149.884 182.384 150.025 182.264C150.821 181.577 151.572 181.926 152.455 182.057C153.609 182.242 154.971 181.653 155.984 182.046C157.095 182.471 158.217 182.667 159.339 182.929C160.602 183.223 161.844 183.398 162.999 184.106C163.761 184.575 164.851 184.444 165.722 184.771C167.835 185.556 169.894 186.461 171.996 187.279C172.878 187.617 173.804 187.868 174.73 188.118C175.09 188.217 175.427 187.802 175.275 187.475C174.578 185.949 173.728 184.586 172.04 183.921C171.245 183.605 170.493 183.136 169.774 182.656C168.739 181.981 167.683 181.479 166.441 181.261C165.613 181.119 164.818 180.694 164.055 180.291C162.814 179.637 161.583 179.015 160.123 179.233C159.96 179.255 159.742 179.277 159.611 179.201C157.912 178.274 155.962 178.263 154.186 177.642C153.794 177.511 153.544 177.238 153.043 177.402C151.322 177.936 149.59 177.533 147.89 177.205C146.529 176.944 145.222 177.02 143.838 177.129C141.529 177.315 139.198 177.195 136.878 177.064C136.192 177.02 135.68 176.987 135.309 177.587C134.797 178.427 134.002 178.655 133.098 178.754C131.889 178.884 130.669 178.983 129.482 179.222C127.477 179.626 125.495 180.04 123.817 181.435C122.859 182.231 121.388 182.438 120.473 183.267C119.548 184.106 119.003 185.371 117.979 186.2C117.238 186.799 116.639 187.497 116.356 188.456C116.236 188.871 116.084 189.329 115.79 189.623C114.689 190.768 114.57 192.196 114.373 193.657C114.123 195.575 114.112 197.56 113.088 199.315C112.99 199.478 113.088 199.827 113.208 200.013C113.949 201.114 114.363 202.182 113.208 203.283C113.066 203.414 113.045 203.774 113.11 203.981C113.426 205.027 113.84 206.041 114.123 207.099C114.221 207.469 114.166 207.96 114.014 208.32C113.753 208.898 114.014 209.137 114.472 209.257C115.55 209.541 115.866 210.26 116.127 211.296C116.465 212.604 117.216 213.814 117.837 215.046C118.11 215.581 118.535 216.038 118.807 216.573C118.883 216.714 118.741 217.14 118.589 217.205C117.979 217.478 117.325 217.685 116.683 217.87C115.386 218.219 114.112 218.546 113.241 219.712C112.892 220.192 112.38 220.606 111.857 220.89C110.43 221.675 109.798 223.147 108.829 224.313C108.677 224.498 108.644 224.782 108.546 225.022C108.241 225.785 106.716 225.371 106.977 226.744C107.119 227.486 106.945 228.281 106.934 229.045C106.934 230.135 107.478 231.312 106.313 232.184C106.226 232.25 106.204 232.599 106.28 232.664C107.315 233.503 106.552 234.365 106.313 235.204C106.095 235.967 106.324 236.567 106.868 237.068C107.609 237.755 107.968 238.486 107.892 239.587C107.849 240.23 108.524 240.939 108.927 241.593C109.189 242.029 109.592 242.378 109.853 242.814C110.169 243.337 109.592 243.566 109.385 243.904C109.08 244.395 108.851 244.024 108.622 243.784C108.502 243.664 108.382 243.522 108.23 243.446C108.088 243.37 107.816 243.283 107.762 243.348C106.759 244.515 105.43 242.814 104.352 243.751C104.014 244.046 103.339 244.209 102.925 244.078C101.803 243.73 100.725 243.828 99.6138 244.057C98.7315 244.242 97.8709 244.166 97.1085 243.642C96.2915 243.075 95.4309 243.065 94.7011 243.675C94.0802 244.198 93.5356 244.296 92.7949 244.024C92.5008 243.915 92.0542 243.926 91.8145 244.089C90.9976 244.634 90.0608 244.547 89.2983 244.318C87.2614 243.697 85.8235 244.798 84.3203 245.768C83.9608 245.997 83.7104 246.401 83.3509 246.619C83.0895 246.782 82.6646 246.913 82.425 246.804C81.3575 246.335 80.399 246.662 79.3968 246.989C78.7433 247.207 78.0461 247.305 77.3599 247.36C76.7063 247.414 76.227 247.622 75.8131 248.156C75.5081 248.548 75.0615 248.864 74.6149 249.093C73.5801 249.628 72.1313 249.257 71.4669 250.587C70.9658 251.59 69.5389 251.775 69.3101 253.051C69.2774 253.258 69.0051 253.498 68.7873 253.596C66.8484 254.512 66.8374 256.234 66.9028 258C66.9246 258.425 67.1098 258.949 66.9137 259.243C66.075 260.54 66.1947 261.576 67.5019 262.448C67.6108 262.525 67.7088 262.841 67.6435 262.917C66.9572 263.735 67.1751 264.095 68.101 264.618C68.6021 264.901 68.5585 266.035 68.9615 266.667C69.2774 267.18 69.6042 267.703 70.5954 267.54C71.7501 267.354 72.7631 268.325 73.2751 269.295C73.8851 270.45 74.9525 271.399 74.9961 272.86C74.9961 273.1 75.3665 273.481 75.6279 273.557C77.0222 273.961 78.4709 274.168 79.2988 275.629C79.4621 275.912 80.0612 275.945 80.4643 276.076C82.022 276.588 83.5578 276.992 84.4075 278.736C84.756 279.445 85.8562 279.979 86.7276 280.208C88.4378 280.655 89.9301 281.527 91.4878 282.268C91.9779 282.508 92.6424 282.77 92.4572 283.293C92.2612 283.838 92.1087 284.732 91.2917 284.754C90.2133 284.776 89.5925 285.441 88.8082 285.997C87.4139 286.989 86.4226 288.591 84.5491 288.886C83.9827 289.943 82.8498 290.488 82.1963 291.459C81.8477 291.971 81.4882 292.396 80.7584 292.429C80.0613 292.462 79.8543 293.116 80.1702 293.563C80.9435 294.696 79.9197 295.623 79.9959 296.659C78.8522 297.149 79.3097 298.251 79.0591 299.079C78.7977 299.951 78.1332 300.813 79.179 301.608C78.6343 302.84 79.68 303.298 80.2029 304.127C80.9654 305.326 81.3793 306.852 81.5863 308.291C81.7388 309.392 81.7932 310.33 82.8607 310.93C83.1221 311.082 83.3182 311.431 83.438 311.736C83.8083 312.652 83.8628 313.917 84.5273 314.451C85.4749 315.214 85.6601 316.097 85.9107 317.1C86.0087 317.493 86.3246 317.863 86.5969 318.179C86.7494 318.354 87.0217 318.506 87.2614 318.539C89.4508 318.823 90.148 319.019 90.7471 320.338C91.1392 321.21 91.5422 321.308 92.3156 321.156C92.4681 321.123 92.8493 321.417 92.8384 321.515C92.7077 322.42 93.2197 322.66 93.9495 322.954C95.7686 323.685 97.1411 325.277 99.1563 325.658C100.191 327.217 102.021 327.479 103.47 328.34C103.895 328.591 103.873 329.114 103.394 329.332C102.936 329.55 102.446 329.736 101.956 329.823C100.856 330.03 99.69 330.444 98.6443 330.248C97.2718 329.986 95.9974 330.597 94.6576 330.302C93.9713 330.15 93.3286 330.237 92.8603 330.989C92.6206 331.371 92.0324 331.611 91.564 331.763C88.7864 332.701 86.0305 333.693 83.8628 335.797C82.6755 336.07 81.9239 337.258 80.595 337.28C80.0286 337.28 79.7236 337.661 79.6909 338.326C79.6582 339.002 79.4839 339.689 79.2334 340.321C78.5798 341.989 78.5581 343.712 78.5799 345.456C78.5799 346.219 78.5472 347.004 78.4382 347.757C78.3075 348.651 79.2879 349.043 79.277 349.861C79.277 350.1 79.3968 350.46 79.277 350.58C78.7542 351.103 78.874 351.529 79.4731 351.779C80.595 352.259 81.4337 353.164 81.6952 354.189C82.1962 356.184 83.9282 356.609 85.2898 357.525C85.4967 357.666 85.7799 357.699 86.0196 357.797C86.5751 358.048 86.4335 358.375 86.1939 358.8C86.0523 359.051 86.0523 359.389 85.9978 359.694C86.3028 359.629 86.6078 359.531 86.9237 359.52C87.9258 359.476 88.7864 359.923 89.1894 360.774C89.6905 361.809 90.2787 362.158 91.4333 362.027C92.0324 361.962 92.7295 362.354 93.3068 362.681C93.7099 362.91 94.309 363.401 94.2763 363.717C94.1892 364.546 93.4593 363.815 93.0454 364.011C91.357 364.786 89.6251 365.505 87.9694 366.355C87.4139 366.639 87.0109 367.01 86.3355 366.639C86.1612 366.541 85.5076 366.868 85.4967 367.031C85.3551 368.569 83.9173 369.026 83.0568 369.888C82.2071 370.749 81.913 372.003 80.8455 372.657C80.7366 372.722 80.6495 372.995 80.6822 373.126C81.0198 374.358 80.2682 375.262 79.7999 376.276C79.5929 376.723 79.5166 377.279 79.5384 377.77C79.6038 379.285 80.0504 380.822 79.168 382.283C79.07 382.458 79.3423 382.883 79.4948 383.166C79.8107 383.777 80.2355 384.344 80.4752 384.976C80.595 385.303 79.7236 385.815 80.2682 386.077C82.2289 387.037 83.1657 389.195 85.1591 390.111C85.5403 390.285 86.0414 390.602 86.1176 390.939C86.4008 392.204 87.5773 392.607 88.2962 393.436C89.2983 394.592 90.5183 395.344 92.0324 395.616C92.4463 395.693 92.8711 395.845 93.2415 396.074C93.6881 396.347 93.9496 396.739 93.906 397.361C93.808 398.647 93.8841 398.582 94.8754 398.843C96.8905 399.378 98.9057 399.912 100.866 400.62C102.359 401.155 103.818 401.602 105.42 401.613C106.367 401.623 107.348 401.732 108.252 401.994C111.302 402.877 114.395 403.15 117.554 402.964L117.565 402.975ZM132.085 292.08C131.257 291.96 130.582 291.884 129.907 291.753C129.776 291.731 129.569 291.48 129.591 291.393C129.939 290.009 129.079 290.172 128.153 290.041C127.064 289.889 126.029 289.376 124.961 289.017C124.634 288.908 124.253 288.646 123.992 288.733C122.815 289.115 121.966 288.537 121.149 287.872C120.55 287.381 119.863 287.458 119.177 287.381C118.676 287.327 117.979 287.272 117.761 286.945C117.075 285.92 116.116 285.768 115.049 285.735C114.94 285.735 114.776 285.517 114.755 285.386C114.744 285.255 114.853 285.016 114.962 284.983C116.28 284.558 117.587 284.111 118.927 283.794C119.482 283.664 120.103 283.816 120.702 283.86C122.521 283.991 124.231 284.59 126.127 284.569C128.763 284.536 131.421 284.056 134.068 284.612C135.396 284.896 136.769 284.95 138.109 285.146C139.198 285.31 140.309 285.179 141.387 285.724C141.987 286.029 142.934 285.888 143.642 285.681C144.383 285.462 144.819 285.484 145.483 286.008C146.649 286.912 147.999 287.501 149.557 286.684C150.418 286.237 151.191 286.411 151.921 287.12C152.335 287.523 152.999 287.654 153.043 288.406C153.043 288.504 153.468 288.711 153.62 288.668C156.125 287.839 158.402 289.136 160.777 289.431C161.245 289.485 161.833 289.834 162.073 290.216C162.966 291.677 164.48 291.807 165.896 292.156C167.214 292.483 168.696 292.385 169.709 293.519C170.602 294.533 172.421 294.097 172.977 295.699C173.075 295.972 173.924 296.19 174.371 296.114C175.82 295.852 176.876 296.659 177.944 297.335C179.174 298.109 180.318 299.035 181.429 299.973C182.322 300.736 183.336 301.172 184.468 301.303C185.721 301.445 186.865 301.674 187.573 302.884C187.725 303.146 188.117 303.396 188.412 303.407C189.544 303.429 189.915 304.149 190.013 305.086C190.067 305.664 190.394 305.795 190.852 305.838C191.331 305.882 191.385 306.198 191.331 306.58C191.276 306.929 191.2 307.256 190.699 307.19C189.937 307.103 189.152 307.136 188.422 306.939C187.802 306.776 187.311 306.798 186.691 307.005C184.599 307.703 182.486 307.975 180.373 306.939C179.305 306.416 178.129 306.133 177.05 305.609C176.168 305.184 175.406 304.781 174.371 305.239C173.804 305.489 173.325 305.239 173.075 304.421C172.802 303.494 172.367 303.527 171.615 304.258C171.397 304.476 171.103 304.814 170.885 304.792C169.709 304.65 168.467 304.672 167.781 303.309C167.389 302.535 166.887 302.513 166.43 303.233C165.994 303.92 165.537 304.029 164.938 303.756C164.23 303.451 163.554 303.047 162.912 302.633C162.16 302.153 161.452 301.652 160.515 302.175C159.905 302.513 159.6 301.805 159.143 301.739C158.663 301.674 157.901 302.088 157.716 301.881C156.921 301.031 155.276 301.216 155.047 299.679C155.025 299.526 154.666 299.319 154.47 299.319C153.043 299.319 151.845 298.545 150.527 298.207C149.448 297.934 148.25 297.967 147.433 297.03C146.355 297.258 145.352 296.43 144.274 296.757C142.194 297.389 140.418 296.964 138.904 295.351C138.327 294.74 137.934 293.912 136.998 293.65C135.832 293.334 134.721 292.887 133.871 291.916C133.708 291.72 133.24 291.709 132.935 291.742C132.597 291.775 132.281 291.971 132.107 292.036L132.085 292.08ZM140.026 254.85C139.754 254.762 139.263 254.675 138.839 254.457C137.531 253.77 136.257 253.04 134.983 252.309C134.874 252.244 134.797 252.015 134.83 251.884C134.863 251.743 135.026 251.579 135.168 251.535C136.562 251.197 137.967 251.197 139.198 252.004C140.44 252.822 141.584 253.661 143.196 252.985C143.446 252.876 143.936 253.04 144.154 253.247C145.08 254.086 146.126 253.781 147.139 253.607C148.337 253.4 149.121 254.806 150.33 254.381C151.3 254.043 152.226 254.381 153.152 254.533C155.091 254.861 156.975 255.504 158.99 255.34C159.568 255.297 160.167 255.569 160.755 255.678C162.28 255.962 163.816 256.529 165.319 256.441C166.593 256.376 167.694 256.332 168.761 257.085C169.088 257.313 169.567 257.346 169.97 257.466C170.449 257.608 171.016 257.63 171.386 257.913C172.475 258.774 173.685 258.992 175.035 258.949C177.595 258.872 180.013 259.647 182.323 260.584C183.27 260.966 184.174 261.336 185.176 261.598C186.135 261.838 186.941 262.634 187.845 263.135C188.139 263.299 188.52 263.299 188.858 263.375C192.257 264.084 195.459 265.228 198.215 267.452C198.858 267.976 199.402 268.63 200.437 268.619C200.938 268.619 201.537 269.12 201.94 269.546C202.322 269.96 202.866 270.723 202.714 271.039C202.234 272.064 203.313 271.868 203.476 272.304C203.531 272.456 203.324 272.816 203.139 272.925C202.409 273.394 201.69 273.928 200.895 274.223C199.555 274.702 198.139 275.465 196.799 274.124C196.69 274.015 196.265 274.015 196.135 274.135C194.882 275.215 193.542 274.844 192.235 274.364C191.102 273.95 190.045 273.329 188.924 272.925C188.303 272.696 187.518 272.489 186.93 272.664C185.993 272.947 185.209 272.849 184.457 272.326C183.444 271.628 182.41 271.497 181.233 271.889C180.874 272.009 180.133 271.988 180.046 271.802C179.556 270.81 178.739 270.941 177.878 270.821C177.083 270.712 176.244 270.352 175.591 269.873C175.101 269.513 174.872 269.578 174.523 269.916C174.055 270.363 173.499 270.309 173.14 269.884C172.552 269.175 171.844 268.804 170.961 268.597C168.848 268.096 166.844 267.376 165.232 265.806C164.829 265.414 164.164 265.239 163.587 265.076C162.519 264.76 161.441 264.454 160.341 264.28C158.631 263.996 157.095 263.331 155.701 262.328C155.047 261.86 154.339 261.663 153.587 261.445C151.692 260.878 149.775 260.257 148.054 259.309C147.052 258.763 146.104 258.262 144.993 258C144.601 257.902 143.958 257.597 143.947 257.368C143.893 255.994 142.422 256.103 141.889 255.253C141.54 254.697 140.974 254.468 140.059 254.828L140.026 254.85ZM182.976 230.516C183.336 230.593 184.011 230.582 184.457 230.887C185.449 231.552 186.549 231.977 187.649 232.304C188.804 232.653 189.534 234.136 191.058 233.536C191.244 233.46 191.723 233.831 191.886 234.092C192.692 235.411 193.945 236.033 195.328 236.578C196.385 236.992 197.42 237.712 197.692 238.856C197.856 239.521 197.856 239.87 198.629 240.023C199.37 240.175 199.413 240.59 198.792 241.026C198.313 241.364 197.768 241.625 197.246 241.887C196.222 242.4 195.078 242.072 194.032 242.301C191.658 242.814 189.435 241.549 187.094 241.833C186.887 241.854 186.603 241.625 186.44 241.44C185.939 240.884 185.481 240.808 184.937 241.407C184.534 241.844 184 241.898 183.521 241.56C183.107 241.266 182.595 240.95 182.421 240.524C181.996 239.489 181.331 239.292 180.351 239.619C179.229 239.99 178.02 239.838 177.083 239.347C176.135 238.856 175.449 238.18 174.273 238.791C173.957 238.955 173.314 238.562 172.857 238.344C171.844 237.886 170.842 236.992 169.839 236.992C168.728 236.992 167.824 236.621 166.877 236.294C165.776 235.913 164.654 235.64 163.75 234.648C162.944 233.754 161.43 234.419 160.341 233.874C160.188 233.798 160.036 233.711 159.894 233.613C157.661 232.075 155.167 231.214 152.542 230.691C151.975 230.571 151.191 230.364 150.962 229.949C150.418 228.968 148.936 229.339 148.609 228.085C148.522 227.747 148.021 227.998 147.814 228.325C147.52 228.794 147.041 228.816 146.681 228.576C146.039 228.151 145.494 227.562 144.862 227.126C144.045 226.548 143.174 226.046 142.324 225.512C141.442 226.046 140.908 225.153 140.222 225.033C139.34 224.891 138.523 224.716 137.826 224.204C137.281 223.812 136.791 223.31 136.388 222.776C135.941 222.187 136.268 221.435 136.965 221.468C139.514 221.598 142.139 221.053 144.601 222.22C144.96 222.394 145.472 222.416 145.864 222.318C147.368 221.947 148.86 221.555 150.385 222.242C150.592 222.34 150.897 222.285 151.147 222.242C153.783 221.838 156.289 222.329 158.718 223.354C159.197 223.561 159.666 223.877 160.156 223.932C161.103 224.03 162.062 224.041 163.01 223.964C164.121 223.866 164.742 224.978 165.918 224.891C167.007 224.815 168.304 224.978 169.186 225.534C169.992 226.047 170.689 226.275 171.56 226.221C172.323 226.166 172.944 226.395 173.358 227.039C173.761 227.66 174.338 227.529 174.948 227.616C175.427 227.682 175.82 228.303 176.299 228.598C176.473 228.696 176.789 228.576 177.04 228.532C178.466 228.26 179.556 229.47 180.939 229.404C181.048 229.404 181.222 229.633 181.266 229.786C181.473 230.593 181.854 231.04 182.976 230.538V230.516ZM156.997 332.461C157.52 332.461 158.043 332.407 158.554 332.461C161.724 332.886 164.905 333.148 168.02 333.955C168.848 334.173 169.741 334.129 170.547 334.391C171.974 334.859 173.75 334.107 174.861 335.634C174.937 335.743 175.199 335.819 175.329 335.775C176.473 335.383 177.148 336.702 178.161 336.571C179.392 336.408 180.002 337.421 180.896 337.858C181.375 338.087 181.8 338.283 182.323 338.294C182.431 338.294 182.617 338.501 182.628 338.621C182.628 338.752 182.464 339.002 182.388 339.002C180.231 338.882 178.085 338.762 175.939 338.566C175.667 338.544 175.449 338.087 175.155 337.923C174.97 337.825 174.567 337.814 174.458 337.923C173.412 339.144 171.996 338.904 170.842 338.544C168.521 337.825 166.245 337.934 163.925 338.25C162.792 338.403 161.692 338.566 160.733 337.694C160.515 337.498 160.069 337.465 159.742 337.509C159.088 337.596 158.598 337.225 158.043 337.073C157.422 336.909 156.692 337.269 156.016 337.236C154.383 337.16 152.716 337.225 151.311 336.081C151.038 335.862 150.505 335.873 150.102 335.917C148.871 336.037 147.585 335.939 146.627 335.274C145.745 334.652 145.102 334.238 144.122 334.892C143.969 334.99 143.566 334.914 143.414 334.783C142.575 333.987 141.507 334.031 140.483 333.911C139.982 333.846 139.361 333.856 139.013 333.573C138.468 333.126 138.033 333.05 137.368 333.279C136.486 333.584 135.658 333.333 134.961 332.701C134.841 332.603 134.765 332.396 134.765 332.243C134.765 332.112 134.917 331.927 135.037 331.894C135.952 331.643 136.878 331.393 137.804 331.207C138.218 331.12 138.741 330.989 139.078 331.164C140.483 331.883 141.867 331.556 143.283 331.273C143.697 331.186 144.143 331.273 144.579 331.327C145.374 331.425 145.973 332.025 146.649 332.276C147.226 332.494 148.076 331.916 148.827 331.752C149.045 331.709 149.394 331.807 149.546 331.96C150.058 332.505 150.418 332.221 150.842 331.851C151.245 331.491 151.638 331.338 152.226 331.709C153.675 332.646 155.341 332.581 156.986 332.472L156.997 332.461ZM166.789 370.28C169.436 369.833 171.419 370.814 173.445 371.458C173.641 371.523 173.804 371.981 173.815 372.275C173.815 372.428 173.478 372.711 173.281 372.722C172.247 372.766 171.114 373.006 170.21 372.679C167.944 371.85 165.787 372.624 163.587 372.755C161.539 372.875 159.535 372.243 157.476 372.362C156.812 371.556 155.875 371.937 155.058 371.796C153.544 371.534 151.888 371.828 150.548 370.88C149.906 370.422 149.503 370.465 149.012 371.032C148.588 371.523 148.206 371.131 147.923 370.836C147.041 369.899 146.028 369.746 144.851 370.171C143.926 370.498 143.032 370.422 142.052 370.16C140.81 369.822 139.449 369.495 138.218 369.681C137.107 369.855 136.126 369.735 135.255 369.288C134.46 368.885 133.828 368.896 133.055 369.157C132.532 369.332 132.052 369.201 131.835 368.547C131.551 367.718 131.094 367.98 130.778 368.503C130.418 369.114 129.885 369.103 129.449 368.83C128.806 368.416 128.251 367.86 127.695 367.326C127.63 367.26 127.674 366.988 127.75 366.868C127.837 366.737 128.066 366.573 128.164 366.617C129.863 367.271 131.606 367.358 133.403 367.228C133.752 367.206 134.176 367.555 134.481 367.827C134.874 368.165 135.146 368.187 135.593 367.86C135.898 367.631 136.431 367.478 136.758 367.587C138.414 368.122 140.244 367.38 141.823 368.361C142.008 368.47 142.368 368.416 142.586 368.307C143.61 367.794 144.59 367.947 145.603 368.35C145.995 368.503 146.507 368.612 146.867 368.492C148.25 368.013 149.557 368.241 150.93 368.579C151.986 368.841 153.108 368.808 154.197 368.939C155.134 369.048 156.071 369.157 156.997 369.332C158.435 369.604 159.829 370.084 161.343 369.659C161.888 369.506 162.53 369.702 163.129 369.79C164.491 369.964 165.842 370.171 166.8 370.302L166.789 370.28ZM125.713 367.958C125.582 368.056 125.451 368.241 125.342 368.231C124.929 368.209 124.493 368.165 124.101 368.023C123.785 367.914 123.12 368.165 123.24 367.555C123.295 367.293 123.916 366.955 124.275 366.966C124.732 366.977 125.179 367.282 125.615 367.511C125.702 367.555 125.691 367.794 125.735 367.947L125.713 367.958Z" fill="#242E54"></path>
<path d="M79.6907 137.98C79.5818 138.285 79.2441 139.081 79.0263 139.91C78.8084 140.76 78.852 141.382 79.7234 142.123C80.6275 142.897 81.5425 143.398 82.5555 143.944C84.6578 145.088 87.0652 144.87 89.2001 145.819C90.1478 146.244 91.1826 146.484 91.9015 147.29C92.359 147.803 92.9145 148.021 93.5245 147.77C93.982 147.574 94.5485 146.985 94.8644 147.519C95.3546 148.359 96.6944 148.239 96.7706 149.482C96.8251 150.43 97.4895 150.844 98.4154 150.725C99.8314 150.539 100.943 151.073 101.858 152.109C102.021 152.294 102.239 152.589 102.402 152.578C103.884 152.458 105.147 153.515 106.694 153.221C107.609 153.047 108.622 153.221 108.97 154.42C109.243 155.347 110.158 155.402 110.866 155.565C111.519 155.718 111.988 155.827 112.14 156.59C112.184 156.808 112.707 157.135 112.903 157.08C113.959 156.753 114.602 157.44 115.463 157.789C116.508 158.214 117.478 158.748 118.458 159.261C118.763 159.413 119.177 159.501 119.351 159.741C120.255 160.972 121.519 161.071 122.859 160.94C123.763 160.853 124.612 160.831 125.059 161.845C125.124 161.986 125.31 162.172 125.44 162.161C127.39 162.084 128.697 164.09 130.691 163.807C131.584 163.676 131.725 164.766 132.401 164.81C133.076 164.854 133.773 164.537 134.438 164.614C134.917 164.668 135.342 165.093 135.799 165.355C136.235 165.606 136.66 165.987 137.128 166.042C138.087 166.173 138.719 166.314 138.337 167.557C138.185 168.037 138.969 168.538 139.448 168.222C140.516 167.525 141.333 167.928 142.313 168.408C143.217 168.855 144.274 168.996 145.265 169.225C146.071 169.411 147.041 169.225 147.302 170.403C147.346 170.588 147.869 170.719 148.195 170.784C148.794 170.904 149.404 171.035 150.004 171.002C152.16 170.904 153.86 171.885 155.428 173.215C155.69 173.433 155.929 173.804 156.212 173.848C157.923 174.131 159.186 175.232 160.591 176.094C161.43 176.606 162.301 176.944 163.304 176.868C164.404 176.78 165.362 177.097 166.038 178.012C166.669 178.863 168.009 178.557 168.597 179.593C168.706 179.778 169.556 179.506 170.068 179.495C170.994 179.462 172.029 179.233 172.301 180.585C172.334 180.727 172.519 180.901 172.66 180.934C173.401 181.098 174.185 181.108 174.872 181.392C175.547 181.675 175.787 182.667 176.767 182.58C177.682 182.493 178.423 182.82 179.065 183.551C179.36 183.889 179.959 184.085 180.438 184.107C181.484 184.161 182.301 184.521 182.845 185.404C183.27 186.08 183.771 186.08 184.392 185.698C185.296 185.142 186.048 185.458 186.756 186.102C187.137 186.45 187.616 186.734 187.91 187.148C188.771 188.358 189.904 189.023 191.385 188.947C192.246 188.903 192.485 189.83 193.084 189.972C193.88 190.157 194.304 190.375 194.326 191.269C194.326 191.455 195.11 191.869 195.317 191.76C195.949 191.433 196.537 191.345 197.256 191.28C198.967 191.138 200.197 191.553 201.308 192.97C202.213 194.125 203.607 194.878 205.197 194.725C206.069 194.638 206.722 195.009 207.332 195.445C209.119 196.72 209.108 196.666 210.992 196.84C212.277 196.96 213.487 197.462 214.489 198.345C214.805 198.617 215.12 199.042 215.469 199.086C216.58 199.239 217.702 199.13 218.443 200.296C218.628 200.59 219.488 200.71 219.892 200.536C220.905 200.122 221.155 201.255 221.852 201.321C222.528 201.375 223.257 201.157 223.889 201.321C224.608 201.506 225.632 201.811 225.872 202.346C226.384 203.49 227.342 203.447 228.214 203.687C229.129 203.948 230.109 204.003 230.806 204.799C230.915 204.918 231.144 205.071 231.242 205.038C232.799 204.482 234.019 205.78 235.446 205.78C236.013 205.78 236.645 205.464 237.102 205.115C237.462 204.831 237.788 204.286 237.364 203.73C236.361 202.411 235.425 201.026 233.638 200.656C232.974 200.514 232.527 200.209 232.701 199.402C232.789 198.988 232.484 198.792 232.091 198.726C231.667 198.661 231.22 198.639 230.817 198.497C230.512 198.388 230.044 198.105 230.054 197.898C230.065 196.709 229.63 196.633 228.617 197.004C227.756 197.32 226.852 196.927 226.198 196.328C225.142 195.357 223.878 194.889 222.549 194.442C221.58 194.115 220.708 193.482 219.783 193.013C218.944 192.588 218.04 192.25 217.234 191.76C216.319 191.204 215.186 191.945 214.282 191.062C213.563 190.353 212.561 189.95 211.678 189.405C211.526 189.318 211.33 189.252 211.243 189.121C210.339 187.802 208.988 187.737 207.604 187.868C206.613 187.955 205.927 187.726 205.611 186.669C205.317 185.655 204.402 185.426 203.531 185.535C202.823 185.622 202.365 185.382 201.897 184.968C201.712 184.804 201.385 184.51 201.308 184.564C200.404 185.164 199.947 184.477 199.348 183.987C198.28 183.125 197.202 182.188 195.644 182.493C193.858 181.337 191.516 181.261 190.089 179.331C189.468 178.481 188.292 178.034 187.366 177.424C187.235 177.336 187.028 177.347 186.865 177.369C184.98 177.696 183.531 176.65 182.105 175.734C181.135 175.123 180.296 174.556 179.055 174.524C177.976 174.491 176.93 174.011 176.168 173.019C175.395 172.005 174.469 171.002 172.922 171.515C171.234 170.337 169.164 170.359 167.312 169.705C166.659 169.476 166.027 168.767 165.689 168.124C165.123 167.012 164.197 166.533 163.129 166.336C162.16 166.151 161.169 165.497 160.123 166.216C159.992 166.304 159.676 166.151 159.469 166.064C159.077 165.911 158.707 165.595 158.326 165.573C157.639 165.53 156.91 165.78 156.354 165.181C155.602 164.374 154.404 164.047 154.001 162.869C153.903 162.597 153.478 162.172 153.337 162.226C152.182 162.63 151.354 161.278 150.145 161.725C149.72 161.888 149.001 161.496 148.511 161.201C147.934 160.842 147.378 160.384 146.975 159.85C146.518 159.228 145.984 158.966 145.265 158.814C144.59 158.672 143.947 158.4 143.315 158.116C142.923 157.942 142.575 157.658 142.117 157.942C141.3 158.443 140.625 158.062 139.971 157.56C139.492 157.189 138.936 156.895 138.512 156.47C137.88 155.838 137.205 155.358 136.3 155.162C135.897 155.074 135.44 154.867 135.168 154.573C134.438 153.788 133.555 153.614 132.553 153.734C130.625 153.952 128.991 153.461 127.728 151.869C126.944 150.888 125.691 150.594 124.569 150.158C124.253 150.038 123.828 150.081 123.589 149.885C123.044 149.438 123.305 147.955 121.878 148.642C121.061 149.035 120.408 148.283 119.645 148.184C118.796 148.075 118.055 147.639 117.107 147.792C115.855 147.988 115.332 147.432 114.983 146.146C114.722 145.175 114.722 145.219 113.262 145.099C112.892 145.066 112.5 144.794 112.184 144.532C111.792 144.216 111.487 143.78 111.105 143.431C110.702 143.071 110.267 142.941 109.679 143.028C108.491 143.202 107.304 143.18 106.389 142.166C106.225 141.981 105.986 141.807 105.746 141.752C104.831 141.534 103.873 141.447 103.001 141.131C102.141 140.826 101.367 140.27 100.529 139.888C99.7225 139.517 98.6441 139.801 98.0995 138.743C97.9688 138.503 97.2935 138.58 96.9013 138.438C96.3458 138.231 95.616 138.089 95.3328 137.664C94.494 136.421 93.5899 136.53 92.4353 137.086C91.7817 137.402 90.1151 136.705 89.7557 136.029C89.6685 135.854 89.7774 135.549 89.8646 135.32C90.1587 134.546 90.0607 134.197 89.4834 134.088C89.3091 134.055 89.1348 133.99 88.9714 134.023C88.3287 134.164 87.6207 134.579 87.0651 134.426C86.6294 134.306 86.466 133.412 86.0303 133.031C85.8016 132.823 85.2351 132.867 84.8757 132.976C84.5816 133.074 84.2984 133.401 84.1459 133.696C83.8736 134.252 83.6121 134.59 83.0457 134.023C80.8998 134.121 79.8759 135.167 79.7125 137.958L79.6907 137.98Z" fill="#242E54"></path>
<path d="M15.3802 537.801C16.5566 537.31 17.635 537.713 18.7461 537.931C19.4977 538.084 20.2928 538.357 20.9355 537.615C22.2426 537.768 23.3646 536.874 24.5737 536.841C26.1096 536.809 27.6563 537.179 29.1922 537.43C29.4972 537.484 29.8567 537.713 30.0092 537.975C30.6083 538.978 31.4471 538.913 32.2313 538.411C33.8544 537.365 35.4447 537.866 37.0459 538.357C37.9718 538.64 38.8214 538.913 39.7473 538.204C40.1612 537.888 40.9128 537.964 41.5119 537.931C42.6992 537.855 42.7101 537.866 43.0805 539.24C43.233 539.807 43.3964 539.959 43.9193 539.556C44.453 539.152 45.0412 538.924 45.4769 538.269C46.686 536.438 47.9713 536.111 49.8885 537.07C50.4876 537.375 50.9777 537.495 51.5986 537.288C52.1759 537.092 52.7859 537.016 53.3633 536.819C54.0713 536.58 54.7684 536.481 55.3239 537.037C55.8795 537.604 56.3588 537.299 56.9252 537.136C57.4372 536.994 58.0254 537.027 58.2324 537.648C58.5047 538.433 58.973 538.444 59.6157 538.171C60.095 537.975 60.6832 537.942 61.0644 537.637C61.9359 536.918 62.6875 536.394 63.7985 537.299C64.0709 537.517 64.7789 537.168 65.3017 537.125C66.1514 537.059 67.0228 536.83 67.5238 537.931C67.6219 538.149 68.6676 538.248 68.8854 538.03C70.1163 536.732 71.6958 537.986 73.0247 537.375C73.2425 537.277 73.8961 537.844 74.1902 538.226C74.5824 538.738 74.8438 538.695 75.4538 538.52C76.6738 538.171 77.9918 538.149 79.2554 537.921C81.423 537.517 83.5145 537.746 85.595 538.455C86.4882 538.76 87.3487 538.891 88.3508 538.433C89.2222 538.04 90.3442 538.149 91.3463 538.073C91.4988 538.062 91.7493 538.117 91.8256 538.226C92.904 539.85 93.9932 539.033 95.0063 538.204C95.9213 537.463 96.9343 537.048 98.0889 536.918C99.3634 536.787 100.681 536.362 101.324 538.128C101.509 538.64 102.664 538.52 103.459 538.062C106.204 536.481 106.182 536.634 109.33 536.95C110.768 537.092 112.424 537.55 113.775 536.732C115.474 535.707 117.358 536.34 119.112 535.893C119.646 535.751 120.495 536.198 120.986 536.623C121.868 537.386 122.521 537.136 123.24 536.481C123.491 536.252 123.796 536.067 124.09 535.882C124.711 535.489 125.245 535.402 125.375 536.362C125.452 536.907 125.8 537.103 126.29 537.016C126.704 536.939 127.151 536.852 127.51 536.634C128.534 536.002 129.634 535.751 130.724 536.253C131.355 536.547 132.608 535.489 132.641 537.103C132.641 537.168 132.924 537.288 133.077 537.288C134.623 537.288 136.192 537.561 137.684 536.907C138.403 536.59 139.122 536.285 139.863 536.056C141.965 535.413 143.958 535.533 145.614 537.179C145.919 537.484 146.093 537.55 146.464 537.299C146.899 537.016 147.4 536.841 147.858 536.601C148.305 536.362 148.62 536.427 148.969 536.841C149.143 537.037 149.59 537.125 149.884 537.081C150.396 537.005 150.886 536.787 151.376 536.645C151.453 536.623 151.583 536.623 151.627 536.678C153.021 538.008 154.982 536.678 156.463 537.713C156.768 537.921 157.313 537.866 157.727 537.801C158.555 537.681 159.11 537.931 159.295 538.76C159.47 539.523 159.916 539.469 160.45 539.207C161.071 538.913 161.67 538.553 162.313 538.302C162.596 538.193 163.184 538.139 163.26 538.269C163.816 539.283 164.448 538.836 165.221 538.575C166.343 538.204 167.509 537.921 168.707 538.553C169.186 538.804 169.905 538.76 170.46 538.629C171.212 538.455 171.757 538.378 172.225 539.174C172.356 539.403 173.009 539.447 173.391 539.381C173.892 539.305 174.36 538.913 174.861 538.88C175.515 538.847 176.473 538.4 176.582 539.698C176.582 539.817 177.007 540.046 177.17 539.992C177.661 539.85 178.249 539.719 178.576 539.37C179.393 538.498 180.242 538.324 181.375 538.684C181.767 538.814 182.334 538.487 182.791 538.28C183.826 537.822 184.795 537.234 185.961 538.019C186.495 538.378 187.017 537.942 187.257 537.495C187.736 536.58 188.346 536.558 189.207 536.918C189.566 537.07 190.046 537.027 190.46 536.972C192.507 536.732 194.501 536.122 196.603 536.296C197.093 536.34 197.594 536.024 198.106 535.915C198.444 535.838 198.989 535.664 199.098 535.806C200.187 537.19 201.265 536.045 202.354 535.882C202.866 535.806 203.4 535.707 203.901 535.773C206.123 536.056 208.324 536.274 210.524 535.544C210.775 535.457 211.428 535.827 211.515 536.1C211.853 537.223 212.387 537.136 213.269 536.689C213.759 536.438 214.5 536.372 215.012 536.558C216.341 537.037 217.681 536.928 219.031 536.939C219.456 536.939 220.197 536.918 220.262 537.092C220.85 538.662 222.223 537.997 223.247 538.357C224.14 538.673 224.717 538.553 225.393 538.084C225.676 537.888 225.937 537.495 226.221 537.484C228.475 537.441 230.567 536.514 232.811 536.394C234.946 536.285 237.124 536.318 239.194 535.882C241.111 535.478 242.897 535.141 244.738 536.013C244.945 536.111 245.283 536.122 245.457 536.013C247.309 534.922 249.324 535.718 251.252 535.533C253.452 535.326 255.402 536.525 257.45 537.125C258.3 537.375 258.91 537.397 259.16 536.699C259.574 535.587 260.565 534.715 260.511 533.396C260.5 533.026 260.696 532.535 260.968 532.262C262.003 531.259 261.992 530.256 261.361 529.035C260.892 528.131 261.241 527.4 262.319 527.149C263.082 526.975 263.354 526.615 263.387 525.95C263.408 525.525 263.496 524.969 263.289 524.675C262.123 523.083 262.668 521.121 262.058 519.409C261.818 518.733 262.058 518.188 262.973 518.635C263.049 518.668 263.365 518.439 263.354 518.406C263.06 517.512 263.005 516.291 262.374 515.811C261.361 515.037 261.687 514.339 262.025 513.609C262.384 512.824 262.352 512.192 262.025 511.407C261.361 509.771 261.077 508.104 261.829 506.337C262.199 505.487 262.199 504.473 262.417 503.546C262.57 502.881 262.689 502.162 263.049 501.606C263.376 501.094 263.528 500.679 263.169 500.21C262.406 499.218 262.831 498.019 262.559 496.94C262.493 496.678 262.657 496.177 262.875 496.035C263.768 495.435 263.583 494.585 263.191 493.964C261.742 491.707 262.188 489.516 263.169 487.292C263.528 486.452 263.615 485.678 263.049 484.839C262.668 484.283 262.515 483.563 262.319 482.898C262.221 482.571 262.069 482.07 262.232 481.884C263.452 480.456 262.842 478.537 263.659 476.967C264.236 475.877 264.432 474.58 264.726 473.359C264.824 472.966 264.77 472.476 264.628 472.094C264.225 471.037 263.822 470.045 264.541 468.922C264.726 468.638 264.563 468.05 264.421 467.646C263.376 464.517 263.278 462.675 264.323 459.797C264.792 458.51 265.097 457.344 264.323 456.079C264.116 455.741 264.018 455.261 264.073 454.858C264.302 453.037 263.376 451.14 264.389 449.342C264.476 449.189 264.127 448.775 263.964 448.491C263.713 448.077 263.615 447.674 264.095 447.358C264.988 446.78 264.607 445.962 264.116 445.613C262.297 444.294 262.842 442.604 263.201 440.936C263.398 440.02 263.942 439.105 262.929 438.309C262.831 438.232 262.896 437.786 263.016 437.622C263.419 437.11 263.703 436.619 263.299 435.976C263.256 435.91 263.223 435.801 263.245 435.725C263.463 434.766 264.596 434.024 264.095 432.923C263.626 431.888 264.018 430.895 264.029 429.903C264.04 428.889 264.367 427.865 264.541 426.851C264.574 426.687 264.639 426.437 264.563 426.36C262.973 424.79 263.801 422.784 263.604 420.975C263.528 420.31 263.485 419.688 263.332 419.012C262.896 417.126 262.265 415.175 263.376 413.234C263.746 412.58 263.408 411.795 262.668 411.501C261.72 411.119 260.707 410.868 259.716 410.629C259.04 410.465 258.191 410.629 257.69 410.269C256.012 409.07 253.943 409.222 252.123 408.459C250.664 407.849 248.899 407.87 247.265 407.794C245.642 407.718 243.954 407.674 242.374 407.99C240.806 408.306 239.281 408.121 237.734 408.208C236.743 408.263 235.893 408.296 235.098 407.522C234.815 407.238 234.14 407.271 233.649 407.282C232.658 407.293 233.127 405.635 232.092 405.919C231.46 406.093 230.926 406.628 230.294 406.867C230.022 406.976 229.619 406.791 229.292 406.704C228.366 406.475 227.462 406.17 226.526 405.995C225.861 405.875 225.393 405.744 225.327 404.916C225.306 404.676 224.696 404.284 224.38 404.305C222.844 404.382 221.373 404.142 219.892 403.76C219.587 403.673 219.151 403.651 218.911 403.815C217.942 404.436 216.831 404.371 215.872 404.153C214.162 403.771 212.463 403.913 210.764 403.858C210.328 403.848 209.762 403.935 209.5 403.695C208.52 402.834 207.681 403.095 206.668 403.651C206.265 403.869 205.448 403.673 204.991 403.39C204.086 402.812 203.237 402.79 202.278 403.161C201.309 403.542 200.339 403.913 199.294 403.335C199.13 403.248 198.771 403.357 198.575 403.477C196.636 404.774 195.035 403.826 193.727 402.507C193.117 401.896 192.638 401.722 191.974 401.962C190.884 402.343 189.937 403.248 188.63 402.757C188.455 402.692 188.074 402.866 187.932 403.052C186.887 404.305 185.83 403.946 184.741 403.128C184.174 402.703 183.575 402.485 182.802 402.605C181.364 402.834 179.915 402.114 178.434 402.572C178.107 402.67 177.628 402.343 177.236 402.169C176.626 401.907 175.95 401.296 175.449 401.416C173.815 401.798 171.964 401.329 170.548 402.463C169.97 402.932 169.404 403.117 168.925 402.746C167.345 401.547 165.526 401.929 163.794 401.863C162.661 401.82 161.681 401.754 160.603 401.111C158.979 400.141 157.095 399.519 155.374 401.209C155.156 401.427 154.72 401.634 154.459 401.569C152.335 401.057 150.352 401.929 148.315 402.169C147.804 402.234 147.27 402.387 146.769 402.321C144.732 402.049 142.706 401.525 140.669 401.471C139.514 401.438 138.588 401.177 137.608 400.675C136.584 400.141 135.429 400.108 134.297 400.293C129.82 401.046 125.354 400.969 120.877 400.228C117.903 399.737 114.907 399.367 111.912 399.083C109.592 398.865 107.25 398.865 104.919 398.778C104.396 398.756 103.884 398.756 103.361 398.745C101.455 398.713 99.5486 398.745 97.6424 398.647C96.259 398.582 94.8647 398.418 93.4922 398.2C91.9237 397.95 90.3987 397.928 88.8301 398.2C86.3356 398.658 83.8412 398.713 81.3686 397.906C80.7259 397.688 79.9961 397.699 79.3207 397.59C78.5582 397.47 77.7848 397.394 77.055 397.186C76.445 397.012 75.9222 396.903 75.3013 397.165C74.7675 397.383 74.1467 397.437 73.5585 397.448C72.4801 397.47 71.4452 397.056 70.3668 396.936C69.3538 396.827 68.123 397.056 67.2189 396.216C67.11 396.118 66.8812 396.031 66.7613 396.085C65.9117 396.456 65.1819 396.914 64.1035 396.391C63.3192 395.998 62.2518 396.162 61.3041 396.107C60.8902 396.085 60.4327 396.02 60.0732 396.162C58.7225 396.674 57.3827 396.827 56.0211 396.238C55.0081 395.802 53.9841 395.933 52.9384 396.107C51.4025 396.358 49.8667 396.718 48.3308 396.107C45.5314 396.565 42.6992 396.565 39.8671 396.685C39.5294 396.696 39.1918 396.936 38.8759 396.914C37.3509 396.794 35.815 396.434 34.3118 396.521C32.8522 396.609 31.4034 396.772 29.9329 396.609C29.3883 396.543 28.6367 396.838 28.5496 395.856C28.5496 395.802 28.0703 395.693 27.8742 395.769C27.5583 395.9 27.2533 396.107 27.0355 396.369C26.0442 397.524 24.8569 397.655 23.528 397.088C21.7198 396.325 20.4127 397.47 19.0729 398.32C18.7896 398.495 18.5936 399.116 18.6698 399.465C18.9095 400.719 18.9422 402.092 20.0314 403.019C20.6087 403.51 20.9028 404.109 20.8157 404.851C20.5978 406.878 20.8157 408.982 19.6501 410.836C19.465 411.13 19.5195 411.643 19.6066 412.024C19.7046 412.427 20.1404 412.776 20.1621 413.158C20.3146 415.229 20.5869 417.312 20.4126 419.361C20.2928 420.735 20.2274 422.108 20.1948 423.482C20.1839 424.18 20.0859 424.867 20.0205 425.553C19.9334 426.328 20.1185 427.058 20.2601 427.821C20.576 429.5 20.5107 431.244 20.587 432.956C20.587 433.032 20.5216 433.152 20.4671 433.174C19.2689 433.534 19.2362 434.33 19.5303 435.354C19.6066 435.605 19.3452 435.998 19.1491 436.259C18.5827 437.001 17.7439 437.589 17.9073 438.723C17.9291 438.843 17.7548 439.083 17.6241 439.126C15.9357 439.781 16.2189 440.849 16.72 442.244C17.1121 443.346 16.9814 444.632 17.0904 445.842C17.1557 446.518 17.2537 447.205 17.3409 447.881C17.428 448.579 17.2211 449.135 16.4586 449.2C15.6089 449.276 15.4782 449.821 15.5327 450.465C15.609 451.239 15.9249 452.056 14.7267 452.252C14.6504 452.263 14.5414 452.721 14.6177 452.918C14.9989 454.008 14.7049 454.956 14.1929 455.916C13.9969 456.275 13.7789 456.886 13.9423 457.147C14.5632 458.15 14.2583 459.088 14.0513 460.091C13.8443 461.072 14.2582 462.119 13.6156 463.1C13.3977 463.427 13.572 464.157 13.7898 464.583C14.2691 465.52 13.975 466.229 13.3868 466.927C12.8313 467.57 12.6679 468.18 13.1581 469.031C13.7354 470.045 13.5067 471.069 12.5481 471.822C11.2083 472.89 11.1429 474.111 12.0252 475.496C12.548 476.324 12.6134 477.251 11.7965 477.85C10.9033 478.515 10.827 479.213 11.241 480.096C11.5569 480.772 11.6222 481.328 11.0884 482.004C10.7617 482.418 10.8924 483.16 10.7399 483.727C10.3368 485.166 10.5329 486.855 8.9317 487.826C8.6485 488 8.65939 488.96 8.81189 489.483C9.01886 490.192 9.70508 490.791 8.99706 491.587C8.89902 491.696 8.85542 491.947 8.9099 492.088C9.9447 494.52 8.82272 496.994 9.09505 499.436C9.12773 499.763 9.08421 500.243 8.87724 500.418C7.51566 501.497 8.23456 502.413 9.12776 503.198C9.69418 503.699 9.82486 504.081 9.49808 504.746C9.33469 505.084 9.28024 505.563 9.37827 505.912C9.53078 506.479 9.48721 506.959 9.0515 507.329C8.73563 507.602 8.75739 507.809 8.83363 508.202C9.09506 509.553 9.22581 510.927 9.48724 512.279C9.62885 513.009 9.69415 513.674 9.09505 514.209C8.53952 514.71 9.07326 515.168 9.09505 515.637C9.13863 516.247 8.92079 516.662 8.24545 516.662C7.76617 516.662 7.05811 516.335 6.99277 517.098C6.93829 517.643 7.23239 518.242 7.46112 518.766C7.53738 518.94 7.91861 518.962 8.13647 519.104C8.25629 519.18 8.44147 519.409 8.40881 519.463C7.9404 520.368 8.36523 521.764 7.34134 522.254C6.53528 522.636 6.26294 522.799 6.66599 523.672C6.85117 524.064 6.84027 524.816 6.58972 525.089C6.01242 525.71 5.78366 526.364 5.64206 527.16C5.57669 527.476 4.98853 528 4.78156 527.934C2.75549 527.335 1.79694 528.861 0.54425 529.875C-0.152893 530.442 -0.120178 530.856 0.304657 531.619C1.30679 533.374 2.62482 534.356 4.66174 534.933C7.98404 535.882 11.4043 536.427 14.6721 537.539C14.9118 537.615 15.1841 537.593 15.402 537.626L15.3802 537.801Z" fill="#7DBEFF"></path>
<path d="M232.331 529.569C231.492 529.493 231.068 529.406 230.643 529.417C230.251 529.417 229.728 529.373 229.488 529.591C228.954 530.082 228.584 530.093 227.909 529.798C226.58 529.21 225.251 528.937 223.671 529.384C222.517 529.711 220.937 530.136 219.837 528.73C219.685 528.534 219.009 528.654 218.628 528.774C216.852 529.319 216.373 529.188 214.783 528.457C213.563 527.901 212.179 527.247 210.938 527.367C209.794 527.476 208.825 527.444 207.735 527.149C207.027 526.953 206.09 526.942 205.448 527.247C204.337 527.781 203.237 527.651 202.136 527.574C201.385 527.52 200.644 527.007 199.925 527.051C199.108 527.106 198.313 527.574 197.496 527.814C197.256 527.891 196.93 527.923 196.734 527.814C195.655 527.204 194.707 528.196 193.684 528.01C192.573 527.803 191.483 527.52 190.372 527.324C190.045 527.269 189.675 527.324 189.337 527.4C188.586 527.585 187.791 527.705 187.845 528.839C187.878 529.558 187.191 529.668 186.712 529.471C186.091 529.221 185.547 528.752 184.958 528.392C184.011 527.814 183.183 527.705 182.105 528.414C180.797 529.264 179.272 529.711 177.944 528.185C177.486 527.651 176.789 527.607 176.342 528.185C175.667 529.046 174.872 529.003 174 528.73C173.347 528.523 172.671 528.327 172.061 527.989C171.299 527.563 170.547 527.487 169.839 527.956C167.759 529.319 165.656 528.675 163.554 528.087C162.803 527.88 162.105 527.313 161.365 527.28C160.09 527.225 159.415 526.811 159.35 525.481C159.317 524.773 158.772 524.696 158.206 524.871C157.716 525.023 157.029 525.089 156.801 525.438C155.842 526.866 154.655 526.56 153.38 526.113C152.324 525.754 151.104 526.179 150.123 525.361C149.949 525.209 149.47 525.427 149.132 525.459C147.934 525.579 146.736 525.754 145.538 525.765C145.08 525.765 144.394 525.492 144.22 525.143C143.653 524.031 142.912 524.031 141.867 524.326C140.015 524.849 138.13 524.914 136.257 524.282C135.789 524.118 135.146 523.933 134.754 524.118C131.856 525.514 128.676 524.892 125.669 525.492C124.994 525.623 124.362 525.645 123.763 525.023C122.859 524.086 121.77 524.217 120.68 524.849C120.353 525.045 119.798 525.241 119.526 525.1C118.001 524.315 116.269 524.773 114.722 524.184C114.428 524.075 114.036 524.151 113.709 524.227C112.38 524.544 111.062 524.903 109.722 525.22C109.047 525.383 108.35 525.656 107.685 525.59C106.171 525.448 104.69 525.045 103.132 525.078C102.631 525.078 102.217 524.947 101.792 525.318C100.823 526.157 99.7225 526.56 98.4154 526.342C98.0124 526.277 97.5658 526.342 97.1519 526.43C95.4635 526.8 94.8208 526.637 93.3285 525.427C93.0889 525.241 92.7294 525.154 92.4135 525.121C91.6511 525.056 90.8885 525.023 90.126 525.045C89.3526 525.067 88.5466 525.034 87.8277 525.274C86.6077 525.688 85.453 526.299 84.2548 526.8C83.5359 527.095 82.7952 527.378 82.0436 527.563C81.7713 527.629 81.2049 527.498 81.1504 527.335C80.6602 525.852 79.3204 526.8 78.4926 526.353C77.0329 527.138 76.0199 526.702 75.3228 525.252C75.0396 524.663 74.4949 524.653 73.972 524.849C73.4056 525.067 72.9046 525.438 72.3273 525.601C71.848 525.743 70.9983 525.874 70.8458 525.656C69.9962 524.358 69.103 524.991 68.1335 525.383C67.4364 525.666 67.0225 525.056 66.5432 524.729C65.6609 524.14 64.9965 524.064 64.2993 524.631C64.1033 524.783 63.9398 525.023 63.8527 525.263C63.5586 526.004 63.1991 525.83 62.6871 525.47C61.6197 524.718 60.2036 524.631 59.2668 525.154C58.3736 525.656 58.3954 525.601 58.2865 524.773C58.1776 523.944 57.9053 523.726 57.2735 523.988C56.8051 524.173 56.1188 524.402 55.999 524.762C55.6722 525.765 54.9642 525.797 54.1581 525.841C53.7333 525.863 53.2105 525.852 52.9273 526.092C52.1103 526.779 51.3478 526.539 50.4981 526.244C49.7574 525.994 48.8969 526.015 48.2433 525.645C47.2957 525.11 46.6639 525.35 45.9341 526.004C45.0735 526.789 43.9081 527.018 43.1129 526.146C41.7404 524.642 40.1936 525.089 38.5815 525.285C36.7188 525.514 34.9978 526.571 33.0371 526.255C32.7321 526.201 32.3835 526.451 32.0458 526.506C31.5556 526.582 31.0437 526.691 30.5535 526.648C29.0176 526.517 28.0808 526.103 26.0657 524.903C25.8151 524.751 25.3576 524.718 25.1071 524.849C24.6714 525.078 24.2575 525.416 23.9525 525.808C23.6366 526.212 23.2336 526.451 22.8523 526.212C22.0571 525.699 21.4036 525.852 20.7174 526.375C20.2816 526.702 19.9113 526.528 19.6063 526.157C19.0508 525.47 18.419 524.762 19.2032 523.879C19.6281 523.399 19.5083 522.93 19.4102 522.418C19.0508 520.695 18.7676 518.984 20.042 517.457C20.14 517.337 20.1618 517.13 20.1727 516.967C20.2599 515.615 19.4211 514.307 20.0311 512.933C20.0747 512.824 19.9222 512.606 19.8351 512.464C19.127 511.341 20.1182 512.039 20.4014 511.875C21.0659 511.516 21.4254 509.739 20.8154 509.412C19.4755 508.703 20.2925 507.82 20.3797 506.991C20.4341 506.49 20.7173 505.945 20.6084 505.509C20.3579 504.538 20.7173 503.808 21.2184 503.078C22.3512 501.442 22.2532 499.611 21.8502 497.845C21.6323 496.907 21.7195 496.743 22.6018 496.874C22.7107 496.896 23.0157 496.558 22.9939 496.438C22.8414 495.686 22.678 494.923 22.4057 494.203C21.9809 493.102 21.7304 492.012 22.3513 490.944C22.7107 490.322 22.58 489.788 22.3948 489.21C22.1987 488.632 21.9155 488.076 21.8502 487.488C21.7413 486.626 21.8175 485.689 22.7869 485.34C23.2444 485.176 23.6584 485.035 23.6584 484.566C23.6584 484.173 23.5059 483.563 23.2227 483.41C21.6759 482.604 21.9373 481.568 22.7107 480.401C22.8523 480.183 23.0484 479.922 23.0266 479.693C22.9395 478.45 23.495 477.578 24.4536 476.858C24.6061 476.738 24.7368 476.357 24.6605 476.226C24.0505 475.266 24.5733 474.416 24.8239 473.511C25.1507 472.356 25.5973 471.167 24.5407 470.088C24.41 469.957 24.3773 469.521 24.4862 469.401C25.423 468.387 24.9764 467.09 25.2596 465.945C25.521 464.877 25.4884 463.83 26.4687 462.958C27.1005 462.402 27.5035 461.279 26.4687 460.44C25.9785 460.047 26.1419 459.633 26.2508 459.066C26.4687 457.921 27.4491 456.918 26.9153 455.577C26.8064 455.305 27.4817 454.782 27.6887 454.324C27.961 453.724 28.4839 453.299 28.4403 452.46C28.3423 450.563 28.2878 448.633 28.6037 446.78C28.8869 445.144 29.0285 443.367 30.4119 442.07C31.1744 441.361 31.2071 439.857 30.4555 439.333C29.7039 438.81 29.4751 438.483 30.0742 437.72C30.2485 437.502 30.2376 437.033 30.1396 436.728C29.584 435.027 30.0088 433.283 29.8563 431.56C29.7801 430.688 29.9326 429.772 30.8258 429.293C31.3705 428.998 31.3378 428.682 31.0437 428.29C30.3683 427.385 29.7148 426.513 30.2921 425.248C30.4337 424.943 30.1396 424.452 30.0851 424.038C30.0306 423.58 29.3771 423.297 29.8019 422.632C29.9653 422.381 29.6167 421.53 29.2791 421.302C28.1135 420.528 27.9066 419.383 27.6669 418.173C27.4273 416.995 27.2312 415.763 26.741 414.695C26.4251 413.997 26.2182 413.398 26.5341 412.743C27.0133 411.751 26.7301 410.857 26.2508 410.018C25.6082 408.906 25.6736 407.674 25.6736 406.486C25.6736 405.123 26.5559 404.371 28.0046 404.251C28.6037 404.207 29.2355 404.164 29.8128 404.294C30.608 404.491 31.3269 404.643 32.0022 404C32.1765 403.837 32.4924 403.695 32.7103 403.738C34.8453 404.065 36.8495 403.673 38.7558 402.703C38.832 402.67 38.9301 402.659 39.0172 402.659C40.8254 402.681 42.6336 402.692 44.4309 402.714C45.7162 402.725 47.0125 402.692 48.2979 402.79C50.2803 402.943 52.2845 403.052 54.2344 403.455C55.2583 403.662 56.108 403.728 56.9358 403.128C57.8072 402.496 58.6677 402.441 59.6154 402.921C60.3016 403.27 61.1077 403.444 61.7177 403.891C62.4693 404.436 63.0575 404.491 63.8418 404C64.9202 403.335 66.0095 403.411 66.8809 404.393C67.2839 404.861 67.7414 405.112 68.2207 404.796C69.4298 403.989 70.8023 405.156 72.0114 404.403C72.1421 404.316 72.556 404.48 72.6976 404.654C73.4056 405.461 74.3097 405.145 75.1485 405.101C75.6604 405.079 76.2487 404.687 76.6626 404.829C78.547 405.483 80.4424 404.894 82.3268 405.003C83.4488 405.068 84.3855 405.287 85.0064 406.268C85.2787 406.704 85.5511 406.824 86.0739 406.606C86.5314 406.409 87.1414 406.191 87.5554 406.344C89.4507 407.009 91.4658 406.78 93.3829 407.194C93.5463 407.227 93.7207 407.238 93.884 407.292C95.7467 407.936 96.9013 407.914 98.4808 407.238C99.8315 406.671 101.095 406.202 102.664 406.9C103.873 407.434 105.419 407.009 106.661 407.794C106.77 407.859 106.988 407.772 107.151 407.739C109.286 407.434 109.275 407.467 111.77 408.121C112.511 408.317 113.328 408.176 114.101 408.285C116.356 408.623 118.807 408.23 120.658 410.062C120.822 410.214 121.181 410.312 121.388 410.258C123.153 409.735 124.58 410.672 126.094 411.272C127.837 411.969 129.83 411.631 131.529 412.569C131.649 412.634 131.878 412.558 132.041 412.493C132.651 412.275 133.174 412.449 133.784 412.613C135.179 412.972 136.66 412.983 138.032 413.387C138.915 413.648 139.655 413.692 140.505 413.387C141.05 413.19 141.769 413.081 142.281 413.267C143.697 413.79 145.396 413.114 146.67 414.357C146.899 414.575 147.694 414.433 148.108 414.215C149.437 413.518 150.81 413.932 152.16 413.866C152.716 414.978 153.892 414.019 154.415 414.433C155.668 415.414 156.049 414.204 156.801 413.812C157.171 413.616 157.65 413.637 158.064 413.518C160.003 412.972 162.018 413.19 163.968 412.842C164.861 412.678 165.635 412.482 166.245 413.43C166.615 413.997 167.171 413.757 167.606 413.43C167.813 413.278 167.955 413.038 168.118 412.842C169.186 411.566 169.295 411.424 170.558 412.46C171.582 413.299 172.497 412.874 173.488 412.765C174.164 413.768 175.231 413.757 176.255 413.823C176.419 413.823 176.604 413.779 176.756 413.703C179.272 412.482 181.996 412.809 184.653 412.7C185.863 412.645 187.072 412.765 188.27 412.733C189.272 412.711 189.849 413.092 190.285 414.019C190.764 415.066 191.015 415.087 192.082 414.597C192.518 414.401 192.812 413.845 193.444 414.237C194.381 414.815 195.067 414.39 195.644 413.594C196.156 412.885 196.842 412.613 197.703 412.962C198.564 413.299 199.664 412.831 200.372 413.714C201.33 413.103 202.376 413.637 203.378 413.539C204.402 413.441 205.393 413.398 206.428 413.092C208.16 412.58 209.99 412.406 211.787 412.111C211.951 412.089 212.125 412.155 212.299 412.187C213.149 412.329 215.48 412.362 215.97 412.089C217.778 411.086 219.478 411.424 221.122 412.438C221.634 412.754 222.081 412.809 222.571 412.471C223.987 411.49 225.48 411.893 226.307 412.994C226.95 413.855 227.636 413.474 228.225 413.779C229.259 414.302 229.782 413.016 230.632 413.234C231.449 413.441 232.2 414.041 233.006 414.106C234.717 414.237 236.438 414.139 238.159 414.139C238.594 414.139 239.096 414.008 239.444 414.183C241.143 415.044 242.734 414.03 244.379 413.997C245.217 413.986 246.056 413.616 246.895 413.561C248.104 413.485 249.335 413.474 250.544 413.561C251.818 413.659 253.213 413.648 254.334 414.161C255.642 414.76 256.72 413.561 257.896 414.106C258.049 414.172 258.234 414.161 258.408 414.193C259.291 414.357 259.509 414.608 259.116 415.404C258.201 417.246 257.896 419.154 258.038 421.203C258.114 422.392 257.886 423.635 257.602 424.812C257.406 425.619 257.036 426.524 256.448 427.08C255.435 428.05 255.304 429.075 255.467 430.383C255.62 431.648 255.674 432.934 255.064 434.21C254.639 435.114 254.345 436.303 254.563 437.229C254.89 438.592 253.746 439.726 254.313 441.012C253.267 441.95 254.356 443.858 252.701 444.534C252.624 444.566 252.581 444.861 252.646 444.981C253.223 446.136 252.385 447.543 253.343 448.633C253.485 448.786 253.485 449.134 253.441 449.374C253.223 450.737 253.191 452.187 252.646 453.408C252.265 454.269 252.276 454.836 252.701 455.545C252.918 455.915 253.245 456.341 252.777 456.689C251.873 457.355 252.101 458.118 252.722 458.663C253.637 459.48 253.223 460.211 252.777 460.963C252.613 461.236 252.287 461.465 251.982 461.584C251.589 461.737 251.426 461.857 251.579 462.326C251.731 462.806 251.568 463.46 251.829 463.83C253.561 466.229 252.799 468.78 252.276 471.255C252.101 472.116 251.677 472.781 252.276 473.631C252.537 474.002 252.33 474.46 251.796 474.634C251.339 474.787 250.555 474.885 250.5 475.136C250.402 475.572 250.707 476.139 250.947 476.586C251.143 476.956 251.557 477.207 251.764 477.567C251.916 477.839 251.905 478.21 251.96 478.537C251.644 478.57 251.317 478.69 251.023 478.624C250.5 478.504 250.152 478.504 250.206 479.169C250.239 479.595 250.141 480.205 250.37 480.39C251.219 481.066 250.696 481.775 250.576 482.473C250.489 482.985 250.097 483.596 250.271 483.966C251.088 485.722 250.696 487.717 251.47 489.428C251.971 490.54 251.884 491.423 251.143 492.317C250.936 492.568 250.609 492.873 250.609 493.146C250.642 494.258 250.468 495.522 250.947 496.427C251.557 497.583 250.838 498.63 251.186 499.665C251.764 501.366 251.677 503.067 251.263 504.778C251.143 505.258 250.99 505.803 250.675 506.141C250.141 506.73 250.228 507.155 250.642 507.744C250.925 508.147 251.056 508.67 251.197 509.161C251.35 509.706 251.132 509.902 250.533 509.88C249.52 509.859 249.346 510.088 249.389 510.938C249.422 511.592 249.64 512.083 250.184 512.486C250.816 512.966 250.838 513.609 250.566 514.35C250.337 514.972 249.966 515.833 250.217 516.291C250.707 517.207 250.969 518.155 250.587 518.994C250.217 519.823 250.805 520.913 249.716 521.567C249.15 521.905 249.444 522.767 249.781 523.235C250.271 523.9 250.402 524.489 249.868 525.11C249.073 526.048 249.117 526.942 249.716 527.978C249.999 528.457 250.021 529.112 250.075 529.7C250.173 530.769 249.945 530.921 248.986 530.714C246.906 530.278 244.803 529.798 242.668 530.049C241.764 530.158 241.013 530.234 240.381 529.373C240.207 529.133 239.597 529.122 239.194 529.144C236.797 529.264 234.412 529.428 232.418 529.559L232.331 529.569Z" fill="#7DBEFF"></path>
<path d="M149.513 428.126C149.383 426.981 149.165 426.12 149.23 425.27C149.295 424.365 148.794 423.973 148.162 423.678C147.553 423.395 146.474 423.798 146.169 424.518C145.766 425.466 145.374 426.48 145.287 427.494C145.189 428.606 144.851 429.423 144.121 430.274C143.479 431.026 142.988 431.931 143.076 433.152C143.272 435.649 142.073 437.851 141.148 440.097C140.919 440.653 140.461 441.132 140.363 441.699C140.211 442.626 139.383 442.855 138.882 443.411C138.468 443.869 138.25 443.542 138.272 443.171C138.305 442.484 138.207 441.983 137.466 441.721C137.292 441.666 137.063 441.241 137.117 441.165C137.825 440.162 136.42 439.737 136.496 438.81C136.562 438.047 135.865 437.251 135.679 436.433C135.472 435.54 134.568 434.765 135.189 433.73C134.699 432.465 134.22 431.201 133.719 429.936C133.435 429.227 133.098 428.53 132.836 427.81C132.401 426.6 132.063 425.346 131.595 424.147C130.854 422.272 129.133 421.138 127.194 421.203C126.878 421.203 126.431 421.356 126.29 421.585C125.702 422.544 125.179 423.547 124.7 424.561C124.623 424.714 124.798 425.063 124.939 425.248C125.734 426.306 126.442 427.374 126.29 428.802C126.268 429.031 126.344 429.369 126.497 429.522C128.109 431.113 128.316 433.414 129.383 435.289C129.721 435.877 129.95 436.586 130.015 437.251C130.179 438.832 130.941 440.184 131.529 441.601C131.693 441.994 131.943 442.375 132.009 442.789C132.15 443.683 131.878 444.545 132.586 445.471C133.076 446.114 133.152 447.139 133.784 447.913C134.296 448.546 134.536 449.494 134.634 450.334C134.819 452.045 135.821 453.244 136.987 454.269C138.664 455.741 139.002 455.621 140.646 454.127C141.834 453.048 142.716 451.903 142.923 450.203C143.043 449.211 143.326 448.131 144.23 447.434C145.635 446.343 145.973 444.741 146.278 443.116C146.55 441.601 146.561 440.053 147.444 438.636C147.89 437.916 147.738 436.826 147.934 435.921C148.217 434.602 148.892 433.435 148.772 431.942C148.664 430.634 149.295 429.271 149.546 428.17L149.513 428.126Z" fill="#242E54"></path>
<path d="M170.231 429.947C170.58 428.126 170.122 426.731 168.369 425.848C167.127 425.216 165.449 425.488 164.807 426.698C164.055 428.137 163.434 429.653 162.792 431.146C162.672 431.441 162.595 431.92 162.748 432.138C163.434 433.109 164.044 434.264 164.981 434.875C166.909 436.128 169.85 434.384 170.112 431.997C170.188 431.31 170.188 430.623 170.21 429.947H170.231Z" fill="#242E54"></path>
<path d="M104.809 425.652C105.027 427.341 105.43 428.9 107.271 429.587C107.75 429.762 108.131 430.176 108.589 430.416C108.785 430.514 109.101 430.536 109.286 430.438C109.82 430.143 110.321 429.794 110.811 429.446C111.367 429.042 111.541 428.421 111.323 427.821C110.757 426.284 110.19 424.736 109.46 423.275C109.243 422.839 108.513 422.457 107.979 422.403C106.182 422.228 104.624 423.875 104.798 425.663L104.809 425.652Z" fill="#242E54"></path>
<path d="M302.927 20.1513C302.959 22.3317 303.94 22.3317 305.269 22.5934C305.432 22.6261 305.661 22.6479 305.77 22.5607C306.369 22.0919 307.077 21.6667 307.491 21.0671C307.905 20.4566 308.079 19.6607 308.231 18.9303C308.362 18.3307 307.153 17.2514 306.456 17.404C305.465 17.6221 304.419 17.8728 303.558 18.3743C303.101 18.6469 302.6 19.3773 302.938 20.1622L302.927 20.1513Z" fill="#242E54"></path>
<path d="M301.119 14.8202C301.315 13.7191 300.781 13.0213 299.877 12.5089C299.213 12.1383 298.515 11.4296 297.905 11.5059C297.306 11.5823 296.794 12.4326 296.271 12.9777C295.313 13.9807 295.563 15.5833 296.838 16.1938C297.753 16.6299 298.733 16.9569 299.823 16.5754C301.064 16.1393 301.13 16.1502 301.119 14.8093V14.8202Z" fill="#242E54"></path>
<path d="M263.146 37.3545C263.19 35.7301 263.168 34.0621 264.225 32.6448C264.475 32.3178 264.486 31.8163 264.704 31.4565C265.608 30.0174 265.423 28.1859 266.687 26.8123C267.765 25.6239 268.321 23.9668 269.203 22.5932C269.944 21.4485 270.804 20.3692 271.654 19.3008C272.133 18.6902 272.688 18.1343 273.233 17.5782C273.647 17.164 273.996 16.7388 274.595 16.4553C275.412 16.052 276.261 15.3542 276.686 14.5693C277.198 13.6208 278.451 13.4791 278.734 12.3235C278.821 11.9855 279.573 11.8002 280.03 11.5603C280.575 11.2769 281.141 11.0479 281.653 10.7209L283.908 9.91414L285.989 9.46715L287.47 8.97656L289.039 9.02017C289.899 9.66339 290.062 10.6228 290.302 11.5167C290.629 12.7487 290.781 14.0351 291.086 15.2779C291.86 18.4613 292.862 21.5575 294.648 24.3593C295.269 25.3296 296.097 26.06 297.154 26.5615C298.08 27.0085 298.973 27.063 299.877 26.5615C300.258 26.3544 300.639 26.1581 301.021 25.951C302.404 25.2097 303.668 25.3296 304.844 26.398C305.552 27.0303 306.293 27.6299 306.979 28.2731C307.099 28.3821 307.121 28.7092 307.044 28.8727C306.805 29.4287 307.012 29.8757 307.251 30.3554C307.545 30.955 307.502 31.511 307.044 32.0343C306.532 32.623 306.402 33.3208 306.445 34.0512L305.726 35.2177L305.149 36.2425C304.474 37.1146 304.299 38.2812 303.145 38.8917C302.208 39.3823 301.718 40.4725 300.868 41.192C299.071 42.7074 297.121 43.9284 294.964 44.8115C293.287 45.4983 291.62 46.2396 289.899 46.7738C288.505 47.199 287.045 47.4389 285.596 47.6242C283.799 47.8531 282.002 47.984 280.215 48.3219C278.157 48.7144 276.076 48.5291 274.017 48.1039C273.342 47.9622 272.667 47.7332 271.98 47.7005C270.15 47.6133 268.658 46.6866 267.188 45.8036C266.109 45.1494 264.998 44.3972 264.726 42.9472C264.639 42.4675 264.257 42.0315 263.942 41.6172C263.615 41.1811 263.528 40.7341 263.517 40.1781C263.506 39.2514 263.157 38.3139 263.179 37.3872L263.146 37.3545ZM287.492 33.7895C288.341 35.2068 288.766 36.7222 289.028 38.3248C289.137 39.0007 289.311 39.6766 289.507 40.6142C289.474 40.7886 289.354 41.192 289.322 41.6063C289.267 42.195 289.235 42.7946 289.278 43.3942C289.311 43.863 289.921 44.1683 290.237 43.863C290.912 43.2198 291.729 43.2198 292.557 43.0126C293.581 42.7728 294.441 41.9006 295.433 41.41C297.415 40.4289 298.602 38.5101 300.411 37.3218C300.683 37.1474 300.857 36.7985 301.01 36.4932C301.685 35.185 302.295 33.855 303.341 32.7648C303.657 32.4268 303.744 31.8272 303.831 31.3257C303.929 30.737 303.918 30.1156 303.929 29.5159C303.929 29.1235 303.711 28.8727 303.308 28.84C302.339 28.7855 301.391 28.8509 300.65 29.625C300.465 29.8103 300.28 29.9956 300.095 30.181C299.398 30.8787 298.657 31.0095 297.764 30.4971C297.317 30.2464 296.783 30.072 296.282 30.0392C294.735 29.9302 293.701 28.9054 292.905 27.837C292.339 27.0739 291.261 26.6269 291.228 25.3732C291.228 24.9153 290.215 24.501 290.139 24.0104C289.943 22.6913 289.213 21.5902 288.919 20.3583C288.537 18.7884 288.08 17.2403 288.222 15.5396C288.309 14.4821 287.84 13.3701 287.59 12.2799C287.579 12.2254 287.263 12.1599 287.154 12.2145C286.86 12.3889 286.588 12.6178 286.337 12.8468C286.087 13.0757 285.88 13.5445 285.64 13.5554C284.518 13.599 284.082 14.3513 283.538 15.1689C283.124 15.7903 282.405 16.1937 281.828 16.6952C280.379 16.2373 279.91 17.5019 279.137 18.2215C278.886 18.4613 278.69 18.8865 278.407 18.9519C276.534 19.3989 276.043 21.0996 275.15 22.4296C274.911 22.7894 274.693 23.1601 274.431 23.498C274.105 23.9123 273.179 23.7924 273.364 24.6755C273.865 24.5991 274.431 24.6537 274.856 24.4356C276.751 23.4326 278.581 24.1413 280.379 24.6209C282.743 25.2642 285.531 28.2077 286.196 30.9877C286.424 31.9689 286.969 32.8956 287.492 33.7677V33.7895ZM268.32 41.8679C268.549 42.2168 268.974 42.4239 269.236 42.751C270.728 44.5825 272.732 44.9859 274.987 45.1276C277.111 45.2694 279.246 44.8987 281.37 45.4874C282.133 45.6945 283.058 45.313 283.908 45.193C283.908 45.1712 283.908 45.1494 283.908 45.1276C284.594 45.0731 285.281 45.0295 285.978 44.9641C286.98 44.8769 287.612 44.2882 287.492 43.2743C287.263 41.2901 287.078 39.2732 286.533 37.3763C286.065 35.7301 285.302 34.0948 284.333 32.6775C282.819 30.4753 280.989 28.5021 278.396 27.4555C278.233 27.3901 278.07 27.2701 277.917 27.281C275.793 27.401 273.604 26.8668 271.545 27.8261C271.316 27.9352 270.946 28.0551 270.913 28.2295C270.662 29.5159 269.355 30.0283 268.865 31.1403C268.495 31.9907 267.83 32.7102 267.471 33.5715C266.708 35.3703 267.253 37.3654 266.785 39.2187C267.297 40.1127 267.776 41.0176 268.331 41.8788L268.32 41.8679Z" fill="#242E54"></path>
</svg>