<svg width="313" height="266" viewBox="0 0 313 266" fill="none" xmlns="http://www.w3.org/2000/svg">
<path d="M85.2425 225.64C86.8325 225.26 87.5225 226.04 88.3125 226.73C88.9525 227.29 89.6725 227.84 90.4425 228.16C92.1025 228.83 93.7925 229.6 95.5425 229.87C97.7625 230.22 99.2825 232.09 101.543 232.3C102.273 232.37 102.963 232.99 103.633 233.41C104.773 234.12 105.783 234.95 107.353 234.69C108.023 234.58 108.803 235.34 109.563 235.64C112.173 236.69 114.933 237.41 117.143 239.3C117.663 239.75 118.343 240.09 119.013 240.29C120.873 240.87 122.803 241.25 124.633 241.9C125.723 242.29 126.683 243.05 127.703 243.64C128.043 243.84 128.463 244.29 128.713 244.21C130.463 243.65 131.443 245.03 132.713 245.68C133.213 245.93 133.743 246.37 134.233 246.33C137.183 246.09 138.543 248.69 140.673 249.88C142.043 250.64 143.453 251.24 144.693 250.29C145.553 249.64 145.883 249.72 146.253 250.62C146.423 251.03 146.553 251.72 146.833 251.79C147.803 252.05 148.383 253.13 149.533 252.97C149.943 252.91 150.633 253.01 150.783 253.27C151.273 254.11 151.833 254.56 152.853 254.41C153.103 254.37 153.593 254.63 153.643 254.84C153.953 256 154.653 256.51 155.813 256.87C156.613 257.11 156.603 258.8 155.983 259.66C155.483 260.37 155.003 261.12 154.383 261.71C153.833 262.23 153.143 262.72 152.423 262.93C150.973 263.35 149.473 263.57 147.993 263.86C147.683 263.92 147.273 263.81 147.053 263.97C145.323 265.26 143.843 264.31 142.173 263.71C141.033 263.3 139.633 263.6 138.343 263.59C136.963 265.15 135.303 264.54 133.753 264.08C131.683 263.47 129.683 263.31 127.623 264.08C127.163 264.25 126.573 264.12 126.053 264.04C124.713 263.83 123.423 263.7 122.103 264.35C121.533 264.63 120.513 264.75 120.113 264.43C119.153 263.65 118.303 263.82 117.293 264.12C116.723 264.29 116.063 264.19 115.453 264.21C114.523 264.23 113.593 264.28 112.663 264.26C112.223 264.25 111.693 264.23 111.373 263.99C110.163 263.09 108.923 263.24 107.773 263.93C106.943 264.42 106.243 264.44 105.313 264.32C104.373 264.2 103.333 264.82 102.373 264.73C101.523 264.65 100.853 263.59 99.7925 263.97C98.1425 264.57 96.4925 264.35 94.8725 263.92C93.9025 263.67 93.0325 264.27 92.1525 264.19C90.7025 264.07 89.2025 264.82 87.7825 263.97C87.5425 263.83 87.0725 263.82 86.8525 263.97C85.2025 265.08 83.5525 264.37 81.8725 264.11C80.4225 263.89 78.9525 263.3 77.4725 264.06C77.2925 264.15 76.9525 264.16 76.7925 264.05C75.1025 262.89 73.4125 263.67 71.7225 264.03C70.8725 264.21 70.0325 264.59 69.3025 263.7C69.1425 263.51 68.5425 263.37 68.4425 263.48C67.4225 264.55 65.7525 263.39 64.7625 264.58C64.6525 264.71 64.0925 264.45 63.7325 264.41C63.3625 264.36 62.7225 264.23 62.6725 264.34C62.1625 265.49 61.3725 265.02 60.6925 264.69C58.9825 263.85 57.1325 263.99 55.3225 263.87C54.3725 263.81 53.4225 263.78 52.4725 263.73C52.0725 263.71 51.5025 263.47 51.3125 263.65C49.9025 264.95 48.2725 264.18 46.7525 264.19C45.1025 264.19 43.4525 264.08 41.8025 264.02C41.4825 264.01 41.0725 263.89 40.8725 264.05C39.3325 265.19 37.8425 264.34 36.3225 264.05C35.8825 263.96 35.4025 263.96 34.9525 264C34.5625 264.03 34.1825 264.31 33.8125 264.26C31.2125 263.96 28.6325 264.59 25.9725 264.26C24.1125 264.04 22.0725 263.74 20.0425 264.41C18.8125 264.82 17.2625 264.17 15.8525 264.11C14.0725 264.04 12.2825 264.02 10.5125 264.13C9.87254 264.17 8.92252 264.05 8.87252 265.34C8.85252 265.92 7.71254 265.87 7.70254 265.23C7.67254 264.2 7.13254 263.96 6.39254 263.96C3.46254 263.98 2.30253 261.96 1.34253 259.69C1.10253 259.11 1.01252 258.45 0.682522 257.93C-0.187478 256.57 -0.317484 255.95 0.832515 255.02C1.69252 254.33 2.11252 253.84 1.83252 252.67C1.70252 252.13 2.44252 251.42 2.55252 250.75C2.67252 250.05 3.24252 249.23 1.96252 248.71C0.91252 248.28 0.922524 247.86 1.87252 246.94C2.87252 245.96 3.30253 245.08 2.25253 243.86C2.05253 243.63 2.13252 242.94 2.33252 242.61C3.15252 241.24 3.55253 239.9 3.47253 238.48C3.45253 238.1 3.38253 237.49 3.56253 237.37C4.73253 236.67 4.27252 235.33 4.80252 234.45C5.50252 233.28 5.26253 232.14 5.00253 231.04C4.72253 229.84 4.95253 228.89 5.63253 227.92C5.92253 227.5 6.29255 226.75 6.11255 226.46C5.38254 225.26 6.16254 224.38 6.54254 223.41C6.65254 223.12 6.90252 222.82 6.87252 222.55C6.76252 221.57 5.48252 220.83 6.58252 219.54C7.19252 218.81 7.20252 217.57 7.46252 216.55C7.56252 216.17 7.66254 215.75 7.60254 215.37C7.07254 211.76 7.94254 208.29 8.54254 204.78C8.68254 204 8.66253 203.17 8.56253 202.39C8.22253 199.7 8.92252 197.3 10.1525 194.9C10.6825 193.86 10.5825 192.43 10.5525 191.18C10.5225 190.06 10.5225 189.04 11.1425 188.02C11.9025 186.78 11.6625 185.46 11.1725 184.14C11.0025 183.69 10.8925 182.98 11.1325 182.65C12.5325 180.73 12.5425 178.54 12.6225 176.34C12.6425 175.8 12.6625 175.18 12.9325 174.75C13.8325 173.32 14.6725 171.95 14.2425 170.11C14.1525 169.72 14.8725 169.19 14.9525 168.69C15.1125 167.72 15.1125 166.72 15.1025 165.74C15.0925 165.13 14.6625 164.4 14.8725 163.93C15.6625 162.18 15.3725 160.24 16.1325 158.42C16.7925 156.86 17.3125 154.98 16.6225 153.13C16.1025 151.73 17.3825 150.82 17.7725 149.66C18.0125 148.92 18.2725 148.28 18.3525 147.46C18.6125 144.92 19.7125 142.61 20.8825 140.37C20.9925 140.16 21.3925 140.04 21.6625 140.02C21.8025 140.02 22.0125 140.33 22.0825 140.53C22.1725 140.83 22.1325 141.17 22.2025 141.48C22.3625 142.25 22.7925 142.41 23.6025 142.29C26.7125 141.83 29.6225 140.44 32.8025 140.33C33.2525 140.31 33.7925 140.14 34.1325 139.86C35.1925 138.99 36.4225 139.69 37.5125 139.38C38.6425 139.06 39.7125 138.51 40.8525 138.23C41.3425 138.11 41.9325 138.45 42.4725 138.5C43.0725 138.55 43.6825 138.53 44.2825 138.51C44.9725 138.49 45.6525 138.42 46.3425 138.39C46.6525 138.38 47.1225 138.55 47.2625 138.39C48.7925 136.76 51.1625 137.94 52.8225 136.69C53.1625 136.43 53.8825 136.53 54.3825 136.66C57.0025 137.36 59.5525 137.33 62.0725 136.2C62.9025 135.83 63.7825 135.21 64.6925 136.19C64.8325 136.34 65.3225 136.28 65.5925 136.18C66.5925 135.8 67.5525 135.59 68.6025 136.05C68.8225 136.15 69.2425 136.05 69.4425 135.89C71.4725 134.21 73.5625 135.14 75.6125 135.78C75.9825 135.89 76.5125 136.53 76.4425 136.78C76.1525 137.88 76.2325 138.21 77.3525 137.53C77.5525 137.41 78.0525 137.43 78.1425 137.57C78.2825 137.78 78.2925 138.22 78.1525 138.42C76.5425 140.88 76.3625 141.89 76.7325 144.63C76.9325 146.11 76.8825 147.63 76.9325 149.14C76.9325 149.3 76.8025 149.5 76.8625 149.6C78.1225 151.58 76.5325 153.2 76.1825 154.96C75.8725 156.51 75.1525 158.07 77.0525 159.16C77.2125 159.25 77.2825 159.69 77.2225 159.93C76.6725 162.06 76.7825 164.23 76.6825 166.4C76.5725 168.92 77.7825 171.48 76.5025 173.98C76.4125 174.16 76.5025 174.45 76.5525 174.68C77.0725 177.06 77.5925 179.44 78.1125 181.81C78.1725 182.1 78.3525 182.54 78.2225 182.68C76.7425 184.29 78.1225 186.03 77.9525 187.7C77.9125 188.14 78.2325 188.68 78.0825 189.04C77.5125 190.38 77.8225 191.69 77.8925 193.04C77.9725 194.65 78.2525 196.05 79.1625 197.45C79.6725 198.23 79.8625 199.31 79.5425 200.54C79.0625 202.46 78.1525 204.54 79.3925 206.58C79.5325 206.81 79.4825 207.22 79.3925 207.5C78.9625 208.8 79.5025 209.78 80.4225 210.59C80.9125 211.02 80.8025 211.32 80.5025 211.78C79.8525 212.8 79.7025 213.84 80.1825 215.05C80.5325 215.93 80.6025 216.94 80.7125 217.9C80.9125 219.67 81.0125 221.46 81.2325 223.23C81.2825 223.61 81.5225 224.15 81.8225 224.29C83.0225 224.84 84.2825 225.26 85.2325 225.62L85.2425 225.64Z" fill="#7DBEFF"/>
<path d="M312.462 43.08C311.342 41.71 311.652 40.08 311.532 38.52C311.392 36.78 311.312 36.74 309.442 36.39C309.132 36.33 308.782 36.3 308.522 36.14C307.642 35.57 306.742 34.69 306.542 36.67C306.542 36.74 306.112 36.74 305.902 36.81C304.892 37.18 303.702 37.35 302.912 37.99C300.832 39.7 298.302 40.36 295.942 41.42C295.162 41.77 294.352 42.49 293.622 42.41C292.322 42.27 291.532 43.01 290.592 43.54C290.182 43.77 289.832 44.28 289.422 44.31C287.082 44.52 285.192 46.32 282.742 46.16C282.362 46.14 281.972 46.66 281.552 46.87C280.152 47.57 278.732 48.25 277.312 48.92C276.882 49.12 276.432 49.25 275.992 49.44C274.052 50.3 272.122 51.16 270.192 52.03C268.292 52.89 266.322 53.62 264.532 54.67C261.772 56.3 258.712 57.29 255.952 58.99C253.762 60.33 250.972 60.69 249.072 62.71C248.752 63.04 248.292 63.28 247.862 63.46C245.972 64.27 244.052 65.02 242.162 65.83C240.932 66.36 239.722 66.93 238.542 67.55C237.352 68.17 236.902 68.09 236.352 66.8C236.012 66.01 236.142 64.8 235.592 64.35C233.742 62.85 233.782 59.79 231.102 59.02C230.852 58.95 230.663 58.57 230.503 58.29C230.063 57.54 229.802 56.62 229.202 56.03C227.822 54.66 228.222 51.5 225.072 51.86C224.862 51.88 224.602 51.49 224.372 51.27C224.092 51.01 223.862 50.58 223.542 50.5C221.742 50.09 221.452 48.85 221.592 47.28C221.672 46.41 221.322 45.95 220.332 46.05C218.252 46.26 217.152 44.94 216.552 43.25C216.302 42.56 216.182 42.15 215.392 42.07C214.982 42.03 214.532 41.8 214.202 41.53C212.682 40.26 210.632 39.46 210.272 37.12C210.222 36.81 209.732 36.56 209.452 36.29C207.932 34.8 206.722 33.08 205.492 31.35C204.712 30.26 203.812 29.17 203.002 28.06C202.912 27.93 202.782 27.77 202.652 27.75C200.812 27.39 200.242 26 199.852 24.41C199.772 24.09 199.312 23.59 199.092 23.63C197.542 23.85 197.352 22.85 197.002 21.72C196.652 20.61 196.032 19.55 195.372 18.58C194.992 18.03 194.292 17.71 193.732 17.28C193.482 17.66 193.292 18.11 192.952 18.39C192.682 18.61 192.242 18.69 191.872 18.72C191.242 18.77 190.592 18.67 189.982 18.78C189.752 18.82 189.352 19.38 189.412 19.49C190.152 20.78 189.692 21.65 188.592 22.45C188.282 22.68 188.022 23.31 188.102 23.69C188.352 24.92 187.682 25.75 186.892 26.35C186.032 27 185.642 27.71 185.582 28.74C185.552 29.19 185.292 29.98 185.092 30C183.522 30.13 183.782 31.59 183.212 32.43C182.032 34.16 180.892 35.93 179.752 37.68C179.242 38.46 178.922 39.48 178.222 39.99C177.072 40.84 175.732 41.39 175.872 43.18C175.922 43.82 174.232 43.36 174.842 44.55C173.542 47.02 172.372 49.57 170.922 51.95C169.572 54.17 167.862 56.17 166.472 58.36C166.032 59.06 165.752 59.62 164.882 59.91C164.322 60.1 163.522 60.98 163.612 61.39C163.942 62.99 162.912 64.12 162.172 65.03C160.762 66.78 159.182 68.39 157.972 70.33C157.262 71.47 155.652 71.93 155.432 73.53C155.392 73.78 154.822 73.96 154.502 74.18C154.252 74.36 153.772 74.59 153.792 74.74C153.992 75.96 153.592 76.49 152.292 76.48C152.052 76.48 151.552 77.4 151.612 77.83C151.752 78.76 151.302 79.28 150.802 79.94C149.172 82.1 147.422 84.12 145.232 85.73C145.002 85.9 144.692 86.26 144.732 86.47C144.942 87.51 144.082 87.76 143.572 88.32C143.112 88.82 142.842 89.51 142.532 90.14C142.222 90.76 142.042 91.47 141.652 92.04C140.772 93.31 140.762 94.81 141.142 96.06C141.722 97.93 143.802 99.14 146.082 99.72C148.102 100.23 150.022 101.05 151.232 102.83C152.092 104.1 153.202 104.79 154.602 105.4C157.562 106.71 159.162 109.66 161.522 111.72C161.562 113.48 163.052 113.36 164.112 113.55C164.982 113.71 165.732 113.92 166.032 114.72C166.532 116.04 167.742 116.5 168.742 117.23C169.192 117.56 169.962 117.78 170.072 118.19C170.492 119.69 171.892 119.9 172.892 120.63C173.632 121.18 174.352 121.76 175.062 122.35C175.472 122.69 175.832 123.1 176.252 123.44C178.122 124.94 180.612 125.79 181.402 128.41C181.462 128.62 181.662 128.91 181.832 128.93C182.912 129.06 183.692 130.11 184.552 130.2C186.612 130.42 187.242 131.96 188.202 133.27C188.572 133.77 188.842 134.42 189.322 134.77C190.652 135.73 192.232 136.41 193.402 137.51C194.492 138.54 196.192 139.09 196.372 141.03C196.412 141.52 197.312 142.06 197.922 142.35C198.912 142.83 200.012 143.08 201.032 143.5C201.752 143.8 202.842 144.08 203.032 144.62C203.482 145.88 205.362 145.99 205.222 147.64C205.202 147.91 205.912 148.5 206.282 148.49C207.922 148.45 209.032 149.56 210.392 150.13C212.062 150.84 213.542 150.36 214.232 149C214.912 147.65 215.993 146.39 216.253 144.97C216.523 143.51 217.372 142.81 218.322 141.98C219.552 140.9 220.942 139.92 221.882 138.63C222.982 137.13 224.042 135.77 225.882 135.17C226.312 135.03 226.812 134.68 226.982 134.3C227.802 132.44 230.192 131.83 230.582 129.55C230.702 128.88 231.762 128.32 232.462 127.81C233.092 127.35 233.842 127.05 234.522 126.65C234.752 126.51 235.142 126.21 235.112 126.12C234.732 125.15 235.583 124.7 236.062 124.39C238.362 122.86 239.242 120.1 241.422 118.46C242.462 117.68 243.312 116.62 244.202 115.65C244.732 115.07 245.042 114.12 245.682 113.83C247.312 113.07 248.072 111.81 248.552 110.2C248.792 109.38 249.112 108.5 250.402 109.11C250.922 109.36 251.732 109.26 251.572 108.22C251.542 108.01 251.612 107.63 251.742 107.57C253.442 106.83 254.352 105.4 255.102 103.81C255.212 103.57 255.622 103.45 255.902 103.32C257.752 102.48 258.372 100.39 260.042 99.29C260.872 98.74 261.132 97.37 261.922 96.68C262.642 96.06 263.702 95.85 263.642 94.6C263.642 94.56 263.953 94.54 264.062 94.45C264.592 94 265.322 93.63 265.582 93.06C266.082 91.97 266.912 91.27 267.842 90.68C268.622 90.18 269.082 89.55 269.512 88.74C270.362 87.12 271.372 85.6 273.232 84.91C273.482 84.82 273.762 84.58 273.862 84.34C274.862 81.96 277.142 80.67 278.772 78.85C279.732 77.79 281.362 77.37 281.232 75.5C281.232 75.42 281.632 75.35 281.792 75.21C282.512 74.53 282.752 73.29 283.972 73.2C285.702 73.07 284.912 71.43 285.572 70.69C285.802 70.43 286.232 70.25 286.582 70.21C287.292 70.13 287.582 69.71 288.012 69.18C289.702 67.08 291.823 65.36 293.253 63.02C293.863 62.02 294.842 61.26 295.582 60.33C296.352 59.36 296.862 58.19 298.322 57.95C298.742 57.88 299.102 57.25 299.422 56.83C300.112 55.91 300.672 54.9 301.432 54.04C302.932 52.35 304.542 50.75 306.072 49.08C306.562 48.54 306.922 47.86 307.822 48.29C308.752 48.6 309.142 48.16 309.632 47.35C310.382 46.11 311.462 45.06 312.362 43.9C312.522 43.7 312.612 43.21 312.482 43.06L312.462 43.08Z" fill="#AC81FF"/>
<path d="M187.242 110.04C188.332 110.65 189.482 109.58 190.742 109.43C192.062 109.27 193.322 108.9 194.622 108.71C195.302 108.61 195.972 108.33 196.622 108.07C197.492 107.72 198.312 107.23 199.202 106.93C200.002 106.66 200.882 106.6 201.702 106.4C202.072 106.31 202.392 106.06 202.752 105.92C203.312 105.7 203.882 105.38 204.462 105.35C206.332 105.28 208.002 104.93 209.242 103.3C209.622 102.8 210.482 102.67 211.132 102.4C211.572 102.22 212.122 102.21 212.462 101.93C213.232 101.3 213.802 100.16 214.642 99.94C215.642 99.67 216.322 99.15 217.022 98.55C218.342 97.42 219.652 96.28 220.922 95.09C221.952 94.12 222.902 93.06 223.922 92.07C224.532 91.47 225.152 90.84 225.852 90.36C226.962 89.6 227.602 89.96 227.582 91.35C227.582 91.95 227.422 92.61 227.132 93.14C226.422 94.47 225.602 95.73 224.822 97.03C224.532 97.51 224.082 97.97 224.022 98.48C223.802 100.4 222.342 101.07 220.972 101.98C220.112 102.55 218.932 102.91 218.652 104.2C218.602 104.44 218.112 104.64 217.792 104.75C216.042 105.35 214.362 105.97 213.512 107.86C213.362 108.2 212.792 108.37 212.402 108.57C211.652 108.96 210.882 109.32 210.112 109.69C209.912 109.79 209.612 109.99 209.502 109.92C207.972 108.9 207.252 110.43 206.962 111.14C206.422 112.49 205.422 112.59 204.362 112.77C203.732 112.88 203.082 112.8 202.452 112.89C201.622 113.01 201.062 113.33 200.882 114.35C200.662 115.6 199.792 115.96 198.652 115.26C197.952 114.83 197.612 114.9 197.002 115.34C196.252 115.89 195.382 116.29 194.512 116.66C194.122 116.83 193.622 116.81 193.182 116.78C191.982 116.72 190.282 117.19 189.032 117.93C188.792 118.07 188.412 118.22 188.202 118.12C187.272 117.69 186.732 118.02 186.222 118.83C186.112 119.01 185.382 118.96 185.032 118.8C184.652 118.63 184.422 118.09 184.032 117.95C182.502 117.4 181.452 116.51 181.112 114.83C180.992 114.27 180.182 113.7 180.292 113.28C180.412 112.79 181.212 112.49 181.672 112.06C182.002 111.76 182.242 111.38 182.552 111.05C182.802 110.79 183.072 110.38 183.372 110.34C184.542 110.18 185.732 110.14 187.242 110.04Z" fill="#242E54"/>
<path d="M198.683 70.0301C198.763 69.3301 198.773 69.0101 198.843 68.7001C198.983 68.0101 198.993 67.1301 199.943 67.1101C200.683 67.0901 201.603 66.9301 201.933 67.9701C201.953 68.0501 201.973 68.1501 202.033 68.1801C204.593 69.7701 205.833 72.5701 207.843 74.6901C209.843 76.8001 211.663 79.3501 212.323 82.4001C212.493 83.1801 212.503 83.8201 211.663 84.2001C210.923 84.5201 210.353 84.4201 209.783 83.7601C208.953 82.8001 208.033 81.9301 207.123 81.0401C206.633 80.5701 206.173 80.1401 205.503 79.8001C204.703 79.4001 204.173 78.3801 203.623 77.5701C203.323 77.1301 203.163 76.5701 202.993 76.0501C202.653 74.9901 200.943 75.4501 200.843 73.9101C200.783 73.0201 199.943 72.1701 199.443 71.3101C199.143 70.7901 198.833 70.2801 198.683 70.0301Z" fill="#242E54"/>
<path d="M199.123 86.94C198.583 87.42 198.273 87.84 197.853 88.02C197.463 88.19 196.803 88.31 196.543 88.11C194.873 86.8 193.283 85.38 191.663 84.01C191.953 82.2 190.423 81.5 189.583 80.32C188.613 78.96 188.093 77.22 187.623 75.57C187.313 74.5 188.173 73.83 189.183 74.28C190.013 74.65 190.673 75.38 191.463 75.84C193.613 77.08 194.463 79.44 196.063 81.16C197.453 82.64 198.063 84.85 199.113 86.93L199.123 86.94Z" fill="#242E54"/>
<path d="M17.2922 95.32C17.1022 98.72 18.2322 101.88 18.9222 105.11C19.1722 106.27 19.4722 107.45 19.9322 108.53C21.2622 111.62 23.0222 114.58 23.9622 117.78C24.7022 120.32 27.2722 121.75 27.4122 124.47C29.0522 126.21 29.4822 129 32.1322 129.87C32.3322 129.94 32.5822 130.14 32.6322 130.33C33.0922 132.11 34.7622 132.82 35.8522 134.04C36.5822 134.86 37.2722 135.72 38.0322 136.5C38.7422 137.23 39.5522 137.87 40.2922 138.57C40.4422 138.71 40.6022 139.02 40.5422 139.17C40.4322 139.43 40.1422 139.81 39.9622 139.79C39.2022 139.71 38.2922 139.72 37.7322 139.3C35.9122 137.93 34.2222 136.37 32.4722 134.9C31.9522 134.46 31.3122 134.12 30.8722 133.6C30.0722 132.65 29.4622 131.54 28.6322 130.62C27.0622 128.87 26.2022 126.56 24.1922 125.16C23.8422 124.92 23.7122 124.37 23.5022 123.94C22.4422 121.82 21.4722 119.65 20.3222 117.57C19.6022 116.28 18.2922 115.23 17.8822 113.87C17.4722 112.54 17.3022 111.14 16.7322 109.79C15.7522 107.48 15.0522 105.05 14.3322 102.64C14.1422 101.99 14.3022 101.23 14.3022 100.52C14.3022 99.98 14.3822 99.42 14.2622 98.91C13.9522 97.58 13.9222 96.3 14.1022 94.91C14.3222 93.21 14.0622 91.45 14.0022 89.71C13.9722 88.78 13.8222 87.85 13.9122 86.94C14.0922 85.15 14.3722 83.37 14.6722 81.6C14.7822 80.91 14.9722 80.22 15.2722 79.59C16.1822 77.65 17.1522 75.75 18.1322 73.84C18.3022 73.51 18.6122 73.25 18.8422 72.95C20.0922 71.32 21.3422 69.71 21.1022 67.43C21.0322 66.71 20.9622 65.95 21.7622 65.31C22.2022 64.96 22.3422 63.94 22.2322 63.29C21.9322 61.49 22.8922 60.09 23.4722 58.56C23.7622 57.78 25.0222 57.21 23.9822 56.12C23.9022 56.04 24.1522 55.52 24.3622 55.33C25.3922 54.42 25.6822 53.18 25.9322 51.92C26.1422 50.83 26.5522 49.89 27.2422 48.97C27.8922 48.1 28.1322 46.94 28.6222 45.95C29.3322 44.48 29.9822 42.96 30.8922 41.61C32.0622 39.88 33.8422 38.53 34.1022 36.25C34.1222 36.12 34.2422 35.91 34.3522 35.89C36.2422 35.46 36.3722 33.71 37.0322 32.36C37.1322 32.16 37.1122 31.8 37.2522 31.72C39.8222 30.37 40.7222 27.2 43.4722 26.03C43.9322 25.83 44.5822 25.21 44.5422 24.86C44.3422 23.27 45.5622 23.09 46.4922 22.83C47.7322 22.48 48.5522 21.66 49.3322 20.78C50.2522 19.75 51.2422 19.02 52.6722 18.7C54.2722 18.34 55.8122 17.64 57.3122 16.95C60.5322 15.48 63.9922 15.03 67.4222 14.71C68.6822 14.59 70.0122 15.06 71.2522 14.39C72.3022 15.65 73.8322 15.21 74.9822 15.03C76.3722 14.81 77.5122 15.31 78.7722 15.44C79.9922 15.56 81.3522 15.19 82.4522 15.59C84.7322 16.42 87.3322 16.49 89.1922 18.44C90.2122 19.5 91.4322 18.48 92.4822 18.19C94.5022 17.64 96.3522 16.53 98.4922 16.28C99.1622 16.2 99.9722 16 100.432 15.57C101.622 14.45 103.022 14.13 104.552 14.02C105.022 13.99 105.622 14.06 105.942 13.8C108.042 12.12 110.672 12.28 113.072 11.64C114.192 11.34 115.282 10.72 116.402 10.69C117.602 10.66 118.762 10.86 119.842 10.11C120.082 9.94001 120.722 9.98004 120.902 10.17C121.972 11.32 123.332 11.3 124.612 10.98C125.562 10.74 126.252 10.95 127.062 11.34C128.472 12.02 130.182 12.07 131.332 13.29C131.912 13.91 132.442 14.58 132.962 15.25C134.352 17.02 135.922 18.63 137.602 20.1C138.302 20.71 138.672 21.39 139.082 22.17C140.192 24.31 141.192 26.52 142.782 28.38C143.002 28.64 142.982 29.11 143.082 29.47C143.232 30 143.272 30.63 143.582 31.05C144.862 32.74 144.782 34.76 145.122 36.68C145.202 37.15 145.142 37.66 145.292 38.09C145.992 40.03 146.482 41.98 146.442 44.09C146.412 45.92 147.982 46.56 149.372 46.73C150.742 46.9 151.722 47.59 152.822 48.19C153.792 48.72 155.182 48.47 155.732 49.77C157.482 49.98 158.352 51.63 159.842 52.27C160.122 52.39 160.422 52.58 160.582 52.82C162.312 55.38 163.952 57.99 164.742 61.02C164.782 61.16 164.702 61.32 164.672 61.47C164.472 61.37 164.222 61.32 164.092 61.17C163.372 60.34 162.682 59.48 161.982 58.63C161.622 58.2 161.312 57.73 160.892 57.37C159.362 56.01 157.412 55.23 155.982 53.67C155.422 53.06 154.262 52.97 153.362 52.69C152.752 52.5 151.982 52.59 151.532 52.23C150.012 51.01 148.172 51.86 146.562 51.28C145.902 51.04 145.542 51.63 145.402 52.2C145.202 52.96 145.292 53.89 144.882 54.48C144.302 55.33 145.292 56.65 143.702 57.25C142.922 57.55 143.102 59.31 141.832 59.73C141.672 59.78 141.562 60.11 141.492 60.34C140.022 65.03 139.422 65.89 136.182 69.32C135.002 70.57 134.122 72.1 133.152 73.53C132.402 74.65 131.692 75.75 130.392 76.36C129.882 76.6 129.422 77.19 129.202 77.73C128.722 78.88 127.962 79.63 126.962 80.38C125.732 81.3 124.422 82.32 124.032 84C123.972 84.27 123.712 84.63 123.472 84.71C122.262 85.1 121.352 85.63 120.482 86.75C119.732 87.72 117.572 87.57 116.772 88.53C115.642 89.87 114.542 89.76 113.192 89.57C113.112 89.56 113.012 89.52 112.952 89.56C111.362 90.51 110.002 89.18 108.512 89.11C108.042 89.09 106.412 86.74 106.222 85.86C105.902 84.38 105.602 82.9 105.382 81.4C105.242 80.48 105.332 79.59 104.772 78.68C104.452 78.17 105.012 77.08 105.242 76.28C105.502 75.38 105.952 74.53 106.122 73.62C106.242 73 106.022 72.31 105.952 71.66C105.352 72.03 104.622 72.28 104.182 72.79C103.632 73.42 103.322 74.26 102.912 75.01C102.452 75.84 101.792 76.43 101.052 77.04C99.9822 77.93 99.1822 79.2 98.4722 80.43C97.5922 81.94 96.3122 82.84 94.7722 83.48C94.6222 83.54 94.4822 83.62 94.3622 83.72C92.0922 85.61 89.3122 85.97 86.5322 86.31C85.8222 86.4 85.0922 86.52 84.4422 86.78C82.8122 87.43 81.3322 87.06 79.9122 86.25C79.1822 85.83 78.5622 85.83 77.7122 85.93C76.6522 86.05 75.4622 85.58 74.4222 85.14C73.2722 84.66 72.2122 83.95 71.1322 83.3C70.7522 83.07 70.4322 82.74 70.1022 82.43C69.7722 82.12 69.5222 81.65 69.1322 81.48C68.1122 81.03 66.9922 80.78 66.8522 79.36C66.8322 79.17 66.3722 78.99 66.0922 78.88C65.4222 78.62 65.3522 78.11 65.1322 77.46C64.7222 76.25 64.5022 74.77 63.0222 74.16C62.8222 74.08 62.5622 73.55 62.6322 73.47C63.4622 72.47 62.5422 71.9 62.1322 71.19C61.7422 70.54 60.9522 70.06 61.2422 69.1C61.2922 68.92 61.1422 68.63 61.0122 68.45C59.6322 66.53 59.1622 65.43 59.6722 63.35C60.0422 61.85 59.5822 60.51 59.2122 59.25C58.9222 58.28 58.7822 57.41 59.0022 56.51C59.4322 54.66 59.9922 52.84 60.5022 51.01C60.5622 50.78 60.7522 50.54 60.7122 50.33C60.1622 47.51 62.4922 45.49 62.7822 42.9C62.8222 42.52 63.4222 42.23 63.6822 41.85C63.9522 41.46 64.3822 40.91 64.2822 40.59C63.7822 39.03 64.8922 38.56 65.8222 37.82C66.4822 37.29 66.9122 36.47 67.5522 35.91C68.4822 35.1 69.5222 34.41 70.5022 33.65C70.8122 33.41 71.1422 33.15 71.3322 32.83C72.7522 30.3 74.8222 28.56 77.3522 27.13C79.1322 26.12 81.2622 25.46 82.4722 23.56C82.6322 23.31 82.9422 23.14 83.2222 22.99C84.8722 22.08 84.8822 22.07 83.4122 21.01C82.1522 20.11 80.8422 19.4 79.2222 20.05C79.0722 20.11 75.7622 19.4 75.6122 19.38C74.5922 19.24 73.5022 18.83 72.5622 19.05C71.0022 19.41 69.5222 19.32 67.9522 19.28C64.4322 19.19 60.8322 19.05 57.6222 21.07C56.6622 21.67 55.5722 22.06 54.5222 22.51C52.2822 23.46 50.3822 24.86 48.8022 26.72C48.4022 27.19 47.7722 27.47 47.2322 27.8C45.6522 28.75 44.3222 29.91 43.6222 31.7C43.4022 32.27 42.9922 32.9 42.4922 33.2C40.3722 34.46 39.0422 36.28 38.2222 38.55C38.0422 39.04 37.6422 39.66 37.1922 39.82C35.8722 40.28 35.6422 41.51 35.5622 42.46C35.4622 43.53 35.0022 44.09 34.3822 44.84C33.1422 46.35 32.0022 47.97 31.0922 49.69C30.2222 51.34 29.6622 53.16 29.0022 54.92C28.5822 56.06 28.4622 57.31 27.4922 58.22C27.2422 58.45 27.2122 58.95 27.1422 59.33C26.8722 61.03 26.8922 62.78 25.9722 64.37C25.6822 64.88 25.9422 65.76 26.1022 66.45C26.3222 67.47 26.7922 67.72 27.5922 67.09C28.5322 66.36 29.5722 66.14 30.6622 65.96C31.0522 65.9 31.5122 65.87 31.8122 65.65C32.8222 64.91 33.6722 64.74 35.0122 65.22C36.1322 65.62 37.6222 65.01 38.9522 64.82C39.2522 64.78 39.5822 64.55 39.8422 64.62C41.7322 65.16 43.5822 66.04 45.5022 66.27C48.0722 66.57 48.9422 69.2 51.1322 69.87C51.1922 69.89 51.2422 69.98 51.2822 70.05C52.7922 72.89 54.9922 75.29 56.4322 78.19C58.0022 81.36 58.8622 84.71 59.3522 88.19C59.5622 89.66 60.1822 91.09 60.2322 92.54C60.3022 94.5 60.4222 96.64 59.7322 98.39C59.1022 99.99 58.4622 101.54 58.1322 103.23C58.0722 103.52 57.8622 103.84 57.6322 104.04C55.1622 106.14 53.1722 108.84 50.0722 110.16C49.6622 110.33 49.2022 110.39 48.7922 110.56C46.3622 111.55 43.9122 111.34 41.4422 110.71C40.0622 110.36 38.6722 110.06 37.2822 109.75C36.6422 109.61 36.0722 109.43 35.7822 108.74C35.6722 108.48 35.3622 108.23 35.0822 108.14C32.3722 107.23 30.9722 104.85 29.2422 102.86C28.4922 102 28.0122 100.92 27.3922 99.95C27.1422 99.57 26.8722 99 26.5222 98.92C25.7322 98.75 25.6322 98.3 25.8222 97.72C26.0222 97.08 25.9622 96.67 25.2822 96.4C25.1122 96.34 24.8822 95.98 24.9322 95.86C25.7722 93.94 24.1822 93.1 23.2422 91.96C23.0122 91.68 22.6722 91.24 22.7522 90.99C23.3622 89.1 22.4022 87.38 22.2422 85.58C22.0722 83.61 21.7522 81.65 21.4222 79.7C21.3522 79.31 20.9622 78.97 20.7222 78.61C20.4222 78.86 19.9722 79.04 19.8622 79.36C19.4322 80.6 19.3122 81.98 18.7022 83.1C18.0522 84.3 17.9822 85.46 17.9322 86.74C17.8122 89.57 17.5422 92.4 17.3322 95.23L17.2922 95.32ZM65.9122 66.34C64.9822 67.25 66.6422 67.56 66.4722 68.26C66.0422 70.13 67.2822 71.21 68.2522 72.43C68.9022 73.24 69.7522 73.93 70.2022 74.83C71.2622 76.93 72.8222 78.26 75.1222 78.74C75.3422 78.79 75.6622 78.93 75.7122 79.09C76.1822 80.65 77.8522 80.62 78.8922 81.37C79.7822 82.01 81.0422 82.57 82.5222 81.89C83.6522 81.37 85.0722 81.04 86.4622 81.54C86.9322 81.71 87.6422 81.64 88.0922 81.4C89.9022 80.41 91.7622 79.44 93.4022 78.21C94.4522 77.43 95.2622 76.26 95.9822 75.14C96.3722 74.53 96.2522 73.75 97.3822 73.64C98.0122 73.58 98.7822 72.76 98.5722 71.82C98.3122 70.7 99.1522 70.1 99.5722 69.28C100.782 66.93 102.942 65.01 102.912 62.09C103.832 61.1 102.782 59.98 103.082 59.02C103.522 57.59 102.502 55.98 103.732 54.67C103.832 54.57 103.562 54.12 103.462 53.83C103.362 53.54 103.122 53.22 103.182 52.98C103.842 50.38 102.702 48.03 102.242 45.59C101.802 43.23 99.7922 41.53 99.6022 39.06C99.5822 38.8 99.0022 38.61 98.7822 38.31C98.6722 38.17 98.7222 37.69 98.8222 37.64C99.5222 37.32 99.1422 36.92 99.0122 36.47C98.0822 33.48 96.1422 31.06 94.4322 28.53C93.7822 27.57 92.7422 26.88 91.8322 26.12C91.6322 25.95 91.1822 25.89 90.9322 25.99C89.6422 26.54 87.8422 26.84 87.2222 27.84C86.3522 29.25 83.9522 28.65 83.8922 30.74C83.8922 30.78 83.4622 30.78 83.2422 30.84C82.8122 30.96 82.1322 31 82.0122 31.27C81.3922 32.76 79.9222 33.1 78.7222 33.39C76.4522 33.95 74.9822 35.22 73.7622 37.12C73.2122 37.99 73.3022 39.28 72.6122 39.74C70.7222 40.98 69.9722 42.94 68.8022 44.67C67.2522 46.97 67.3722 49.93 65.6022 52.13C65.2822 52.53 65.2022 53.52 65.4722 53.93C66.2022 55.03 65.4322 55.93 65.3422 56.9C65.3022 57.36 64.9722 57.82 64.9922 58.27C65.0822 59.96 65.2422 61.66 65.4222 63.34C65.5322 64.31 65.7422 65.26 65.9222 66.33L65.9122 66.34ZM117.712 15C117.692 14.9 117.672 14.8 117.652 14.69C116.742 14.89 115.832 15.07 114.942 15.31C113.382 15.73 111.852 16.26 110.272 16.59C109.462 16.76 109.292 17.38 108.822 17.78C108.432 18.13 107.212 17.57 106.862 17.92C104.912 19.83 101.562 19.09 99.9922 21.65C99.8822 21.82 99.3622 21.69 99.0822 21.81C98.2822 22.16 97.4422 22.55 97.2522 23.52C97.1722 23.92 97.2122 24.56 97.4622 24.75C98.3722 25.46 98.8722 26.42 99.3622 27.39C99.8522 28.38 100.152 29.48 100.732 30.41C101.932 32.33 102.712 34.47 104.132 36.3C105.062 37.49 105.812 39.09 105.922 40.56C106.032 42.03 106.392 43.29 106.912 44.61C107.472 46.02 107.942 47.51 108.182 49C108.612 51.62 108.952 54.26 109.092 56.9C109.152 57.94 108.562 59.01 108.332 60.08C108.252 60.45 108.402 60.86 108.382 61.25C108.362 61.63 108.302 62.01 108.212 62.37C107.982 63.28 107.732 64.17 107.492 65.08C107.292 65.84 107.342 66.99 106.862 67.29C105.712 68 106.192 68.93 106.122 69.79C106.112 69.98 106.222 70.18 106.272 70.38C106.472 70.18 106.842 69.97 106.832 69.77C106.792 68.92 107.022 68.35 107.772 67.81C108.272 67.45 108.422 66.6 108.752 65.98C109.412 64.73 109.812 63.17 110.812 62.31C113.062 60.38 115.382 58.61 117.192 56.15C118.112 54.9 119.852 54.24 121.252 53.37C122.652 52.49 124.122 51.71 125.522 50.82C127.112 49.81 128.662 48.72 130.252 47.71C130.482 47.56 130.902 47.55 131.172 47.65C132.872 48.27 134.302 47.34 135.772 46.83C136.592 46.54 137.192 46.24 138.192 46.48C139.862 46.87 140.752 46.12 140.782 44.34C140.822 42.16 140.502 39.97 140.332 37.79C140.302 37.42 140.002 36.9 140.152 36.73C140.642 36.17 140.352 35.81 140.152 35.25C139.592 33.66 138.372 32.35 138.192 30.59C137.992 28.64 136.682 27.34 135.432 26C135.282 25.84 135.272 25.56 135.152 25.35C134.122 23.46 133.222 21.48 132.002 19.72C131.282 18.67 130.182 17.73 129.042 17.2C128.342 16.87 127.672 16.55 127.012 16.12C125.062 14.84 123.042 13.82 120.562 14.63C119.672 14.92 118.672 14.88 117.722 14.99L117.712 15ZM27.7622 91.03C27.7355 92.9767 28.3089 94.76 29.4822 96.38C29.7622 96.77 30.0922 97.14 30.2722 97.58C31.1822 99.79 32.1322 101.93 34.6422 102.8C34.8522 102.87 34.9422 103.31 35.0922 103.57C35.2822 103.89 35.4022 104.38 35.6822 104.5C38.1222 105.58 40.1522 107.48 43.2122 107.26C44.9922 107.13 46.8222 107.59 48.5022 106.67C50.0122 105.84 52.2622 105.87 52.4322 103.41C52.4322 103.36 52.5622 103.3 52.6322 103.29C53.7622 103.19 53.8222 102.19 54.2422 101.46C54.6222 100.81 55.2222 100.28 55.7022 99.68C55.8922 99.44 56.1422 99.18 56.1822 98.9C56.3522 97.65 56.7022 96.36 56.5022 95.16C56.3322 94.12 56.3922 93.03 56.1622 92.11C55.8822 91.02 56.0222 90.17 56.2922 89.21C56.3722 88.92 56.4022 88.5 56.2522 88.3C54.7722 86.34 55.4022 83.58 53.7122 81.72C52.9322 78.02 50.8322 75.2 48.1322 72.59C44.9522 69.51 41.0722 68.82 36.9922 68.39C36.7622 68.37 36.5222 68.44 36.2922 68.51C33.1922 69.38 29.9522 69.93 27.4522 72.22C26.1422 72.24 25.9222 73.27 25.4222 74.2C24.8822 75.22 24.9522 76.09 25.2122 77.14C25.6622 78.95 26.1722 80.82 26.1622 82.65C26.1522 85 26.2422 86.22 27.6522 88.46C27.7622 88.64 27.7522 88.9 27.7622 89.13C27.7722 89.76 27.7622 90.38 27.7622 91.01V91.03ZM109.692 80.63C109.792 80.65 109.892 80.68 109.992 80.7C109.962 80.94 109.962 81.18 109.902 81.41C109.472 83.04 110.802 83.91 111.622 84.85C111.952 85.23 113.202 84.9 114.012 84.77C114.632 84.67 115.262 84.46 115.812 84.16C116.282 83.91 116.772 83.53 117.022 83.08C118.102 81.19 119.462 79.69 121.652 79.09C121.862 79.03 122.142 78.86 122.212 78.68C122.852 76.82 124.412 75.84 125.862 74.75C126.062 74.6 126.252 74.08 126.192 74.01C125.492 73.36 126.012 73.21 126.512 72.83C128.782 71.11 130.562 68.84 131.922 66.44C133.242 64.12 134.872 62.02 136.122 59.67C136.672 58.64 137.642 57.77 136.752 56.46C136.642 56.29 136.782 55.7 136.902 55.67C138.522 55.23 137.712 53.1 139.092 52.49C139.122 52.48 138.912 51.49 138.652 51.39C138.182 51.22 137.432 51.17 137.082 51.44C135.632 52.57 133.092 51.43 132.242 53.77C132.212 53.84 131.812 53.74 131.592 53.78C131.002 53.91 130.402 54.02 129.842 54.22C128.822 54.58 127.842 55.09 126.802 55.37C126.152 55.55 125.732 55.74 125.302 56.32C124.642 57.21 123.772 58.01 122.832 58.6C121.962 59.15 120.992 59.48 120.092 60.08C118.852 60.91 117.422 61.38 116.602 62.8C115.872 64.07 115.072 65.32 114.122 66.42C113.342 67.33 112.662 68.19 112.642 69.45C112.642 69.73 112.342 70 112.162 70.27C111.542 71.18 110.862 72.06 110.312 73C109.822 73.83 109.422 74.76 110.152 75.66C110.762 76.41 110.492 77.15 110.302 77.92C110.082 78.81 109.902 79.71 109.702 80.6L109.692 80.63Z" fill="#242E54"/>
<path d="M47.2127 200.91C47.1427 201.2 47.1327 201.62 46.9627 201.96C46.5227 202.8 45.6827 202.92 45.0327 202.22C43.6327 200.73 43.4027 198.86 43.5127 196.94C43.5627 196.15 43.6027 195.46 43.2927 194.66C42.6527 192.96 43.2327 191.22 43.5927 189.53C43.7427 188.82 44.9027 188.76 45.2827 189.43C45.6327 190.05 45.9827 190.72 46.0827 191.41C46.5127 194.54 46.8427 197.68 47.2227 200.92L47.2127 200.91Z" fill="#242E54"/>
<path d="M55.8729 187.25C56.0029 185.61 56.113 183.97 56.293 182.34C56.343 181.9 56.533 181.41 56.823 181.09C57.303 180.55 58.173 180.84 58.223 181.55C58.293 182.65 58.183 183.76 59.033 184.67C59.153 184.8 59.153 185.16 59.063 185.35C58.263 187.09 58.973 188.77 59.193 190.48C59.313 191.41 59.2829 192.38 59.1529 193.3C59.0329 194.16 58.2729 194.43 57.5829 193.97C56.4929 193.25 55.473 190.67 55.753 189.35C55.903 188.66 56.053 187.97 56.193 187.28C56.083 187.27 55.9829 187.25 55.8729 187.24V187.25Z" fill="#242E54"/>
<path d="M40.9228 211.75C41.7128 211.62 42.6728 211.27 42.9528 212.32C43.2328 213.33 42.3228 213.82 41.5228 214.23C40.0428 215 38.5928 215.85 36.7928 215.27C35.9528 215 35.7528 214.63 36.3128 213.9C37.4628 212.37 39.1028 211.88 40.9128 211.76L40.9228 211.75Z" fill="#242E54"/>
</svg>
