<svg width="690" height="405" viewBox="0 0 690 405" fill="none" xmlns="http://www.w3.org/2000/svg">
<path d="M53.8004 267.61C53.8404 267.51 53.9404 267.26 54.0104 267C54.0804 266.73 54.0804 266.52 53.8604 266.25C53.6304 265.96 53.3804 265.77 53.1104 265.55C52.5504 265.1 51.8904 265.08 51.3204 264.69C51.0704 264.52 50.7903 264.4 50.6003 264.11C50.4803 263.92 50.3303 263.83 50.1603 263.89C50.0303 263.94 49.8703 264.11 49.7903 263.92C49.6703 263.63 49.3004 263.62 49.3004 263.21C49.3004 262.9 49.1304 262.74 48.8704 262.74C48.4804 262.74 48.1804 262.53 47.9504 262.16C47.9104 262.09 47.8504 261.99 47.8104 261.99C47.4004 261.97 47.0704 261.58 46.6404 261.62C46.3804 261.64 46.1103 261.55 46.0403 261.14C45.9803 260.82 45.7303 260.78 45.5403 260.7C45.3603 260.63 45.2404 260.57 45.2104 260.32C45.2104 260.25 45.0604 260.12 45.0104 260.13C44.7104 260.2 44.5504 259.95 44.3204 259.81C44.0404 259.63 43.7804 259.42 43.5204 259.22C43.4404 259.16 43.3303 259.12 43.2803 259.03C43.0503 258.59 42.7103 258.52 42.3403 258.51C42.0903 258.51 41.8604 258.48 41.7504 258.13C41.7404 258.08 41.6904 258.01 41.6504 258.01C41.1104 257.97 40.7904 257.26 40.2404 257.28C39.9904 257.28 39.9703 256.93 39.7903 256.89C39.6103 256.85 39.4103 256.93 39.2303 256.89C39.1003 256.86 38.9904 256.7 38.8704 256.6C38.7504 256.5 38.6404 256.36 38.5204 256.32C38.2604 256.24 38.0904 256.17 38.2104 255.78C38.2604 255.63 38.0503 255.44 37.9103 255.52C37.6103 255.71 37.3904 255.55 37.1304 255.35C36.8904 255.17 36.6004 255.09 36.3304 254.97C36.1104 254.88 35.8403 254.91 35.7903 254.51C35.7903 254.45 35.6404 254.38 35.5504 254.35C35.3904 254.29 35.2204 254.22 35.0604 254.21C34.4604 254.16 34.0204 253.78 33.6104 253.29C33.5404 253.21 33.4803 253.08 33.4103 253.05C32.9503 252.9 32.6204 252.49 32.2504 252.15C32.0304 251.95 31.8004 251.81 31.5204 251.8C31.2204 251.79 30.9603 251.65 30.7903 251.33C30.6303 251.03 30.2604 251.08 30.1104 250.72C30.0804 250.66 29.8504 250.72 29.7104 250.7C29.4504 250.68 29.1704 250.72 29.1204 250.26C29.1204 250.21 29.0703 250.15 29.0303 250.13C28.8303 250.05 28.6104 250.02 28.4304 249.9C28.2504 249.78 28.2004 249.45 27.9304 249.44C27.6804 249.44 27.4804 249.3 27.3204 249.04C27.2404 248.92 27.0804 248.83 26.9504 248.81C26.6604 248.75 26.4504 248.6 26.3104 248.29C26.2104 248.05 26.0704 248.03 25.8904 248.14C25.6304 248.29 25.4304 248.16 25.2504 247.92C25.1504 247.79 25.0304 247.68 24.9504 247.53C24.7304 247.1 24.4403 246.84 24.0303 246.81C23.7903 246.79 23.7404 246.48 23.5804 246.41C23.3704 246.32 23.2504 246.23 23.2604 245.94C23.2604 245.88 23.0604 245.71 23.0004 245.74C22.8204 245.82 22.6604 245.83 22.4604 245.83C21.9904 245.81 21.6604 245.63 21.3804 245.13C21.1504 244.72 20.7803 244.42 20.3403 244.41C20.1003 244.41 19.9304 244.26 19.7704 244.1C19.3004 243.62 19.3003 243.63 18.7903 243.51C18.4403 243.42 18.1203 243.22 17.8503 242.89C17.7703 242.79 17.6903 242.64 17.5903 242.61C17.2903 242.52 16.9803 242.52 16.7903 242.1C16.7403 242 16.5104 241.93 16.4004 241.97C16.1204 242.07 16.0704 241.69 15.8704 241.64C15.6904 241.6 15.4804 241.64 15.3104 241.56C15.1104 241.47 14.8403 241.34 14.7803 241.15C14.6603 240.75 14.4003 240.73 14.1603 240.62C13.9103 240.5 13.6403 240.45 13.4703 240.16C13.4403 240.12 13.3803 240.06 13.3503 240.07C12.9103 240.2 12.6004 239.73 12.2104 239.67C12.0604 239.65 11.8704 239.73 11.7404 239.83C11.6404 239.91 11.5404 240.08 11.6504 240.27C11.9004 240.74 12.1404 241.23 12.6204 241.42C12.8004 241.49 12.9204 241.61 12.8604 241.87C12.8304 242 12.9104 242.08 13.0104 242.11C13.1304 242.15 13.2504 242.17 13.3604 242.23C13.4404 242.28 13.5604 242.39 13.5604 242.46C13.5404 242.85 13.6604 242.89 13.9404 242.81C14.1804 242.74 14.4203 242.9 14.5903 243.12C14.8603 243.48 15.2004 243.68 15.5604 243.87C15.8204 244.01 16.0504 244.25 16.3004 244.44C16.5204 244.61 16.7604 244.75 16.9804 244.94C17.2204 245.15 17.5503 244.95 17.7803 245.28C17.9703 245.54 18.2303 245.71 18.4703 245.92C18.5103 245.96 18.5603 245.98 18.5903 246.03C18.8203 246.5 19.1804 246.57 19.5704 246.57C19.8404 246.57 20.0303 246.68 20.1003 247.04C20.1603 247.38 20.4104 247.49 20.6504 247.49C20.8504 247.49 20.9703 247.58 21.0903 247.74C21.1403 247.8 21.2204 247.91 21.2504 247.89C21.5104 247.73 21.6203 247.97 21.7803 248.15C22.0603 248.47 22.3404 248.82 22.7704 248.77C23.2404 249.21 23.8804 249.32 24.2404 250.01C24.4004 250.31 24.7104 250.5 24.9604 250.74C24.9904 250.77 25.0503 250.78 25.1003 250.78C25.6203 250.74 26.0004 251.14 26.3804 251.49C26.6304 251.73 26.8604 251.94 27.2004 252C27.5004 252.05 27.7703 252.24 27.9703 252.6C28.1703 252.96 28.4003 253.32 28.8403 253.21C29.2803 253.66 29.8503 253.73 30.3503 254.01C30.5303 254.11 30.6904 254.36 30.7704 254.59C30.9104 254.98 31.1504 255.17 31.4404 255.27C31.7004 255.37 31.9604 255.62 32.2604 255.42C32.3004 255.4 32.3804 255.46 32.4404 255.49C32.5404 255.56 32.6404 255.67 32.7504 255.69C32.9404 255.73 33.1403 255.67 33.2803 255.89C33.4703 256.18 33.7904 256.33 33.8904 256.73C33.9104 256.82 34.0204 256.98 34.0604 256.97C34.3804 256.88 34.5904 257.35 34.9304 257.25C35.0504 257.21 35.2404 257.37 35.3704 257.48C35.5204 257.62 35.6704 257.79 35.7704 257.98C35.8804 258.2 36.0303 258.31 36.2203 258.38C36.4003 258.45 36.5804 258.56 36.7404 258.68C36.8504 258.75 36.9304 258.86 37.0704 258.78C37.3004 258.64 37.4804 258.8 37.6504 258.98C37.7804 259.12 37.9203 259.24 38.0303 259.39C38.1903 259.62 38.3704 259.8 38.6104 259.9C38.7204 259.94 38.8403 260.03 38.9103 260.13C39.1003 260.41 39.3404 260.5 39.6104 260.5C40.1404 260.5 40.5804 260.72 40.9004 261.29C41.1004 261.64 41.4404 261.78 41.7404 261.97C41.8304 262.02 41.9404 262.02 42.0104 262.1C42.1504 262.27 42.0504 262.75 42.4604 262.57C42.6904 262.47 42.8604 262.74 43.0604 262.8C43.2904 262.86 43.4904 263.04 43.7504 263.02C44.1004 263 44.2304 263.2 44.3104 263.64C44.3604 263.97 44.3704 263.96 44.7604 264.05C44.8604 264.07 44.9604 264.18 45.0504 264.27C45.1504 264.39 45.2304 264.54 45.3304 264.67C45.4304 264.8 45.5503 264.86 45.7203 264.85C46.0503 264.84 46.3704 264.89 46.6104 265.25C46.6504 265.32 46.7203 265.38 46.7803 265.41C47.0303 265.52 47.2904 265.58 47.5204 265.71C47.7504 265.84 47.9504 266.05 48.1804 266.21C48.4004 266.36 48.7004 266.31 48.8304 266.67C48.8604 266.75 49.0504 266.75 49.1504 266.81C49.3004 266.9 49.5004 266.97 49.5704 267.12C49.7804 267.56 50.0304 267.56 50.3604 267.41C50.5404 267.33 50.9904 267.62 51.0804 267.85C51.1004 267.91 51.0703 268.01 51.0403 268.08C50.9503 268.32 50.9704 268.44 51.1204 268.5C51.1704 268.52 51.2204 268.55 51.2604 268.54C51.4404 268.52 51.6403 268.41 51.7903 268.48C51.9103 268.53 51.9404 268.83 52.0504 268.98C52.1104 269.06 52.2704 269.06 52.3704 269.04C52.4504 269.02 52.5404 268.92 52.5804 268.83C52.6604 268.66 52.7404 268.56 52.8904 268.76C53.4804 268.81 53.7804 268.5 53.8704 267.59L53.8004 267.61Z" fill="#242E54"></path>
<path d="M526.351 6.40983C526.161 7.50983 526.351 9.04984 526.431 10.6098C526.501 11.9498 526.551 13.2498 526.381 14.6698C526.251 15.7498 526.331 16.9298 526.321 18.0598C526.321 18.4398 526.421 18.9498 526.351 19.1598C525.671 21.0898 526.191 22.8498 526.261 24.6498C526.321 26.1398 526.551 27.5398 526.021 29.0198C525.791 29.6698 525.891 30.4498 526.121 31.0998C526.621 32.5398 526.691 34.1298 526.221 35.9498C526.041 36.6298 526.001 37.3698 526.281 38.0398C526.711 39.0698 526.951 40.2598 526.411 41.7198C526.381 44.0098 526.311 46.2998 526.321 48.5698C526.331 50.8198 526.571 53.0498 526.131 55.3298C525.961 56.2398 526.471 56.9498 526.121 58.0998C525.961 58.6298 526.191 59.7598 526.241 60.6198C526.281 61.2398 526.391 61.8898 526.331 62.4798C526.081 65.0798 526.251 67.5698 526.311 70.0898C526.331 70.9398 526.161 71.8498 526.121 72.7298C526.081 73.8198 525.871 74.9498 526.221 75.9798C526.351 76.3598 526.351 77.2898 526.241 77.7898C525.881 79.4298 525.931 80.7598 526.481 81.8398C526.831 82.5298 526.781 83.2298 526.561 84.1798C526.181 85.8098 526.031 88.6798 526.161 90.3398C526.261 91.5698 526.341 92.7998 526.411 94.0498C526.441 94.5498 526.511 95.2698 526.411 95.5398C525.881 96.8798 525.801 98.0898 526.041 99.7398C526.221 100.95 526.091 102.48 526.081 103.87C526.081 104.88 526.151 105.98 525.991 106.87C525.691 108.57 526.181 110.39 525.581 111.96C526.101 113.28 525.731 115.14 525.931 116.65C526.161 118.41 526.091 120.34 526.171 122.17C526.241 123.85 525.951 125.72 525.761 127.48C525.631 128.65 525.511 129.67 525.861 130.7C526.171 131.61 526.111 132.84 525.991 134.01C525.751 136.3 525.741 138.5 525.941 140.75C526.131 142.81 526.371 145.11 526.151 147.13C525.721 150.99 526.101 154.69 525.821 158.47C525.771 159.19 525.851 159.94 525.871 160.68C525.891 161.3 525.941 161.91 525.941 162.54C525.941 164.09 525.551 165.56 525.711 167.21C525.861 168.77 525.761 170.51 525.851 172.14C526.011 175.2 525.861 178.25 525.511 181.29C525.421 182.09 525.461 182.72 525.511 183.48C525.681 186.8 525.771 190.16 525.891 193.51C525.431 195.5 525.821 197.43 525.731 199.4C525.711 199.9 525.741 200.53 525.631 200.87C525.321 201.76 525.381 202.52 525.531 203.37C525.681 204.21 525.661 205.04 525.411 205.93C525.331 206.23 525.401 206.82 525.451 207.23C525.551 207.92 525.851 208.66 525.781 209.22C525.491 211.38 525.841 213.22 525.921 215.21C526.001 217.07 525.851 219.04 525.781 220.96C525.671 223.99 525.511 227.03 525.451 230.05C525.411 231.68 525.461 233.3 525.581 234.93C525.731 236.96 525.511 239.21 525.441 241.37C525.421 242 525.271 242.81 525.381 243.21C525.861 244.98 525.261 247.3 525.751 249.04C525.821 249.28 525.761 249.81 525.711 250.17C525.261 253.08 525.381 255.9 525.531 258.76C525.581 259.7 525.411 260.74 525.451 261.69C525.591 264.87 525.451 268.14 525.631 271.31C525.691 272.4 525.621 273.61 525.521 274.74C525.291 277.33 525.411 279.84 525.451 282.37C525.481 284.14 525.551 285.9 525.601 287.66C525.601 287.91 525.621 288.19 525.591 288.42C525.441 289.37 525.151 290.31 525.121 291.24C525.091 292.21 525.401 293.17 525.381 294.15C525.321 296.98 525.381 299.73 525.601 302.46C525.661 303.23 525.441 304.19 525.341 305.07C525.161 306.73 525.011 308.32 525.391 309.9C525.561 310.6 525.471 311.64 525.541 312.49C525.631 313.59 525.711 314.71 525.891 315.71C525.981 316.19 526.291 316.73 526.501 316.67C526.681 316.62 526.961 315.84 527.021 315.3C527.401 312.29 527.641 309.24 527.451 306.21C527.311 303.96 527.131 301.75 527.691 299.51C527.721 299.4 527.771 299.24 527.761 299.16C527.231 296.19 527.931 292.86 527.611 289.79C527.451 288.3 527.611 286.55 527.651 284.92C527.671 284.03 527.771 283.13 527.771 282.26C527.771 279.39 528.041 276.43 527.511 273.71C527.381 273.03 527.531 271.96 527.581 271.07C527.741 268.02 528.081 264.96 527.701 261.99C528.251 258.89 527.591 256.02 527.751 253.01C527.851 251.01 527.871 249.01 527.981 247C528.051 245.81 528.111 244.63 528.191 243.44C528.271 242.23 527.931 240.99 527.961 239.76C528.061 236.25 527.701 232.78 528.181 229.24C528.021 226.03 528.411 222.6 527.861 219.52C527.771 219.02 527.781 218.19 527.901 217.71C528.261 216.24 528.521 214.88 528.071 213.44C528.021 213.29 528.091 212.95 528.091 212.7C528.091 211.17 528.251 209.71 528.451 208.18C528.611 206.99 528.041 205.62 528.581 204.26C528.511 202.94 528.471 201.6 528.361 200.31C528.261 199.18 528.091 198.13 528.601 197.13C528.661 197.01 528.701 196.55 528.661 196.45C528.181 195.33 528.461 193.86 528.461 192.53C528.461 191.16 528.351 189.8 528.711 188.45C528.771 188.22 528.621 187.75 528.611 187.37C528.601 184.61 528.301 181.9 528.651 179.08C528.661 178.96 528.651 178.82 528.641 178.7C528.231 175.16 528.371 171.53 528.761 167.87C528.791 167.63 528.821 167.27 528.761 167.13C528.211 165.64 528.501 163.86 528.561 162.11C528.621 160.34 528.451 158.57 528.511 156.8C528.591 154.37 528.581 152.03 528.391 149.66C528.251 147.89 528.241 145.86 529.031 144.34C529.101 144.2 529.141 143.59 529.081 143.48C528.821 142.94 528.721 142.41 528.851 141.5C529.061 140.05 528.451 138.55 529.051 137.09C528.971 135.82 528.631 134.81 528.591 133.43C528.551 132.27 528.501 131.23 528.701 130.08C529.101 127.84 529.171 125.56 528.821 123.43C528.591 122.02 528.711 120.62 528.921 119.3C529.221 117.49 529.231 115.83 528.981 114.15C528.951 113.92 528.881 113.66 528.901 113.44C529.211 110.1 528.871 106.94 528.811 103.7C528.811 103.34 528.811 102.86 528.901 102.61C529.501 100.88 529.281 99.1098 529.071 97.5098C528.791 95.3998 528.771 93.3498 528.991 91.1198C529.091 90.0498 528.881 88.8898 528.951 87.7998C529.031 86.7298 529.121 85.9898 528.731 85.1098C528.411 84.3798 528.491 82.9598 528.771 81.8498C529.141 80.3798 529.111 78.8998 529.101 77.3498C529.101 75.3298 529.221 73.2898 529.251 71.2598C529.291 68.4798 528.891 65.7898 529.331 62.9098C529.411 62.3998 529.221 61.7198 529.171 61.0998C529.131 60.6098 529.041 59.9998 529.131 59.6198C529.741 56.9698 529.241 54.6098 529.091 52.1798C529.031 51.1498 528.871 50.0698 529.181 49.2198C529.631 47.9598 529.371 46.9398 529.331 45.7398C529.281 44.2198 528.781 42.6598 529.471 41.0598C529.551 40.8798 529.551 40.2298 529.471 40.0398C528.841 38.4298 529.401 36.4298 529.351 34.6398C529.321 33.4598 529.751 31.9098 529.581 31.0098C529.351 29.7798 529.621 28.7698 529.601 27.6798C529.571 26.4198 529.531 25.1798 529.521 23.9198C529.521 22.9098 529.571 21.8898 529.571 20.8798C529.571 19.8798 529.551 18.8898 529.521 17.8998C529.501 17.2698 529.391 16.6098 529.461 16.0198C529.871 12.4398 529.461 8.89984 529.791 5.36984C529.951 3.62984 529.541 3.03984 529.151 2.13984C528.841 1.42984 528.571 1.22984 528.151 1.63984C527.891 1.88984 527.611 2.00984 527.341 2.18984C527.041 2.39984 526.661 1.51984 526.441 2.46984C526.301 3.10984 526.361 3.95984 526.351 4.71984C526.351 5.09984 526.351 5.47984 526.361 6.39984L526.351 6.40983Z" fill="#242E54"></path>
<path d="M0.0203781 203.45C-0.0596219 202.45 0.260351 202.04 0.680351 201.92C0.780351 202.05 0.880339 202.19 0.980339 202.35C1.08034 202.51 1.39033 202.66 1.60033 202.78C2.13033 203.08 2.67037 203.38 3.20037 203.66C3.93037 204.05 5.17032 205.03 5.84032 205.84C6.23032 206.32 6.54038 206.58 6.90038 206.5C7.47038 206.38 8.08034 206.76 8.79034 207.58C9.01034 207.83 9.44037 208.13 9.64037 208.14C10.1704 208.18 10.6804 208.72 11.1904 209.11C11.6104 209.43 12.0204 209.88 12.4304 210.15C13.6804 210.95 14.9404 211.66 16.2104 212.77C16.5004 213.03 16.8504 213.16 17.1804 213.35C17.6304 213.61 18.2604 213.82 18.5104 214.15C19.0504 214.87 19.5203 214.68 19.9703 215.17C21.1203 216.4 22.3804 217.03 23.6304 217.88C24.9104 218.75 26.2103 219.72 27.5303 220.66C28.2803 221.74 29.0303 222.01 29.7403 222.05C30.2003 222.07 30.6404 222.42 31.0204 222.87C32.0304 224.08 33.0303 224.7 34.0503 224.85C34.5103 224.92 35.0304 225.17 35.3904 225.67C36.2204 226.82 37.1903 227.23 38.1803 227.85C39.3903 228.61 40.7103 228.93 41.8603 230.49C41.9903 230.66 42.3704 230.81 42.6304 230.99C43.4204 231.54 44.2704 232.04 45.0004 232.69C45.9704 233.56 46.9203 234.17 47.9203 234.77C49.1003 235.49 50.3103 236.09 51.0903 236.86C51.8003 237.34 52.0904 237.52 52.3804 237.73C52.9604 238.15 53.6503 238.55 54.1003 239.03C54.7803 239.75 53.9703 239.65 54.0403 240.07C54.1103 240.44 54.1103 240.78 54.2303 241.17C54.4203 241.81 54.1803 241.97 53.5303 241.88C52.7103 241.77 52.1403 241.85 50.8603 240.75C48.3103 238.57 45.6403 237.13 43.2203 234.95C42.8303 234.6 42.3404 234.38 41.9004 234.08C41.2104 233.62 40.5303 233.17 39.8603 232.69C39.1903 232.21 38.5203 231.68 37.8603 231.21C37.0303 230.63 36.2104 230.1 35.4004 229.55C34.7004 229.08 34.1303 228.37 33.3003 228.04C32.7003 227.8 31.8504 226.73 31.1204 226.25C30.0304 225.53 28.9504 224.18 27.8704 224.07C27.7404 224.06 27.3703 223.79 27.2803 223.64C26.4903 222.37 25.5004 222.18 24.6204 221.62C23.9404 221.18 23.3304 221.01 22.7104 220.12C22.3004 219.52 21.6803 219.24 21.1103 218.9C19.7803 218.11 18.4504 217.66 17.1804 216.16C17.0004 215.95 16.6703 215.81 16.4203 215.66C16.1003 215.48 15.7203 215.4 15.4803 215.15C14.1203 213.76 12.7304 213.16 11.4004 212.19C10.4404 211.49 9.50037 210.71 8.57037 210.05C7.86037 209.55 7.18038 209.1 6.58038 208.34C6.12038 207.76 5.50037 207.25 5.14037 207.29C4.70037 207.33 4.39036 207.03 3.94036 206.64C3.48036 206.25 2.96037 206.07 2.51037 205.67C1.67037 204.9 0.880366 204.35 0.0703659 203.97C0.0403659 203.79 0.0203586 203.61 0.000358582 203.42L0.0203781 203.45Z" fill="#242E54"></path>
<path d="M127.26 233.9C129.08 230.85 130.25 227.49 132.18 224.44C132.5 223.94 132.68 223.29 132.94 222.72C133.35 221.82 133.76 220.91 134.19 220.01C134.63 219.1 135.12 218.21 135.55 217.3C136.09 216.16 136.59 215.01 137.11 213.87C137.56 212.88 138.25 212.09 138.57 210.88C138.81 209.99 139.87 208.79 140.35 207.71C141.08 206.08 142.45 204.51 142.58 202.79C142.6 202.59 142.88 202.01 143.03 201.88C144.34 200.73 144.57 199.11 145.18 197.72C145.66 196.63 145.86 195.59 146.82 194.65C147.46 194.02 147.8 192.97 148.19 192.02C149.11 189.77 149.68 187.42 151.38 185.3C151.62 184.99 151.8 184.41 151.98 183.95C152.21 183.37 152.32 182.68 152.62 182.25C154.27 179.85 155.08 177.25 156.31 174.77C157.21 172.95 158.21 171.17 159.08 169.35C159.75 167.96 160.36 166.6 161.33 165.44C162.07 164.56 162.75 163.31 162.78 162.52C162.81 161.56 163.21 160.93 163.75 160C164.29 159.05 164.6 157.91 165.16 156.99C166.33 155.07 167.2 153.22 167.86 151.2C168.36 149.66 168.93 147.97 170.23 146.68C170.42 146.49 170.64 146.06 170.79 145.73C172.13 142.79 173.2 139.79 174.93 136.92C175.05 136.73 175.09 136.47 175.16 136.24C175.66 134.62 176.4 133.13 177.45 131.63C178.21 130.54 178.92 129.33 179.33 127.95C179.95 125.88 180.99 123.86 182.33 122.01C183.02 121.06 183.42 120.1 183.89 119.04C184.45 117.78 184.58 116.73 185.06 115.54C186.24 114.48 186.34 112.86 187.16 111.65C187.67 110.88 187.81 110.36 187.81 109.76C187.81 109.63 188.1 109.11 188.23 109.01C189.6 107.98 190.47 106.15 191.11 104.49C191.96 102.27 192.96 100.16 194.09 98.01C194.91 96.44 195.52 94.78 196.35 93.21C197.17 91.65 198.2 90.17 198.35 88.6C198.36 88.45 198.55 88.14 198.68 87.93C200.62 84.8 202.32 81.59 203.49 78.22C203.53 78.11 203.58 77.97 203.64 77.87C205.18 75.47 206.09 72.9 207.27 70.41C207.43 70.07 207.49 69.58 207.65 69.4C208.56 68.34 209.06 67.08 209.65 65.84C210.22 64.63 211.11 63.43 211.17 62.22C211.17 62.12 211.41 61.71 211.52 61.63C212.41 60.96 212.71 59.93 213.11 58.87C213.57 57.66 214.11 56.43 214.62 55.22C215.7 54.23 215.78 52.75 216.44 51.75C217.29 50.47 218.05 49.21 218.72 47.84C218.83 47.61 219.04 47.33 219.06 47.18C219.28 45.68 220.1 44.57 221.06 43.4C221.38 43.02 221.74 42.27 221.88 41.78C222.72 38.77 224.56 35.85 225.8 32.88C227.77 29.9 228.95 26.62 230.56 23.5C231.13 22.4 231.36 21.14 231.95 20.08C232.54 19.04 233.11 18 233.69 16.96C234.66 15.2 235.55 13.4 236.51 11.64C237.95 9 238.61 6.11999 240.45 3.56999C240.86 2.34999 241.41 1.17 242 0H244.57C243.81 1.6 243.03 3.2 242.34 4.81C241.97 5.68 241.36 6.55 241 7.42C239.9 10.05 238.78 12.65 237.11 15.08C236.9 15.38 236.62 15.83 236.58 16.08C236.28 17.86 234.72 19.69 234.39 21.49C234.32 21.9 233.82 22.57 233.53 23.12C232.53 25.04 231.36 26.97 230.61 28.87C230.01 30.4 229.35 31.87 228.61 33.33C227.24 36.03 225.78 38.69 224.36 41.38C223.47 43.08 222.48 44.79 221.74 46.5C220.95 48.33 220.46 50.13 219.26 51.96C218.95 52.44 218.9 53.23 218.69 53.9C218.56 54.29 218.37 54.86 218.17 55.09C217.56 55.78 217.18 56.53 216.95 57.35C216.72 58.19 216.44 58.89 215.78 59.56C215.53 59.82 215.29 60.4 215.05 60.84C214.12 62.57 213.64 64.48 212.35 66.08C211 69.15 209.63 72.21 208.34 75.28C208.05 75.98 207.81 76.57 207.38 77.25C205.74 79.84 204.29 82.52 203.1 85.35C202.47 86.85 201.62 88.38 201.08 89.85C200.51 91.4 199.52 92.56 198.85 93.96C198.58 94.52 198.36 95.09 198.11 95.66C197.81 96.33 197.56 97.04 197.2 97.67C195.31 100.96 194.04 104.46 191.99 107.75C190.91 109.47 190.13 111.65 189.41 113.58C188.62 115.7 187.65 117.67 186.44 119.63C185.83 120.63 185.24 121.71 185.13 122.67C185 123.75 184.44 124.62 183.82 125.61C182.88 127.12 181.8 128.67 181.14 130.22C180.42 131.91 179.52 133.61 178.96 135.3C178.48 136.75 177.34 138.27 177.24 139.68C176.02 140.84 175.67 142.7 174.66 144.09C174.13 144.83 173.72 145.86 173.28 146.76C172.67 148.01 171.89 149.33 171.53 150.5C171.04 152.09 170.44 153.15 169.38 154.12C169.16 154.32 168.92 155 168.73 155.46C168.26 156.61 167.8 157.76 167.35 158.91C166.75 160.46 165.37 162.99 164.32 164.29C163.71 165.05 163.35 165.66 163.37 166.43C163.4 167.64 162.86 168.86 161.83 170.19C161.51 170.6 161.11 171.43 161.06 171.83C160.93 172.91 160.26 173.83 159.74 174.8C159.32 175.58 158.77 176.32 158.42 177.1C157.38 179.4 156.46 181.72 155.1 183.95C154.79 184.46 154.61 185.09 154.37 185.67C154.04 186.47 153.76 187.59 153.39 188C152.58 188.88 152.73 189.75 152.18 190.49C150.79 192.36 150.04 194.46 149.07 196.5C148.09 198.55 147.04 200.59 146.02 202.64C144.9 203.72 144.6 204.9 144.54 206.01C144.5 206.73 144.14 207.39 143.69 207.92C142.47 209.35 141.84 210.81 141.67 212.33C141.59 213.01 141.35 213.75 140.86 214.24C139.74 215.35 139.34 216.71 138.75 218.08C138.04 219.73 137.74 221.54 136.29 222.99C136.13 223.15 136 223.66 135.84 224C135.34 225.02 134.9 226.11 134.32 227.03C133.55 228.24 133.03 229.43 132.51 230.66C131.91 232.11 131.42 233.58 130.76 234.48C130.37 235.32 130.22 235.66 130.04 236C129.7 236.67 129.38 237.48 128.98 237.99C128.38 238.75 128.42 237.79 128.05 237.85C127.73 237.9 127.43 237.89 127.08 238C126.53 238.18 126.36 237.89 126.39 237.11C126.43 236.12 126.32 235.42 127.21 233.92L127.26 233.9Z" fill="#242E54"></path>
<path d="M317.34 312.69C317.79 308.54 317.31 304.44 317.39 300.34C317.5 295.08 317.28 289.79 317.87 284.53C317.39 281.79 318.48 278.87 317.64 276.17C317.56 275.92 317.51 275.59 317.56 275.33C318.26 271.51 317.62 267.68 317.9 263.85C318.25 259.07 318.09 254.25 318 249.5C317.94 245.99 318.29 242.5 318.13 239.02C318.08 238.04 318.03 237.06 318.02 236.07C317.98 233.42 317.58 230.76 318.38 228.13C318.53 227.65 318.44 227 318.42 226.44C318.34 222.34 318.25 218.25 318.17 214.16C318.17 213.73 318.1 213.27 318.18 212.88C318.74 210.36 318.46 207.82 318.51 205.28C318.51 204.99 318.61 204.69 318.57 204.43C317.78 199.23 318.52 193.9 318.34 188.64C318.25 185.94 318.45 183.21 318.51 180.49C318.55 178.68 319.18 176.78 318.3 175.09C318.8 173.02 318.39 170.93 318.47 168.84C318.67 164.13 318.72 159.42 318.81 154.71C318.83 153.57 318.75 152.43 318.7 151.3C318.68 150.88 318.46 150.32 318.58 150.06C319.58 147.84 318.81 145.7 318.71 143.51C318.61 141.24 318.61 138.94 318.71 136.66C318.89 132.55 318.88 128.46 318.77 124.37C319.9 121.13 318.71 118.03 318.7 114.87C318.7 114.61 318.44 114.31 318.48 114.11C318.97 111.91 319.08 109.83 318.73 107.48C318.44 105.57 318.97 103.32 319.21 101.24C319.36 99.9601 319.6 98.7201 319.19 97.4801C319.11 97.2401 319.07 96.9201 319.1 96.6501C319.27 94.9801 319.87 93.1001 319.56 91.6901C319.21 90.0701 319.02 88.4201 318.77 86.7801C318.71 86.4001 318.68 85.7101 318.82 85.5901C320.06 84.4201 319.18 83.1701 319.09 81.8801C318.92 79.4901 318.97 77.0601 318.92 74.6501C318.81 70.2401 319.23 65.8101 318.92 61.4101C318.92 61.2701 318.88 61.1101 318.92 60.9801C319.73 57.8801 318.85 54.9001 318.86 51.8601C318.86 49.7501 318.52 47.6001 319.23 45.5301C319.36 45.1601 319.46 44.6201 319.38 44.2701C318.86 42.0801 319.16 39.8201 319.1 37.5901C319.04 35.4901 319.39 33.4101 319.15 31.2901C318.9 29.0801 319.05 26.7601 319.08 24.4801C319.08 23.9601 319.38 23.4501 319.41 22.9201C319.49 21.7101 319.66 20.4201 319.48 19.2801C319.16 17.2001 318.58 15.2101 319.53 13.1101C319.26 9.74013 319.03 6.37012 318.71 3.02012C318.61 2.00012 318.03 1.80013 317.36 2.00013C316.81 2.16013 316.62 2.53013 316.51 3.40013C316.16 6.24013 315.95 9.06013 316.03 11.9501C316.1 14.4801 316.54 17.0501 315.85 19.5901C316.57 24.0401 315.26 28.6701 316.1 33.1101C316.18 33.5101 316.21 33.9901 316.14 34.3901C315.59 37.3701 316.09 40.3401 315.89 43.3201C315.83 44.1701 315.67 45.0901 315.81 45.8701C316.31 48.5501 316.4 51.1801 315.64 53.8401C315.57 54.1001 315.53 54.4101 315.54 54.6801C315.66 57.9201 315.96 61.1301 315.66 64.4201C315.56 65.5201 315.82 66.6801 315.86 67.8101C315.9 68.7701 315.41 69.5401 315.56 70.6901C315.8 72.4201 315.46 74.3301 315.61 76.1101C315.75 77.8301 315.76 79.4701 315.47 81.1701C315.35 81.8401 315.42 82.5901 315.49 83.2801C315.77 86.2601 315.72 89.2501 315.4 92.2301C314.93 96.6501 315.37 100.93 315.78 105.23C315.85 105.92 315.92 106.63 315.88 107.33C315.37 115.04 315.2 122.74 315.48 130.44C315.51 131.27 315.34 132.14 315.41 132.96C315.59 135.25 314.86 137.64 315.68 139.89C315.91 140.53 315.8 141.53 315.72 142.35C315.57 143.77 315.32 145.17 315.09 146.57C314.86 147.97 314.53 149.29 315.18 150.68C315.47 151.29 315.42 152.32 315.4 153.16C315.37 154.85 315.11 156.57 315.22 158.22C315.5 162.46 314.77 166.79 315.52 170.97C315.57 171.24 315.64 171.56 315.59 171.81C315 174.87 315.1 177.9 315.21 181.03C315.36 185.12 315.18 189.26 315.38 193.36C315.52 196.21 315.82 199.01 314.8 201.73C314.71 201.97 314.61 202.41 314.68 202.53C315.72 204.14 315.06 205.98 315 207.79C314.94 209.62 315.22 211.46 315.35 213.29C315.37 213.57 315.31 213.88 315.35 214.15C315.55 215.36 314.34 215.98 314.73 217.32C314.99 218.21 315.21 219.2 315.22 220.16C315.23 221.85 315.06 223.56 314.98 225.26C314.93 226.24 314.63 227.5 314.92 228.15C316.03 230.66 315.53 233.42 315.39 236.01C315.13 240.58 315.14 245.11 315.25 249.67C315.31 252.21 315.11 254.77 315.11 257.31C315.11 259.97 315.21 262.62 315.27 265.28C315.29 266.13 315.52 267.08 315.32 267.81C314.82 269.67 315.15 271.48 315.08 273.31C315.01 275.25 315.75 277.22 314.85 279.15C314.72 279.43 314.85 279.98 314.88 280.39C314.98 282.07 315.15 283.75 315.19 285.44C315.23 287.08 315.11 288.73 315.11 290.37C315.11 294.08 315.15 297.78 315.15 301.48C315.15 302.61 315.02 303.75 314.99 304.88C314.91 308.86 315.31 312.77 315.61 316.69C315.66 317.36 315.46 318.66 316.3 318.63C316.52 318.63 316.86 317.54 316.96 316.9C317.17 315.51 317.25 314.1 317.38 312.69H317.34Z" fill="#242E54"></path>
<path d="M644.62 146.86C644.66 147.76 644.71 148.65 644.73 149.55C644.77 152.53 644.79 155.52 644.84 158.5C644.89 161.72 644.98 164.93 645.02 168.15C645.04 169.29 645 170.44 644.95 171.58C644.93 172.16 644.71 172.74 644.77 173.3C645.16 176.85 645.04 180.39 644.92 183.94C644.82 186.92 644.79 189.89 644.76 192.87C644.75 194.37 644.84 195.87 644.85 197.36C644.86 200.23 644.83 203.11 644.85 205.98C644.87 208.05 644.95 210.12 644.97 212.19C645.01 215.74 644.87 219.3 645.1 222.84C645.42 227.66 644.93 232.47 645.24 237.3C645.48 241.17 645.03 245.09 644.88 248.99C644.88 249.21 644.65 249.46 644.7 249.63C645.4 251.76 644.89 253.96 645.07 256.07C645.26 258.25 645.19 260.44 645.22 262.58C645.26 265.16 645.73 267.79 644.96 270.43C644.54 271.89 645.01 273.6 645.03 275.19C645.07 278.76 644.85 282.35 645.18 285.89C645.44 288.65 644.54 291.42 645.4 294.14C644.78 297.49 645.48 300.8 645.63 304.12C645.69 305.37 645.47 306.64 645.29 307.89C645.12 309.12 646.25 310.36 645.22 311.57C645.88 313.48 645.68 315.43 645.56 317.38C645.56 317.51 645.91 317.79 646.05 317.76C646.36 317.7 646.88 317.5 646.89 317.33C647.04 315.4 647.17 313.46 647.2 311.52C647.24 308.54 647.19 305.56 647.2 302.58C647.2 302.12 647.42 301.65 647.37 301.21C646.92 296.85 647.72 292.5 647.44 288.13C647.22 284.81 647.29 281.46 647.41 278.12C647.46 276.86 647.64 275.64 647.33 274.39C647.2 273.86 647.26 273.24 647.42 272.71C647.73 271.67 647.69 270.7 647.4 269.65C647.16 268.78 647.08 267.84 647.1 266.93C647.21 260.52 647.37 254.1 647.49 247.69C647.5 247.01 647.32 246.32 647.24 245.64C647.12 244.5 646.92 243.35 647.45 242.24C647.55 242.03 647.66 241.78 647.62 241.58C647.43 240.35 646.88 239.07 647.08 237.92C647.3 236.66 647.74 235.53 647.24 234.23C647 233.62 647.03 232.87 647.06 232.18C647.41 225.86 647.29 219.53 647.23 213.2C647.17 207 647.61 200.79 647.46 194.6C647.36 190.47 647.59 186.33 647.23 182.2C647.06 180.28 647.42 178.32 647.45 176.38C647.47 174.55 647.35 172.72 647.31 170.89C647.29 169.86 647.33 168.83 647.34 167.8C647.34 166.77 647.36 165.75 647.35 164.72C647.35 164.26 647.17 163.76 647.29 163.34C648.01 160.94 647.31 158.54 647.23 156.17C647.13 153.52 647.43 150.9 647.33 148.26C647.29 147.01 647.23 145.76 647.26 144.52C647.35 140.4 647.48 136.28 647.57 132.15C647.58 131.58 647.59 130.95 647.39 130.44C646.57 128.4 647.22 126.32 647.15 124.27C647.12 123.36 647.35 122.44 647.32 121.52C647.25 119.58 647.29 117.65 647.44 115.7C647.64 113.08 647.47 110.43 647.44 107.8C647.44 107.22 647.21 106.6 647.37 106.08C648 103.94 647.52 101.81 647.46 99.6702C647.4 97.6002 647.6 95.5302 647.77 93.4602C647.86 92.3502 646.78 91.3602 647.7 90.1402C648.52 89.0502 647.25 87.9902 647.28 86.8602C647.35 84.5702 647.48 82.2802 647.48 79.9902C647.46 74.4802 647.96 68.9602 647.41 63.4502C648.12 60.0502 646.91 56.5802 647.86 53.1502C648.18 52.0002 647.74 50.6502 647.67 49.3902C647.54 47.2402 647.3 45.1202 647.69 42.9402C648.05 40.9402 647.99 38.8602 648.08 36.8102C648.09 36.5002 647.96 36.1402 647.79 35.8702C646.98 34.6102 647.38 33.3902 647.97 32.2502C648.42 31.3802 648.54 30.6302 648.29 29.6402C648.02 28.5502 648.07 27.3602 648.1 26.2202C648.13 25.3502 648.47 24.4902 648.47 23.6202C648.47 22.7202 648.1 21.8102 648.11 20.9102C648.19 16.7702 648.37 12.6302 648.48 8.5002C648.53 6.8002 648.59 5.09019 648.47 3.40019C648.36 1.88019 646.55 0.940191 645.09 1.38019C644.12 1.67019 643.62 2.4502 643.02 3.1102C642.53 3.6502 642.8 4.35019 642.91 5.05019C643.18 6.75019 643.31 8.49019 643.32 10.2102C643.32 12.6102 643.14 15.0002 643.89 17.3402C644.03 17.7602 644.06 18.3002 643.92 18.7202C642.94 21.5702 643.8 24.4502 643.76 27.3102C643.73 29.0802 643.61 30.8402 644.2 32.6902C644.73 34.3402 644.14 36.3302 644.11 38.1702C644.08 40.0902 643.75 41.9902 644.16 43.9502C644.5 45.6102 644.62 47.4202 644.33 49.0802C643.87 51.7202 644.58 54.2902 644.37 56.9202C644.13 59.9902 644.4 63.0902 644.23 66.1702C644.01 70.0402 644.63 73.8802 644.54 77.7402C644.5 79.3402 644.36 80.9502 644.46 82.5502C644.71 86.5702 644.52 90.5802 644.55 94.5902C644.59 100.68 644.4 106.78 644.88 112.86C644.93 113.52 644.68 114.2 644.58 114.87C644.49 115.55 644.18 116.31 644.38 116.89C645.42 119.88 644.17 123.03 645.13 126.03C645.36 126.74 644.97 127.62 644.93 128.43C644.83 130.37 644.19 132.32 644.98 134.26C645.06 134.46 645.07 134.73 645.02 134.94C644.2 138.34 644.73 141.74 644.99 145.14C645.03 145.7 644.88 146.27 644.82 146.84C644.76 146.84 644.69 146.84 644.63 146.84L644.62 146.86Z" fill="#242E54"></path>
<path d="M36.4305 211.2C35.9005 210.93 35.5204 210.35 34.9804 210.08C34.5004 209.84 33.7805 210.1 33.6105 209.2C33.5805 209.07 33.4605 209.1 33.3705 209.08C32.9305 208.2 32.5305 207.28 32.1905 206.29C32.1105 206.04 32.0305 205.79 31.9605 205.52C32.2005 205.64 32.4405 205.75 32.7105 205.8C32.8405 205.82 32.8704 206.08 32.9704 206.17C33.1704 206.36 33.3704 206.54 33.5904 206.68C34.2104 207.06 34.8504 207.41 35.4704 207.79C36.0504 208.14 36.6205 208.52 37.1905 208.87C37.3605 208.98 37.5505 209.05 37.7405 209.13C37.7205 209.18 37.6904 209.23 37.6704 209.29C37.7504 209.42 37.8004 209.62 37.9204 209.65C38.6604 209.88 39.5005 209.89 39.8305 211.01C39.8505 211.08 39.9004 211.11 39.9704 211.07C40.6304 210.67 40.7604 211.45 41.0904 211.79C41.2304 211.93 41.2505 212.36 41.4605 212.27C42.3905 211.88 42.5105 213.31 43.4605 212.85C43.6505 212.76 43.6705 213.11 43.7605 213.28C43.8505 213.44 43.8804 213.74 44.0304 213.79C45.3604 214.19 46.4304 215.14 47.5904 215.9C48.3504 216.4 49.0405 217.08 49.8905 217.4C50.2305 217.53 50.4705 217.86 50.7605 218.1C51.4505 218.67 52.4105 218.67 53.0505 219.36C53.5605 219.91 54.2504 220.08 54.7304 220.68C55.1404 221.19 55.9004 220.95 56.2204 221.67C56.4204 222.12 56.8105 222.27 57.2505 222.2C57.7705 222.12 58.0105 222.64 58.3605 222.91C58.7005 223.17 58.8505 223.92 59.3605 223.7C59.9305 223.46 60.2104 223.79 60.5404 224.04C61.0604 224.45 61.9304 224.12 62.0904 225.29C62.1104 225.46 62.2305 225.5 62.3605 225.45C63.0905 225.14 63.4604 225.61 63.9204 225.91C64.2504 226.13 64.6205 226.25 65.0505 226.25C65.2305 226.25 65.4605 226.12 65.3705 226.59C65.2705 227.16 65.2304 227.67 64.9104 228.51C64.4404 229.77 63.5805 231.13 63.2505 231.02C62.8805 230.9 62.5904 230.62 62.2904 230.36C61.5504 229.73 60.8404 229.05 60.0904 228.44C59.9304 228.31 59.6205 228.5 59.4505 228.38C59.2905 228.27 59.2504 227.88 59.1004 227.74C58.9004 227.56 58.7005 227.36 58.3905 227.45C58.1105 227.53 58.0105 227.33 58.0205 226.85C58.0205 226.22 57.9504 225.74 57.4104 226.23C57.2904 226.34 57.1805 226.4 57.1205 226.35C56.7705 226.01 56.3605 225.79 56.1205 225.23C55.8605 224.62 55.3704 224.54 54.9204 224.37C54.6504 224.27 54.2405 224.45 54.1405 224.04C53.8505 222.82 52.7405 223.36 52.3705 222.33C51.1305 222.06 50.2804 220.93 49.2304 220.23C48.8004 219.94 48.4205 219.53 48.0105 219.17C47.8105 218.99 47.1304 219.9 47.2304 219.09C47.3504 218.18 46.7505 218.93 46.5805 218.71C46.2605 218.3 45.9404 217.87 45.5304 217.65C45.1004 217.42 44.5205 217.53 44.3605 216.74C44.3205 216.55 44.1205 216.65 44.0105 216.57C43.5105 216.25 42.9404 216.04 42.5304 215.53C42.2204 215.16 41.8704 214.88 41.4804 214.68C41.3004 214.59 41.2104 214.28 41.0304 214.18C40.6204 213.97 40.4704 213.17 39.7804 213.57C39.6104 213.67 39.4905 213.58 39.3905 213.5C38.6505 212.89 37.9205 212.24 37.1805 211.64C36.9605 211.46 36.7005 211.34 36.4505 211.21L36.4305 211.2Z" fill="#242E54"></path>
<path d="M418.18 291.35C418.2 287.78 418.34 284.21 418.25 280.63C418.18 277.64 417.92 274.59 418.41 271.51C418.54 270.7 418.39 269.69 418.37 268.77C418.34 267.2 418.27 265.63 418.28 264.05C418.3 261.4 418.44 258.77 418.27 256.12C418.12 253.79 418.06 251.3 418.23 248.95C418.39 246.69 418.48 244.53 418.4 242.27C418.26 238.35 418.87 234.29 418.26 230.43C418.22 230.2 418.26 229.9 418.26 229.63C418.41 226.87 418.81 224.08 418.31 221.38C418.4 217.26 418.5 213.15 418.58 209.04C418.63 206.64 418.77 204.19 418.65 201.85C418.53 199.53 419.05 197.12 418.55 194.87C418.44 194.37 418.55 193.56 418.6 192.9C418.78 190.24 418.66 187.63 418.63 184.99C418.63 184.19 418.57 183.36 418.64 182.59C418.94 179.63 418.76 176.73 418.72 173.8C418.68 171.09 418.61 168.4 418.72 165.65C418.84 162.69 418.87 159.71 418.83 156.74C418.77 152.09 418.67 147.42 418.79 142.76C418.87 139.78 418.27 136.76 419.04 133.77C419.14 133.37 419.04 132.73 419.04 132.19C419 129.15 418.93 126.12 418.92 123.08C418.92 120.86 418.65 118.65 419.08 116.4C419.16 115.99 418.99 115.39 418.96 114.87C418.92 113.96 418.91 113.04 418.87 112.13C418.72 108.98 418.81 105.81 418.91 102.64C418.99 100.13 418.87 97.6101 418.95 95.1201C419.11 89.8201 418.9 84.5601 419.17 79.2501C419.31 76.6301 419.04 73.9701 419.03 71.3201C419.03 68.6701 419.13 66.0001 419.14 63.3501C419.14 61.9001 418.97 60.4701 418.98 59.0201C419.01 54.7501 419.06 50.4801 419.15 46.2101C419.21 43.7001 418.86 41.2001 419.27 38.6601C419.33 38.3201 419.23 37.8801 419.23 37.4801C419.21 35.7501 419.2 34.0101 419.19 32.2801C419.16 28.7201 419.13 25.1701 419.1 21.6101C419.1 20.8301 419.08 20.0401 419.12 19.2601C419.32 14.7501 419.67 10.2201 419.06 5.83014C418.85 4.32014 419.17 3.25013 419.7 2.35013C420.04 1.76013 420.42 1.76013 420.66 2.32013C421.1 1.60013 421.59 1.83014 421.78 2.98014C421.9 3.70014 421.98 4.50014 421.99 5.28014C421.99 6.59014 421.9 7.90013 421.88 9.21013C421.83 12.4001 421.62 15.6601 421.79 18.7501C421.98 22.0701 421.51 25.3201 421.65 28.5801C421.69 29.5001 421.7 30.4401 421.72 31.3701C421.75 32.8401 421.86 34.3201 421.78 35.7701C421.54 40.1901 421.67 44.5301 421.9 48.8701C421.93 49.3701 421.88 49.9601 421.79 50.4201C421.54 51.6101 421.6 52.7601 421.67 53.9601C421.73 54.9901 421.71 56.0701 421.7 57.1201C421.67 59.3701 421.59 61.6201 421.58 63.8701C421.58 65.7201 421.7 67.5701 421.67 69.4201C421.6 73.4201 421.37 77.4201 421.56 81.4201C421.75 85.3301 421.33 89.3101 421.48 93.2501C421.55 94.9701 421.67 96.7301 421.56 98.4201C421.39 101.12 421.56 103.72 421.57 106.36C421.59 108.34 421.69 110.34 421.59 112.31C421.45 114.97 421.19 117.59 421.54 120.21C421.62 120.8 421.56 121.56 421.49 122.2C421.08 126.05 421.31 129.89 421.33 133.7C421.34 136.85 421.33 140.04 421.31 143.17C421.26 148.5 421.22 153.83 421.17 159.17C421.15 161.3 421.19 163.42 421.23 165.54C421.34 171.47 420.99 177.44 421.13 183.38C421.18 185.77 420.97 188.38 421.05 190.74C421.22 195.9 420.59 201.16 421.17 206.22C421.18 206.33 421.13 206.48 421.13 206.61C421.06 210.98 420.83 215.38 421.25 219.68C421.31 220.3 421.32 221.11 421.19 221.65C420.77 223.39 420.93 225.02 421.06 226.74C421.15 227.88 421.09 229.09 421.07 230.27C421.02 233.02 420.61 235.81 421.15 238.5C421.27 239.12 421.12 240.06 421.08 240.86C421.02 242.05 420.91 243.24 420.9 244.42C420.88 245.84 420.66 247.35 421.12 248.6C421.7 250.2 420.79 251.55 420.85 253.06C420.85 253.19 420.87 253.32 420.88 253.45C421.2 258.17 420.68 262.99 420.92 267.73C421 269.42 421.06 271.21 420.92 272.89C420.62 276.5 420.99 280.07 420.71 283.65C421.09 285.83 420.71 288.09 420.7 290.31C420.68 292.57 420.8 294.83 420.7 297.07C420.58 299.85 420.65 302.63 420.47 305.43C420.32 307.64 420.47 309.92 420.49 312.16C420.47 312.17 420.44 312.19 420.42 312.2C420.34 313.39 420.27 314.58 420.17 315.76C420.15 315.97 419.99 316.32 419.94 316.29C419.81 316.21 419.62 316.01 419.59 315.77C419.51 314.9 419.46 314.02 419.41 313.14C419.35 314.01 419.3 314.89 419.22 315.76C419.2 315.97 419.04 316.32 418.99 316.29C418.86 316.21 418.67 316.01 418.64 315.77C418.16 310.59 418.4 305.24 418.32 299.96C418.29 297.72 418.5 295.44 418.17 293.25C418.09 292.69 418.2 291.97 418.2 291.32L418.18 291.35Z" fill="#242E54"></path>
<path d="M648.66 316.86C645.62 318.11 642.97 316.07 640.07 315.54C638.54 315.26 637.04 314.69 635.82 316.22C635.76 316.3 635.62 316.35 635.52 316.36C632.17 316.72 629.15 317.99 626.29 319.72C626.01 319.89 625.47 319.62 625.06 319.54C624.26 319.4 624.06 319.81 623.62 320.49C622.81 321.77 621.69 323.17 620.37 323.75C616.19 325.56 613.42 328.75 610.93 332.34C610.3 333.26 609.52 334.07 608.9 334.99C608.61 335.42 608.51 335.99 608.34 336.5C608.12 337.15 608.06 337.9 607.69 338.43C605.64 341.34 603.87 344.31 604.21 348.1C604.26 348.69 603.74 349.33 603.51 349.95C603.28 350.57 603.21 351.29 602.84 351.81C602.16 352.79 604.27 354.68 601.78 355.02C601.85 356.34 601.86 357.68 601.99 358.99C602.23 361.48 602.35 363.97 603.35 366.35C603.96 367.8 603.75 369.56 604.07 370.99C604.6 373.29 604.95 375.89 606.96 377.71C608.59 379.18 609.4 381.12 610.11 383.23C610.61 384.71 611.23 386.5 613.09 387.22C613.66 387.44 614.14 388.08 614.51 388.62C617.54 393.08 621.84 395.82 626.72 397.86C629.23 398.91 631.6 400.27 634.06 401.45C635.26 402.03 636.44 403.01 637.85 401.8C638.02 401.66 638.55 401.77 638.81 401.93C642.06 403.9 645.33 402.45 648.6 402.05C649.82 401.9 651.05 401.77 652.28 401.66C652.91 401.61 653.68 401.85 654.16 401.57C655.32 400.9 656.38 400.51 657.69 401.18C658.01 401.34 658.8 401.22 658.95 400.98C660.34 398.67 662.92 398.61 665.03 397.68C669.17 395.87 673.12 393.81 675.57 389.74C675.74 389.46 676.07 389.05 676.3 389.06C678.42 389.19 678.56 387.18 679.54 386.11C680.53 385.03 681.32 383.76 682.32 382.69C684.2 380.69 685.01 378.21 685.89 375.7C686.44 374.14 686.8 372.52 687.88 371.05C688.81 369.8 689.38 367.68 689.02 366.22C688.43 363.82 689.68 361.81 689.58 359.55C689.42 355.7 689.84 351.82 687.93 348.23C687.67 347.74 687.37 347.18 687.36 346.65C687.34 343.44 685.84 340.85 684.25 338.19C681.21 333.13 677.37 328.86 672.76 325.19C669.48 322.58 665.88 320.87 661.77 319.9C659.49 319.36 657.39 318.04 654.93 317.81C652.88 317.61 650.85 317.2 648.66 316.86Z" fill="#7DBEFF"></path>
<path d="M648.151 320.49C649.201 320.44 649.791 320.31 650.341 320.42C650.991 320.55 651.571 321.01 652.221 321.1C656.341 321.72 660.531 321.98 664.031 324.75C665.801 326.15 667.911 327.13 669.771 328.43C671.181 329.41 672.881 330.36 673.661 331.76C675.051 334.27 677.961 335.65 678.561 338.66C681.191 340.39 680.751 343.84 682.651 345.98C682.861 346.21 682.881 346.63 682.941 346.97C683.411 349.65 683.931 352.32 684.311 355.01C684.531 356.58 684.671 358.2 684.551 359.78C684.491 360.64 683.271 361.87 683.541 362.22C684.391 363.36 683.981 363.81 683.301 364.82C682.531 365.96 681.981 367.62 682.151 368.95C682.481 371.47 680.711 372.64 679.591 374.3C678.461 375.97 678.801 378.32 676.991 379.79C675.511 380.99 674.311 382.53 672.981 383.92C672.291 384.64 671.771 385.37 670.571 385.64C669.291 385.93 668.171 387.01 667.021 387.79C664.581 389.43 662.511 391.79 659.131 391.56C658.551 391.52 657.961 392.25 657.311 392.42C654.441 393.18 651.581 394.09 648.651 394.51C646.371 394.83 644.101 393.06 641.641 394.18C641.231 394.37 640.421 393.71 639.801 393.41C637.961 392.53 635.551 393.15 634.121 391.2C634.081 391.15 633.871 391.16 633.791 391.22C632.071 392.38 630.741 391.14 629.751 390.19C628.701 389.19 627.681 388.61 626.291 388.21C623.151 387.29 620.491 385.57 618.731 382.68C618.211 381.83 617.611 380.99 616.891 380.31C614.791 378.35 612.821 376.03 612.171 373.43C611.491 370.68 610.601 367.99 609.891 365.25C609.581 364.04 609.181 362.71 610.931 362.07C611.121 362 611.291 361.11 611.121 360.92C609.221 358.84 611.461 356.05 609.861 353.95C610.681 351.48 611.301 348.93 612.371 346.58C613.311 344.52 614.641 342.76 615.331 340.43C615.961 338.29 618.571 336.76 620.231 334.9C621.041 333.99 621.661 332.9 622.421 331.94C623.141 331.04 623.871 330.42 625.311 330.64C625.881 330.73 626.691 329.17 627.431 328.4C627.541 328.28 627.891 328.42 628.111 328.37C630.101 327.89 631.941 327.18 633.351 325.57C634.371 324.41 635.541 323.68 637.291 324.01C638.031 324.15 638.951 323.58 639.731 323.22C642.571 321.91 645.091 319.54 648.141 320.51L648.151 320.49Z" fill="#7DBEFF"></path>
<path d="M141.73 303.35C140.3 304.75 139.18 306.63 137.56 307.63C135.84 308.7 134.26 309.74 132.8 311.18C132.24 311.73 131.53 312.1 131.14 312.88C131.02 313.13 130.36 313.44 130.12 313.36C128.26 312.77 126.41 313.7 124.87 314.64C122.96 315.8 121.03 316.11 119.15 316.29C117.23 316.47 115.38 316.92 113.5 317.45C112.31 317.79 110.99 318.31 110.09 317.47C109.28 316.71 108.38 316.89 107.34 317.09C105.63 317.43 104.27 317.24 103.16 315.35C102.96 315.01 102.06 315.11 101.47 315.04C97.73 314.65 94.01 313.15 91.67 310.88C91.4 310.62 90.67 310.44 90.37 310.62C88.07 312.04 87.36 309.93 86.06 309.34C84.84 308.8 84.64 306.69 83.39 306.31C82.06 305.91 82.13 305.07 82.21 304.17C82.29 303.31 81.7 304 82.03 303.13C82.12 302.9 82.03 303.13 82.13 302.93C81.5 302.39 80.86 301.83 80.22 301.26C80.14 301.16 80.07 301.05 79.98 300.95C79.8 300.76 79.58 300.6 79.38 300.44C79.16 300.26 79.06 300.17 78.88 299.94C78.8 299.83 78.67 299.77 78.55 299.76C78.22 299.47 77.9 299.18 77.6 298.92C77.6 298.81 77.58 298.69 77.49 298.58C77.46 298.54 77.42 298.51 77.38 298.48C77.38 298.48 77.37 298.48 77.36 298.48L77.34 298.46C77.34 298.46 77.25 298.42 77.21 298.41C77.21 298.37 77.17 298.33 77.15 298.3C76.46 297.72 75.75 297.12 75.2 296.42C73.47 294.26 70.85 289.25 69.42 286.93C67.08 283.15 66.67 278.7 66.04 274.36C65.31 269.33 65.6 264.09 67.35 258.81C67.76 257.58 68.4 256.37 68.68 255.13C69.48 251.61 72.34 248.87 73.73 245.59C73.86 245.29 74.45 245.14 74.75 244.85C75.28 244.33 75.93 243.81 76.2 243.19C77.13 241.09 79.06 240.08 80.8 238.86C81.31 238.5 82.04 238.39 82.46 237.98C85.07 235.42 88.08 233.88 91.51 233.24C92.19 233.11 92.8999 232.72 93.5299 232.33C95.4099 231.16 97.35 230.64 99.41 230.65C101.39 230.65 103.41 230.93 105.37 230.47C108.87 229.65 111.76 231.43 115.16 230.75C116.57 231.75 118.3 231.95 120.11 231.99C121.66 232.02 122.88 232.53 124.04 233.44C125.31 234.43 126.99 234.96 128.49 235.69C129.07 235.97 129.9 236.08 130.2 236.55C131.71 238.9 134.75 239.48 136.46 241.71C138.51 244.38 141.81 246.04 142.62 249.72C142.71 250.12 143.26 250.35 143.6 250.66C144.34 251.33 145.08 252.01 145.73 252.6C147.2 255.12 148.75 257.36 148.97 260.37C149.04 261.36 149.58 262.38 150.25 263.08C151.03 263.9 151.32 264.71 151 265.89C150.87 266.37 150.8 266.91 150.92 267.34C151.66 270.09 151.88 272.94 151.9 275.91C151.91 277.88 151.88 279.82 151.28 281.72C150.59 283.88 149.95 285.99 149.97 288.16C149.97 288.5 149.69 288.88 149.57 289.24C148.67 291.98 147.9 294.75 145.6 297C145.39 297.21 145.28 297.56 145.22 297.85C144.99 298.93 145.08 300.16 144.5 301.05C143.91 301.96 142.59 302.46 141.75 303.28L141.73 303.35Z" fill="#AC81FF"></path>
<path d="M137.3 299.61C137.92 298.39 138.77 297.61 139.89 296.9C141.24 296.04 142.19 294.99 141.44 293.47C141.36 293.31 141.62 292.75 141.66 292.75C143.36 292.75 142.93 291.36 143.39 290.56C144.22 289.11 145.69 287.54 145.66 286.23C145.63 284.58 146.35 283.19 146.64 281.69C146.98 279.94 147.36 278.04 147 276.45C146.61 274.7 146.63 272.94 146.62 271.15C146.62 270.57 146.6 269.97 146.45 269.44C145.29 265.26 144.1 261.08 142.9 256.92C142.8 256.57 142.54 256.29 142.32 256C141.73 255.21 141.11 254.44 140.52 253.65C139.12 251.8 137.99 249.67 136.25 248.18C134.52 246.69 133.68 244.03 130.62 244.04C130.28 244.04 130.03 243.42 129.76 243.06C129.4 242.58 129.19 241.94 128.71 241.61C126.14 239.83 123.54 238.19 120.35 237.23C118.11 236.56 116.18 235.2 113.72 234.84C110.75 234.41 107.87 233.6 104.84 233.54C102.45 233.49 99.8799 234.18 97.4199 234.81C95.0099 235.43 92.3899 235.05 90.2199 237.13C89.9799 237.36 89.4199 237.21 89.0399 237.35C88.2599 237.63 87.4 237.86 86.75 238.35C84.75 239.89 82.4999 241.13 80.9799 243.26C79.5499 245.27 77.21 246.4 75.9 248.75C74.31 251.6 72.25 254.34 71.32 257.34C70.22 260.9 68.95 264.52 69.26 268.16C69.54 271.55 68.92 275.11 70.06 278.34C71.07 281.19 71.64 284.24 72.63 287.1C73.12 288.51 74.7999 291.31 76.0999 293.12C76.3299 293.37 76.5599 293.62 76.7799 293.88C77.0099 294.15 77.19 294.45 77.38 294.75C77.43 294.82 77.47 294.89 77.51 294.96C77.57 295.06 77.63 295.15 77.69 295.25C77.96 295.68 78.27 296.09 78.57 296.5C78.87 296.91 79.1899 297.3 79.5999 297.61C79.6599 297.65 79.71 297.66 79.77 297.68C79.79 297.72 79.8 297.75 79.83 297.78C80.25 298.18 80.63 298.62 81.07 299.01C81.48 299.37 81.8199 299.64 82.1699 300.05C82.2499 300.15 82.3599 300.19 82.4799 300.2C82.4899 300.22 82.49 300.23 82.51 300.25C82.55 300.3 82.59 300.33 82.64 300.36C82.64 300.39 82.64 300.41 82.64 300.43C82.64 300.5 82.67 300.56 82.71 300.61C82.74 300.67 82.7899 300.72 82.8399 300.76C82.9599 300.84 83.07 300.91 83.18 301.01C83.25 301.06 83.3299 301.09 83.4199 301.1C83.4599 301.1 83.51 301.1 83.55 301.1C83.6 301.1 83.64 301.06 83.68 301.04C83.68 301.13 83.6999 301.21 83.7299 301.28C84.0199 301.11 84.3499 300.96 84.7299 300.84C86.2299 300.35 87.0699 300.45 87.5399 301.77C87.6199 302 87.95 302.13 88.2 302.26C89.52 302.93 91.83 302.4 91.77 304.78C91.77 304.89 92.07 305.02 92.25 305.03C93.32 305.1 93.84 305.79 94.5 306.44C95.03 306.96 95.98 307.16 96.81 307.31C98.32 307.58 100.33 307.2 101.34 307.98C103.78 309.86 107.6 308.11 109.83 310.2C109.95 310.31 110.41 310.04 110.71 310C112.59 309.78 114.47 309.7 116.34 309.32C118.13 308.95 119.69 310.02 121.65 308.87C123.18 307.97 125 307.63 126.69 307.07C128.24 306.55 129.01 304.08 131.09 304.88C132.26 304.07 132.74 302.59 133.71 301.88C134.82 301.06 136.63 301.02 137.34 299.61H137.3Z" fill="#AC81FF"></path>
<path d="M528.36 403.7C531.41 403.85 534.02 404.17 536.62 404.06C539.71 403.93 542.75 403.36 545.57 401.9C546.36 401.49 547.32 401.4 548.2 401.18C548.85 401.02 549.61 401.05 550.16 400.72C554.63 398.05 559.62 396.12 562.83 391.65C563.88 390.18 565.38 389.04 566.43 387.57C568.32 384.93 570.03 382.16 571.8 379.43C571.92 379.25 571.87 378.97 571.93 378.75C573.11 374.59 574.3 370.43 575.47 366.26C575.62 365.71 575.81 365.12 575.76 364.56C575.52 361.5 575.46 358.39 574.87 355.39C574.24 352.22 573.86 348.95 572.32 345.98C570.98 343.38 570.37 340.26 568.59 338.06C566.61 335.61 565.51 332.64 562.94 330.45C559.47 327.5 556.22 324.28 552.2 322.11C549.25 320.51 546.38 318.66 542.79 318.41C540.76 318.27 538.79 317.38 536.76 316.94C534.45 316.44 532.13 315.96 529.8 315.65C528.62 315.49 527.38 315.73 526.17 315.76C525.52 315.78 524.8 315.91 524.22 315.7C522.96 315.24 521.89 315.03 521.11 316.44C521.02 316.6 520.69 316.76 520.5 316.73C518.85 316.41 517.58 317.68 516.2 317.84C514.5 318.04 513.98 319.65 512.43 319.96C511.05 320.24 509.89 321.55 508.5 321.96C506.51 322.56 505.09 323.83 503.79 325.24C501.53 327.71 499.35 330.27 497.32 332.93C496.3 334.26 495.69 335.91 494.9 337.41C494.16 338.81 493.42 340.21 492.66 341.59C492.5 341.89 492.03 342.19 492.07 342.41C492.69 345.32 490.23 347.48 490.21 350.22C490.21 350.55 490.21 351.07 490.03 351.18C487.96 352.43 488.74 354.42 488.79 356.13C488.84 357.95 489.17 359.78 489.48 361.58C489.75 363.18 489.02 364.72 489.39 366.33C489.7 367.66 489.76 369.05 490.02 370.39C490.14 371 490.35 371.74 490.78 372.13C491.48 372.76 491.76 373.33 491.43 374.24C491.33 374.5 491.37 374.98 491.55 375.15C493.54 377.08 493.73 380.05 495.6 382.08C496.36 382.9 497.43 383.9 496.74 385.41C496.63 385.65 497 386.34 497.31 386.49C499.9 387.75 500.52 390.92 503.22 392.24C505.61 393.41 507.7 395.28 509.76 397.03C514.66 401.21 520.7 402.45 526.72 403.76C527.36 403.9 528.09 403.68 528.33 403.66L528.36 403.7Z" fill="#7DBEFF"></path>
<path d="M537.811 320.44C544.701 321.54 550.94 324.16 556.45 328.46C559.05 330.49 561.3 332.82 563.33 335.51C566.55 339.79 568.92 344.36 570.08 349.55C570.55 351.67 571.83 353.73 570.8 356.02C572.67 360.25 570.131 364.37 570.461 368.56C569.231 370.08 569.921 372.32 569.031 373.68C565.971 378.34 564.621 384.27 559.321 387.34C559.141 387.44 559.081 387.76 558.901 387.87C557.901 388.49 557.581 389.84 555.881 389.85C554.911 389.85 554.091 391.69 552.971 392.21C549.501 393.83 546.211 396.02 542.381 396.68C538.801 397.3 535.111 397.94 531.521 397.71C528.571 397.52 525.331 397.55 522.691 395.52C522.021 395.01 520.971 394.94 520.071 394.77C517.691 394.3 515.07 392.53 512.61 391.12C510.99 390.19 510.291 388.51 508.851 387.76C506.691 386.62 504.841 385.58 503.871 383.04C503.231 381.38 501.4 380.22 500.3 378.69C499.3 377.29 498.001 375.75 497.871 374.19C497.661 371.55 496.121 369.51 495.561 367.12C494.971 364.62 494.641 361.98 494.791 359.43C494.851 358.41 495.22 357.24 495.05 356.2C494.49 352.83 495.621 349.71 496.351 346.54C496.731 344.91 497.421 343.33 498.181 341.83C498.951 340.33 499.991 338.97 500.901 337.55C503.191 333.98 505.961 330.98 510.101 329.51C510.571 329.34 511.031 328.85 511.281 328.4C512.361 326.5 513.541 325.06 516.131 325.53C516.961 325.68 518.22 325.12 518.83 324.46C519.71 323.52 520.221 323.16 521.371 324.05C521.561 324.19 522.851 322.85 523.691 322.28C523.841 322.18 524.26 322.55 524.58 322.61C524.96 322.68 525.44 322.82 525.73 322.65C529.17 320.69 532.751 319.5 536.771 320.52C537.091 320.6 537.46 320.48 537.8 320.45L537.811 320.44Z" fill="#7DBEFF"></path>
<path d="M377.89 359.57C377.98 357.15 377.34 354.73 378.29 352.31C379.73 348.66 378.73 344.44 380.87 340.91C381.61 339.7 382.28 338.44 382.91 337.16C385.86 331.17 385.95 331.03 391.08 326.58C391.26 326.43 391.43 326.22 391.51 326C391.96 324.75 392.78 324.13 394.16 324.15C394.55 324.15 395.23 323.73 395.31 323.4C395.71 321.62 397.43 321.49 398.59 320.79C400.85 319.43 403.48 318.63 405.6 317.11C407.78 315.54 411 317.35 412.69 314.62C412.81 314.43 413.6 314.65 414.07 314.68C414.9 314.74 415.73 314.83 416.56 314.84C418.73 314.85 420.82 316.22 421.78 318.45C422.17 318.42 422.56 318.39 422.91 318.37C422.98 318.45 423.08 318.52 423.23 318.53C423.36 318.54 423.46 318.5 423.54 318.44C423.6 318.48 423.67 318.51 423.75 318.51C424.42 318.51 425.09 318.6 425.76 318.66C425.89 318.67 426 318.63 426.09 318.56C427.17 318.66 430.1 319.56 431.17 319.68C431.15 319.73 431.11 319.78 431.08 319.83C432.37 320.2 433.66 320.6 434.91 321.07C442.77 324.01 449.08 329 454.08 335.69C456.31 338.67 458.08 341.85 459.56 345.31C461.35 349.5 463.28 353.56 463.46 358.21C463.51 359.48 463.49 360.79 463.79 362.02C465 366.94 464.06 371.81 462.28 376.2C459.86 382.19 457.51 388.32 452.14 392.81C449.52 395 446.62 396.77 444.04 398.98C443.55 399.4 442.7 399.41 442.03 399.65C440.03 400.35 438.24 401.4 436.57 402.7C436.22 402.97 435.59 402.93 435.09 402.96C433.01 403.11 430.76 402.81 428.92 403.53C427.6 404.05 426.56 404.19 425.27 403.97C423.04 403.58 420.8 403.06 418.55 402.99C413.66 402.84 409.14 401.31 404.94 399.12C401.62 397.39 398.71 394.88 395.13 393.52C394.9 393.43 394.64 393.04 394.63 392.78C394.5 390.3 392.15 389.41 390.92 387.74C390.18 386.74 387.25 383.55 386.53 382.7C383.78 379.43 383.04 375.03 380.16 371.85C380.4 369.76 377.88 368.12 379.26 365.74C379.63 365.09 379.42 363.54 378.88 363.06C377.68 362 377.85 360.76 377.89 359.55V359.57Z" fill="#7DBEFF"></path>
<path d="M384.6 359.91C385.59 365.32 386.24 370.9 388.95 375.77C390.96 379.37 393.37 382.88 396.22 385.84C398.29 387.99 400.31 390.49 403.26 391.72C403.58 391.85 403.94 392.1 404.1 392.39C405.17 394.32 407.17 394.56 408.98 395.18C410.45 395.68 411.94 396.12 413.36 396.75C416.88 398.31 420.43 399.14 424.4 399C427.17 398.9 429.84 397.9 432.48 398.1C438.02 398.51 442.14 395.62 446.17 392.75C447.73 391.64 449.43 390.4 450.74 388.91C452.15 387.3 453.34 385.5 454.65 383.8C457.42 380.2 459.2 376.22 459.81 371.7C460.16 369.14 460.3 366.54 460.68 364.02C461.04 361.61 460.56 359.52 460.02 357.32C459.74 356.18 459.52 355.03 459.24 353.89C458.52 350.99 458.31 347.81 456.93 345.27C454.78 341.32 452.25 337.58 449.03 334.24C445.81 330.9 442.31 328.05 438.4 325.66C435.34 323.79 432.08 322.34 428.62 321.38C428.13 321.36 427.63 321.36 427.14 321.32C426.59 321.28 426.06 321.13 425.53 321.01C425.03 320.9 424.52 320.84 424.01 320.77C423.51 320.7 423 320.66 422.5 320.73C422.43 320.73 422.39 320.77 422.34 320.8C422.3 320.79 422.26 320.77 422.22 320.77C422.2 320.77 422.18 320.77 422.16 320.77C421.71 321.99 419.71 321.81 418.86 322.7C418.78 322.78 418.67 322.88 418.56 322.9C416.26 323.37 413.8 324.55 411.71 324.09C409.96 323.7 408.92 323.66 407.55 324.66C406.84 325.18 405.75 325.5 404.88 325.4C403.24 325.21 401.9 325.8 400.93 326.84C399.44 328.43 395.87 328.05 396.34 331.52C396.34 331.57 396.14 331.7 396.04 331.69C394.23 331.5 393.86 333.03 392.89 334.03C387.07 340.11 385.48 347.7 384.58 355.62C384.58 357.05 384.36 358.52 384.62 359.91H384.6Z" fill="#7DBEFF"></path>
<path d="M277.55 344.43C277.86 343.64 277.66 342.65 277.73 341.76C277.77 341.29 277.73 340.7 277.98 340.38C280.99 336.57 282.74 331.82 286.53 328.58C287.32 327.9 288.29 327.04 288.49 326.11C288.99 323.74 291.16 322.99 292.61 322.3C294.52 321.39 296.09 320.04 297.92 319.1C298.7 318.7 299.49 318.28 300.3 317.96C301.83 317.35 303.77 317.2 304.83 316.13C306.29 314.65 307.77 314.57 309.6 314.32C311.87 314.84 314.22 315.17 316.38 315.99C317.12 316.27 317.77 317.26 318.13 318.19C318.24 318.19 318.35 318.19 318.5 318.21C318.64 318.23 318.76 318.18 318.86 318.09C319.3 318.06 319.73 318.03 320.12 318C320.19 318.08 320.29 318.15 320.44 318.16C320.57 318.17 320.67 318.13 320.75 318.07C320.81 318.11 320.88 318.14 320.96 318.13C321.63 318.13 322.3 318.22 322.97 318.28C323.1 318.29 323.21 318.25 323.3 318.18C324.07 318.25 324.82 318.41 325.58 318.54C330.09 319.09 333.89 321.46 337.54 324.21C340.91 326.74 343.72 329.89 346.06 333.36C348.42 336.85 351.46 339.96 352.58 344.23C353.02 345.89 353.51 347.55 353.79 349.25C354.56 353.84 355.58 358.42 355.85 363.04C356.26 370.03 352.61 376.16 351.12 382.77C350.98 383.37 350.35 383.84 350.03 384.42C347.8 388.56 344.01 391.24 340.87 394.52C339.51 395.94 338.03 397.3 336.4 398.36C335.24 399.11 333.45 398.98 332.44 399.85C330.8 401.27 328.92 401.55 327 401.99C325.2 402.4 323.2 402.51 321.66 403.41C319.6 404.61 317.92 403.14 316.08 403.31C314.71 403.44 313.27 404.3 312.01 404.05C309.12 403.48 306.18 402.75 303.52 401.49C300.08 399.86 296.7 397.92 293.66 395.61C289.81 392.68 286.33 389.25 282.7 386.03C282.51 385.86 282.23 385.58 282.25 385.4C282.69 382.4 279.96 380.81 279.23 378.29C277.61 372.78 275.04 367.52 275.57 361.51C275.63 360.86 275.47 360.18 275.38 359.52C274.65 354.28 275.62 349.31 277.51 344.44L277.55 344.43Z" fill="#7DBEFF"></path>
<path d="M281.63 363.68C281.87 364.29 281.84 365 282.03 365.64C283.28 369.81 284.16 374.16 285.94 378.08C287.98 382.56 291.1 386.42 294.86 389.66C297.86 392.24 301.15 394.67 304.86 395.55C309.21 396.58 313.56 398.66 318.27 397.36C318.87 397.19 319.61 397.3 320.23 397.48C321.45 397.84 322.43 397.77 323.53 396.91C324.27 396.33 325.47 396.38 326.46 396.12C327.19 395.93 327.99 395.84 328.61 395.46C333.4 392.55 338.32 389.8 341.84 385.19C344.98 381.07 348.07 376.9 349.44 371.75C349.74 370.64 349.21 369.18 349.72 368.27C351.42 365.29 350.69 361.99 351.18 358.87C351.56 356.49 351.43 353.83 350.78 351.51C349.69 347.6 348.44 343.73 346.67 340.01C344.13 334.69 340.14 330.79 335.8 327.16C334.4 325.99 332.75 325.1 331.13 324.24C328.96 323.08 326.75 322.01 324.55 320.9C324.47 320.9 324.39 320.9 324.32 320.9C323.77 320.86 323.24 320.71 322.71 320.59C322.21 320.48 321.7 320.42 321.19 320.35C320.69 320.28 320.18 320.24 319.68 320.31C319.61 320.31 319.57 320.35 319.52 320.38C319.48 320.37 319.45 320.35 319.4 320.35C318.82 320.37 318.24 320.34 317.66 320.38C317.53 320.38 317.41 320.4 317.29 320.41C317.17 320.52 317.05 320.63 316.94 320.72C315.41 321.9 313.82 322.85 311.66 322.7C310.47 322.62 308.86 322.54 307.99 324.1C307.84 324.37 306.57 324.43 306.43 324.2C305.71 323.02 304.95 323.39 304.07 323.87C303.38 324.25 302.67 324.77 301.94 324.85C298.28 325.27 296.22 328.44 293.4 330.22C290.83 331.84 289.07 334.93 287.19 337.54C285.49 339.91 284.13 342.52 284.28 345.65C284.3 346.02 284.28 346.69 284.13 346.74C281.37 347.63 282.53 349.99 282.26 351.81C282.17 352.44 282.22 353.1 282.06 353.71C281.22 357 280.24 360.27 281.58 363.68H281.63Z" fill="#7DBEFF"></path>
<path d="M318.97 344.68C318.71 344.35 318.29 343.29 317.62 343.09C316.53 342.76 316.17 343.73 315.99 344.8C315.12 349.96 313.07 354.63 310.22 358.98C309.42 360.2 308.96 361.65 308.24 362.93C307.73 363.84 307.06 364.67 306.42 365.5C306.29 365.67 305.78 365.77 305.73 365.7C305.52 365.4 305.22 364.95 305.31 364.68C306.3 361.63 306.93 358.35 308.49 355.63C310.27 352.54 310.48 349.18 311.13 345.93C311.95 341.89 312.041 337.7 312.451 333.58C312.481 333.31 312.65 333 312.56 332.79C312.26 332.12 311.881 331.48 311.521 330.84C311.041 331.36 310.331 331.79 310.141 332.4C309.711 333.75 309.47 335.18 309.29 336.6C308.67 341.36 307.631 345.98 305.461 350.29C305.341 350.53 305.16 350.78 305.16 351.03C305.19 355.33 302.71 358.87 301.72 362.85C300.8 366.54 298.68 369.84 298.37 373.72C298.32 374.32 298.43 375.21 298.8 375.49C299.17 375.77 300.19 375.7 300.55 375.36C303.25 372.88 306.33 370.63 308.36 367.65C310.64 364.31 313.41 361.32 315.06 357.44C316.45 354.18 318.86 348.37 318.98 344.69L318.97 344.68Z" fill="#242E54"></path>
<path d="M440.68 345.64C440.68 343.75 440.72 342.02 440.64 340.3C440.63 340 440.17 339.64 439.85 339.48C439.72 339.42 439.24 339.79 439.19 340.03C438.86 341.57 438.43 343.12 438.36 344.69C438.13 349.3 437.68 353.86 436.34 358.27C436.24 358.59 436.05 358.87 435.91 359.18C435.68 358.84 435.33 358.53 435.24 358.15C434.33 354.16 433.33 350.18 432.63 346.14C432.25 343.92 432.39 341.6 432.3 339.32C432.27 338.51 432.31 337.69 432.19 336.91C432.13 336.52 431.76 336.18 431.53 335.82C431.15 336.14 430.74 336.45 430.39 336.8C430.25 336.94 430.13 337.22 430.14 337.42C430.32 340.48 429.93 343.5 430.32 346.62C430.96 351.81 432.87 356.67 433.21 361.89C433.32 363.48 434.23 364.43 435.55 364.57C436.95 364.73 437.54 363.93 438.03 362.54C439.77 357.59 440.82 352.53 440.53 347.2C440.5 346.63 440.64 346.05 440.69 345.65L440.68 345.64Z" fill="#242E54"></path>
<path d="M326.951 341.1C326.371 341.6 325.641 341.93 325.441 342.45C324.681 344.45 324.131 346.52 323.411 348.53C323.011 349.65 323.521 350.48 324.381 350.74C325.131 350.97 326.251 350.85 326.891 350.42C328.421 349.39 329.121 343.72 328.051 342.1C327.821 341.75 327.421 341.51 326.951 341.09V341.1Z" fill="#242E54"></path>
<path d="M303.95 327.24C303.13 328.16 302.31 328.71 302.02 329.47C301.22 331.57 300.65 333.75 299.95 335.89C299.72 336.61 299.58 337.41 300.42 337.6C301.21 337.78 302.1 337.55 302.94 337.44C303.1 337.42 303.27 337.11 303.35 336.91C304.31 334.34 305.36 331.77 305.11 328.96C305.06 328.45 304.47 327.99 303.94 327.25L303.95 327.24Z" fill="#242E54"></path>
<path d="M446.641 342.38C446.661 344.65 447.511 345.89 449.331 346.18C450.341 346.34 451.181 346.03 451.291 344.83C451.391 343.81 451.431 342.78 451.481 341.75C451.551 340.48 450.291 338.47 449.331 338.29C448.341 338.11 446.801 339.86 446.651 341.38C446.621 341.71 446.651 342.05 446.651 342.38H446.641Z" fill="#242E54"></path>
<path d="M424.07 340.3C424.8 338.36 423.29 337.25 421.82 336.25C421.46 336 420.06 336.22 419.91 336.51C419.12 338.07 418.05 339.73 418.08 341.35C418.11 343.11 420.43 344.21 422.23 343.84C424.58 343.35 424.12 341.74 424.07 340.31V340.3Z" fill="#242E54"></path>
<path d="M661.98 352.14C661.68 349.44 661.53 347.3 661.17 345.19C660.67 342.27 660.02 339.37 659.42 336.46C659.35 336.13 659.21 335.79 659.02 335.51C658.84 335.25 658.57 334.91 658.31 334.88C658.08 334.86 657.64 335.17 657.59 335.41C657.29 336.75 656.65 338.19 656.89 339.45C658.15 346.14 657.66 352.95 658.37 359.67C658.39 359.9 658.5 360.16 658.44 360.35C658.14 361.25 657.79 362.14 657.45 363.04C657.1 362.13 656.38 361.17 656.5 360.33C656.69 358.97 656.27 357.93 655.88 356.7C654.8 353.33 653.87 349.9 653.17 346.43C652.73 344.26 651.42 342.26 652.18 339.77C652.48 338.8 651.54 337.4 650.99 336.27C650.79 335.86 650.11 335.69 649.66 335.41C649.47 335.78 649.16 336.14 649.12 336.53C648.99 337.76 648.83 339.01 648.92 340.23C649.14 342.95 649.55 345.65 649.8 348.36C650.35 354.36 651.83 360.18 653.31 365.99C653.65 367.34 654.67 368.59 655.6 369.68C656.9 371.2 658.74 370.84 659.79 369.43C660.84 368.02 662.22 366.37 661.58 364.11C661.29 363.09 661.58 361.9 661.62 360.8C661.74 357.73 661.87 354.65 661.98 352.13V352.14Z" fill="#242E54"></path>
<path d="M642 337.89C642.1 336.99 642.09 335.5 640.65 334.47C639.61 333.72 638.56 333.83 638.06 334.96C637.16 336.99 636.83 339.13 637.78 341.26C638.17 342.13 638.79 342.95 639.9 342.6C640.87 342.3 641.91 341.88 641.99 340.59C642.03 339.9 641.99 339.21 641.99 337.89H642Z" fill="#242E54"></path>
<path d="M670.37 337.13C669.98 335.89 669.71 334.54 669.11 333.36C668.72 332.59 667.84 332.43 667.1 333.25C665.32 335.21 666.28 339.67 668.74 340.57C669.06 340.69 669.88 340.26 669.99 339.93C670.26 339.09 670.25 338.16 670.37 337.13Z" fill="#242E54"></path>
<path d="M546.35 338.52C546.34 338.83 546.29 338.96 546.33 339.06C547.88 343.17 548 347.7 550.14 351.67C551 353.27 552.32 353.2 553.64 353.23C554.68 353.26 556.64 351.31 556.43 350.2C556.01 347.88 558.05 346.02 557.16 343.51C556.47 341.57 556.86 339.24 556.72 337.09C556.69 336.68 556.56 336.21 556.3 335.91C556.03 335.59 555.54 335.22 555.2 335.26C554.88 335.3 554.75 336.46 554.69 336.83C554.41 338.65 554.22 340.48 554.02 342.31C553.93 343.11 553.98 343.93 553.84 344.72C553.66 345.7 553.37 348.28 553.12 349.25C552.68 348.38 551.31 345.64 550.98 344.73C549.97 341.97 550.49 338.83 548.86 336.23C548.54 335.72 548.61 334.92 548.12 334.57C547.98 334.47 547.27 334.78 547.2 335.02C546.83 336.23 546.58 337.47 546.34 338.51L546.35 338.52Z" fill="#242E54"></path>
<path d="M540.36 339.66C539.76 342.43 539.77 345.55 538.54 347.98C538.05 348.93 537.84 349.34 537.01 348.17C534.83 345.12 534.58 341.36 533.13 338.05C532.67 337 532.45 335.83 531.91 334.82C531.58 334.21 530.85 333.81 530.29 333.32C530.06 334.05 529.53 334.84 529.66 335.5C530.26 338.53 530.97 341.54 531.81 344.51C532.24 346.05 533 347.5 533.66 348.96C533.94 349.57 534.26 350.22 534.74 350.65C536.93 352.6 538.32 352.45 540.31 350.24C542.35 347.98 542.41 345.19 542.23 342.45C542.08 340.19 541.53 337.95 541.07 335.72C541 335.4 540.46 335.19 540.13 334.92C540 335.31 539.76 335.71 539.76 336.1C539.78 337.25 539.91 338.4 539.99 339.56C540.11 339.59 540.23 339.62 540.35 339.64L540.36 339.66Z" fill="#242E54"></path>
<path d="M109.82 262.3C109.81 262.4 109.69 263.21 110.29 263.95C110.51 264.22 110.64 264.83 110.55 265.18C110.05 267 110.86 268.46 111.4 269.98C111.88 271.35 112.6 272.6 112.4 274.23C112.34 274.7 112.58 275.41 112.88 275.71C113.95 276.74 114.67 278.09 115.51 279.34C116.2 280.36 117.56 280.79 117.41 282.52C118.69 283.01 118.97 284.51 119.65 285.6C121.01 285.42 121.71 286.85 122.76 287.44C124.18 288.23 125.64 288.77 127.1 289.39C129.77 290.52 132.41 291.69 135.27 291.68C136.02 291.68 136.32 293.24 137.36 292.19C137.88 291.67 138.94 291.92 139.75 291.79C140.56 291.65 141.37 291.49 142.18 291.31C145.7 290.53 147.96 287.61 150.06 284.55C150.65 283.7 150.73 282.34 150.98 281.2C151.12 280.57 150.75 280.12 150.28 280.03C149.98 279.97 149.62 280.22 149.32 280.41C149.18 280.5 149.1 280.76 149.05 280.96C148.28 284.12 145.95 285.22 143.79 286.61C141.65 287.99 139.45 288.07 137.16 287.47C137.07 287.45 136.98 287.43 136.89 287.44C135.89 287.48 134.65 287.96 133.94 287.44C132.98 286.75 132.06 286.76 131.1 286.58C127.75 285.97 124.87 284.2 122.56 281.33C121.9 280.51 121.65 279.31 120.53 278.96C120.19 278.85 119.95 278.18 119.71 277.73C118.36 275.12 115.55 268.05 115.43 265.38C115.32 262.74 114.25 260.11 115.17 257.42C114.73 254.45 115.61 251.99 117.11 249.65C117.99 248.29 117.76 246.47 117.64 244.89C117.42 242.12 116.97 241.81 114.97 243.18C113.11 244.46 111.85 246.03 111.9 248.74C111.91 249.37 111.75 250.02 111.64 250.65C111.05 253.87 110.44 257.09 109.85 260.32C109.78 260.7 109.85 261.12 109.85 262.28L109.82 262.3Z" fill="#242E54"></path>
<path d="M136.259 258.8C136.189 258.87 135.949 259 135.849 259.22C134.829 261.61 133.779 263.98 132.859 266.42C132.529 267.29 132.509 268.31 133.079 269.2C133.659 270.1 134.399 270.21 135.119 269.45C136.729 267.75 137.639 265.49 138.509 263.25C138.789 262.53 138.699 261.55 138.609 260.71C138.479 259.45 137.639 258.79 136.249 258.8H136.259Z" fill="#242E54"></path>
<path d="M145.189 267.02C145.009 267.13 144.599 267.33 144.249 267.63C144.039 267.81 143.889 268.11 143.739 268.38C142.759 270.16 141.729 271.91 140.809 273.73C140.029 275.29 140.849 276.89 142.359 276.68C143.009 276.59 143.809 276.13 144.189 275.54C145.159 274.03 145.989 272.37 146.759 270.7C146.989 270.19 146.849 269.44 146.849 268.79C146.849 267.55 146.399 266.99 145.189 267.02Z" fill="#242E54"></path>
</svg>