<svg width="208" height="32" viewBox="0 0 208 32" fill="none" xmlns="http://www.w3.org/2000/svg">
<mask id="mask0_8848_6514" style="mask-type:luminance" maskUnits="userSpaceOnUse" x="23" y="0" width="25" height="24">
<path d="M32.0632 0C30.8347 0 29.6562 0.780976 29.21 1.89737L23.5685 15.995C23.5685 15.995 23.5685 16 23.5685 16.005L26.813 20.831C29.8318 25.3167 37.5643 23.8949 39.7456 18.4481L47.1321 0H32.0632Z" fill="white"/>
</mask>
<g mask="url(#mask0_8848_6514)">
<path d="M47.1321 0H23.5685V25.3217H47.1321V0Z" fill="url(#paint0_linear_8848_6514)"/>
</g>
<mask id="mask1_8848_6514" style="mask-type:luminance" maskUnits="userSpaceOnUse" x="0" y="8" width="24" height="24">
<path d="M7.37645 13.5721L0 32.0001H15.0738C16.3024 32.0001 17.4758 31.2191 17.9221 30.1027L23.5686 16.0001L20.3341 11.1841C19.1106 9.36181 17.1047 8.51074 15.0087 8.51074C11.9397 8.51074 8.68025 10.333 7.38147 13.5721" fill="white"/>
</mask>
<g mask="url(#mask1_8848_6514)">
<path d="M15.8125 -2.53815L-11.056 16.2441L7.75176 43.0598L34.6203 24.2775L15.8125 -2.53815Z" fill="url(#paint1_linear_8848_6514)"/>
</g>
<path d="M204.304 13.2665V15.9499H203.387V12.2002H204.836L205.723 14.7584L206.621 12.2002H207.995V15.9499H207.077V13.2966L206.115 15.9499H205.272L204.299 13.2665H204.304ZM200.944 15.9499V13.0863H199.791V12.2002H203.056V13.0863H201.902V15.9499H200.944Z" fill="#242E54"/>
<path d="M60.9423 23.2191H57.5323V18.2829H60.9423C63.0785 18.2829 64.1967 19.2191 64.1967 20.701C64.1967 22.2879 63.0785 23.2191 60.9423 23.2191ZM57.5323 10.7986H60.6564C62.582 10.7986 63.5699 11.6296 63.5699 12.9563C63.5699 14.2829 62.582 15.139 60.6564 15.139H57.5323V10.7986ZM64.6932 16.5908C66.358 15.7348 67.3208 14.358 67.3208 12.6409C67.3208 9.44189 64.8988 7.67969 60.9673 7.67969H53.9419V26.338H61.2582C65.3701 26.338 67.9226 24.3105 67.9226 20.8562C67.9226 18.8036 66.7792 17.3217 64.6932 16.5958" fill="#242E54"/>
<path d="M72.7165 17.9974C72.7165 15.8948 74.0955 14.8535 75.7854 14.8535H75.8857C77.6057 14.8535 78.7992 16.06 78.7992 17.9974H72.7115H72.7165ZM75.8656 12.2002C71.859 12.2002 68.9656 15.214 68.9656 19.3491C68.9656 23.6896 71.7487 26.5732 75.9158 26.5732C79.3006 26.5732 81.7227 24.7809 82.4999 21.637H78.9095C78.4933 23.0137 77.4252 23.7947 75.8406 23.7947C73.9902 23.7947 72.6663 22.5732 72.6663 20.2853H82.53C83.1819 15.7647 80.2634 12.2052 75.8656 12.2052" fill="#242E54"/>
<path d="M98.9277 8.35547H95.3373V12.4606H89.3148V8.35547H85.7243V12.4606H82.9111V15.5545H85.7243V21.8423C85.7243 24.9612 87.5195 26.5983 90.3829 26.5983C91.451 26.5983 92.2834 26.4181 93.166 25.9725V22.8286C92.6444 23.1139 92.0226 23.2691 91.3457 23.2691C90.0419 23.2691 89.3148 22.6183 89.3148 21.0063V15.5495H95.3373V21.8373C95.3373 24.9562 97.1325 26.5933 99.9958 26.5933C101.064 26.5933 101.896 26.413 102.779 25.9675V22.8236C102.257 23.1089 101.636 23.2641 100.959 23.2641C99.6548 23.2641 98.9277 22.6133 98.9277 21.0013V15.5445H102.909V12.4506H98.9277V8.34546V8.35547Z" fill="#242E54"/>
<path d="M107.162 17.9974C107.162 15.8948 108.541 14.8535 110.231 14.8535H110.331C112.051 14.8535 113.244 16.06 113.244 17.9974H107.157H107.162ZM110.311 12.2002C106.304 12.2002 103.411 15.214 103.411 19.3491C103.411 23.6896 106.194 26.5732 110.361 26.5732C113.746 26.5732 116.168 24.7809 116.945 21.637H113.355C112.938 23.0137 111.87 23.7947 110.286 23.7947C108.435 23.7947 107.112 22.5732 107.112 20.2853H116.975C117.627 15.7647 114.709 12.2052 110.311 12.2052" fill="#242E54"/>
<path d="M121.985 15.1388V12.4605H118.655V26.3378H122.271V19.6094C122.271 16.5456 124.327 15.8147 127.401 16.05V12.3103C125.164 12.3103 123.003 13.3766 121.985 15.1438" fill="#242E54"/>
<path d="M191.958 15.1388V12.4605H188.629V26.3378H192.244V19.6094C192.244 16.5456 194.3 15.8147 197.374 16.05V12.3103C195.138 12.3103 192.976 13.3766 191.958 15.1438" fill="#242E54"/>
<path d="M138.493 15.6346L135.288 14.9838C133.935 14.7234 132.761 14.1778 132.761 12.9062C132.761 11.6346 133.854 10.5132 135.78 10.5132C137.706 10.5132 139.11 11.8398 139.24 13.7873H143.247C142.986 9.88739 139.917 7.44434 135.725 7.44434C131.533 7.44434 128.749 9.83733 128.749 13.1615C128.749 16.2554 130.936 17.7873 133.774 18.3329L136.843 18.9287C138.433 19.2391 139.34 19.94 139.34 21.1114C139.34 22.6183 137.906 23.5044 135.905 23.5044C133.483 23.5044 132.154 22.1778 132.054 20.1252H128.047C128.333 24.0751 131.277 26.5933 135.986 26.5933C140.694 26.5933 143.532 24.1002 143.532 20.5407C143.532 17.7873 141.762 16.2804 138.483 15.6296" fill="#242E54"/>
<path d="M151.761 23.3793C149.991 23.3793 148.397 22.0026 148.397 19.4043C148.397 16.8061 149.991 15.4043 151.761 15.4043C153.532 15.4043 155.041 16.731 155.041 19.3543C155.041 21.9775 153.557 23.3793 151.761 23.3793ZM158.661 21.9525V12.4656H155.332V14.363C154.289 12.9312 153.015 12.2053 151.17 12.2053C147.238 12.2053 144.681 15.2992 144.681 19.4043C144.681 23.5094 147.213 26.6033 150.959 26.6033C153.291 26.6033 154.785 25.6872 155.833 23.8699C156.239 25.1365 157.207 26.378 159.278 26.378H160.376L160.331 23.5245C159.248 23.5245 158.666 23.114 158.666 21.9525" fill="#242E54"/>
<path d="M177.135 17.9974C177.135 15.8948 178.514 14.8535 180.204 14.8535H180.304C182.024 14.8535 183.218 16.06 183.218 17.9974H177.13H177.135ZM180.284 12.2002C176.278 12.2002 173.384 15.214 173.384 19.3491C173.384 23.6896 176.167 26.5732 180.334 26.5732C183.719 26.5732 186.141 24.7809 186.919 21.637H183.328C182.912 23.0137 181.844 23.7947 180.259 23.7947C178.409 23.7947 177.085 22.5732 177.085 20.2853H186.949C187.601 15.7647 184.682 12.2052 180.284 12.2052" fill="#242E54"/>
<path d="M166.976 22.2329L163.671 12.4607H159.765L164.895 26.338H168.851L173.951 12.4607H170.305L166.976 22.2329Z" fill="#242E54"/>
<defs>
<linearGradient id="paint0_linear_8848_6514" x1="23.938" y1="13.8374" x2="47.5015" y2="13.8374" gradientUnits="userSpaceOnUse">
<stop stop-color="#9966FF"/>
<stop offset="1" stop-color="#99CCFF"/>
</linearGradient>
<linearGradient id="paint1_linear_8848_6514" x1="-3.60612" y1="28.1718" x2="23.2289" y2="9.35045" gradientUnits="userSpaceOnUse">
<stop stop-color="#003399"/>
<stop offset="1" stop-color="#9966FF"/>
</linearGradient>
</defs>
</svg>
