<?xml version="1.0" encoding="UTF-8"?><svg id="Logo" xmlns="http://www.w3.org/2000/svg" viewBox="0 0 810 300"><defs><style>.cls-1{fill-rule:evenodd;}.cls-1,.cls-2{fill:#fff;}.cls-3{fill:#050000;}.cls-4{fill:#da2128;}</style></defs><rect class="cls-4" width="210" height="300"/><path class="cls-1" d="M118.7,142.45c1.54-1.55,2.55-3.93,2.7-7.61.41-10.36-7.74-20.37-25.42-19.7-9.84.52-27.5,10.03-27.31,31.44.2,21.59,17.16,37.59,38.85,38.65,26.13,1.28,44.5-16.94,50.88-33.31,1.28-3.28,1.66-3.83,2.36-3.83.81,0,1.46,1.25.38,7.1-3.7,20.03-20.05,45.58-54.72,46.75-35.47,1.2-60.23-27.85-58.33-58.04,2.15-34.14,32.16-49.58,55.68-46.84,24.74,2.88,38.02,20.37,36,41.09-2,20.51-21.82,31.78-38.02,25.89-16.92-6.15-15.29-26.03-5.23-32.09,8.24-4.97,21.74-1.39,20.36,9.76-.18,1.43.75,1.81,1.82.72ZM153.11,208.35c1.78-2.99,1.27-4.26.49-4.26-.71,0-1.21.42-2.38,1.42-23.32,19.9-56.03,22.62-82.69,6.09-5.11-3.17-9.69-6.86-13.7-11.07-1.19-1.25-1.79-1.84-2.47-1.84s-1.18.84-.18,3.21c4.29,10.18,11.9,19.07,22.05,25.36,26.62,16.51,62.5,8.67,78.88-18.91ZM52.75,90.8c-1.78,2.98-1.28,4.25-.51,4.26.7,0,1.2-.41,2.36-1.4,23.17-19.75,59.16-21.06,81.62-5.83,4.93,3.34,9.6,7.22,13.53,11.45,1.17,1.26,1.76,1.86,2.43,1.86.65,0,1.19-.85.2-3.21-3.75-8.97-10.4-19.1-20.38-25.47-27.07-17.3-62.87-9.12-79.25,18.34ZM71.65,246.77c2.1,2.68,6.57,6.92,10.58,9.37,17.66,10.79,41.18,6.03,53.43-8.85,1.91-2.32.52-2.34-.32-1.95-19.26,8.96-40.73,10.92-63.22-.49-1.04-.52-2.14-.2-.47,1.92ZM133.95,52.41c-2.04-2.72-6.53-6.95-10.53-9.42-17.6-10.89-41.14-6.26-53.48,8.54-2.18,2.61-.54,2.34.3,1.95,19.32-8.85,40.8-10.69,63.21.85,1.03.53,2.6.9.49-1.92Z"/><rect class="cls-2" x="210" width="600" height="300"/><path class="cls-3" d="M748,198.38h-79.52l78.57-102.03v-36.35h-138.5v41.62h78.81l-79.76,101.78v36.6h140.41v-41.62h0ZM587.76,60h-44.89v98.02l-62.8-98.02h-45.85v180h44.65v-104.29l68.29,104.29h40.6V60ZM318.8,141.48v-40.36h25.79c16.48,0,24.35,7.52,24.35,20.31,0,12.03-7.88,20.06-24.35,20.06h-25.79ZM318.8,180.33h14.57l33.67,59.67h53.49l-39.4-65.93c21.73-9.28,34.15-28.33,34.15-53.9,0-38.61-26.03-60.17-68.29-60.17h-74.99v180h46.8v-59.67Z"/></svg>