<svg width="69" height="24" viewBox="0 0 69 24" fill="none" xmlns="http://www.w3.org/2000/svg">
<path d="M58.9668 1.95835V0.312134H56.4515C53.2399 0.312134 50.4721 1.92369 50.4721 5.90059V7.39085H47.9568V9.03706H52.2912V6.03056C52.2912 2.80745 54.4323 1.95835 56.4776 1.95835H58.9668Z" fill="#242E54"/>
<path d="M44.6841 16.8256C44.6841 20.3347 42.6039 22.3535 39.079 22.3535C35.5192 22.3535 33.4477 20.3347 33.4477 16.8256V8.9325L34.1092 8.26535V7.38159H31.62V16.7563C31.62 21.6516 34.6401 23.991 39.079 23.991C43.483 23.991 46.5031 21.6516 46.5031 16.7563V7.38159H44.6754V16.8256H44.6841Z" fill="#242E54"/>
<path d="M63.5969 23.6797H65.4247V12.0262H68.9844V10.38H63.6056V23.6797H63.5969Z" fill="#242E54"/>
<path d="M48.8358 9.72144H47.9568V12.0261H50.4721V23.6796H52.2999V10.3886H49.4973L48.8358 9.72144Z" fill="#242E54"/>
<path d="M53.7446 23.6794H55.5724V12.026H60.3245V23.6794H62.1523V10.3884H53.7533V23.6794H53.7446Z" fill="#242E54"/>
<path d="M39.079 20.9932C41.7249 20.9932 43.2306 19.4163 43.2306 16.8603V8.9325L43.8921 8.26535V7.38159H41.4029V16.921C41.4029 18.5325 40.6457 19.3556 39.0703 19.3556C37.495 19.3556 36.7117 18.5325 36.7117 16.921V7.38159H34.8839V16.8516C34.8926 19.3816 36.407 20.9932 39.079 20.9932Z" fill="#242E54"/>
<path d="M66.3039 0.312134C63.0923 0.312134 60.3245 1.92369 60.3245 5.90059V7.38218H55.5724V6.22117C55.5724 5.27676 55.8596 4.95618 56.8605 4.95618H58.9668V3.30997H56.73C54.6846 3.30997 53.7446 4.22838 53.7446 6.18651V9.02839H62.1436V6.03055C62.1436 2.80744 64.2847 1.95835 66.33 1.95835H68.9759V0.312134H66.3039Z" fill="#242E54"/>
<path d="M63.5969 6.18587V9.02775H67.4352L68.0967 9.68623H68.9757V7.38153H65.416V6.22052C65.416 5.27612 65.7032 4.95554 66.7041 4.95554H68.967V3.30933H66.5823C64.5369 3.30933 63.5969 4.22774 63.5969 6.18587Z" fill="#242E54"/>
<path d="M6.98929 14.0188L10.1661 14.6859C12.1505 15.0932 12.899 15.7863 12.899 17.0253C12.899 18.6975 11.5761 19.486 9.21741 19.486C6.70208 19.486 5.37913 18.6022 5.16154 16.774H3.33379C3.70804 19.9365 6.0406 21.0715 9.1913 21.0715C12.429 21.0715 14.7268 19.8758 14.7268 16.9387C14.7268 14.504 13.1253 13.5249 10.6709 13.0224L7.33744 12.3293C3.8473 11.6015 2.33288 9.86861 2.33288 6.99207C2.33288 3.67365 4.53488 1.59423 8.97371 1.59423C12.4638 1.59423 14.8573 3.04982 15.6755 5.76174L15.0488 6.5242C15.1184 6.81878 15.1707 7.11337 15.2055 7.40795H17.7817C17.4336 2.99784 14.4134 0 8.96501 0C4.05619 0 0.505127 2.27004 0.505127 6.97474C0.505127 11.1076 2.99435 13.1957 6.98929 14.0188Z" fill="#242E54"/>
<path d="M22.5944 2.86829H20.7667V7.38237H18.2513V9.02858H22.5944V2.86829Z" fill="#242E54"/>
<path d="M11.6715 10.0077L8.24229 9.31453C6.35361 8.9333 5.66603 8.14485 5.66603 6.85387C5.66603 5.39828 6.89324 4.51452 8.97339 4.51452C11.0535 4.51452 12.4026 5.49358 12.6202 7.39106H14.4479C14.1607 4.26326 11.7759 2.93762 8.97339 2.93762C6.10991 2.93762 3.84698 4.13329 3.84698 6.94918C3.84698 9.21922 5.29178 10.4582 7.84193 10.9867L11.1754 11.6799C14.5089 12.373 16.2409 13.8286 16.2409 16.7658C16.2409 20.2402 13.6298 22.4149 9.09524 22.4149C5.66603 22.4149 3.05496 21.0546 2.14108 18.4034L2.76774 17.6496C2.69811 17.355 2.64589 17.0604 2.61107 16.7658H0C0.217589 21.4445 3.74254 24.0005 9.09524 24.0005C14.4741 24.0005 18.0686 21.5052 18.0686 16.7398C18.0599 12.8496 15.6403 10.7961 11.6715 10.0077Z" fill="#242E54"/>
<path d="M25.8671 2.86829H24.0393V9.02859H28.6348L29.2963 9.68707H30.1753V7.38237H25.8671V2.86829Z" fill="#242E54"/>
<path d="M22.5944 18.1864V10.3886H19.7919L19.1304 9.72144H18.2513V12.0348H20.7667V18.4464C20.7667 22.5532 23.2211 23.6882 26.3022 23.6882H30.1665V22.042H26.6416C24.3874 22.0334 22.5944 21.3402 22.5944 18.1864Z" fill="#242E54"/>
<path d="M24.0393 18.0303C24.0393 20.1444 24.9793 20.6816 26.868 20.6816H30.1753V19.0354H26.9985C26.0846 19.0354 25.8671 18.6541 25.8671 17.805V12.0346H30.1753V10.3884H24.0393V18.0303Z" fill="#242E54"/>
</svg>
