<svg width="114" height="20" viewBox="0 0 114 20" fill="none" xmlns="http://www.w3.org/2000/svg">
<path fill-rule="evenodd" clip-rule="evenodd" d="M113.776 17.5553C113.776 18.9052 112.682 19.9996 111.332 19.9996C109.982 19.9996 108.887 18.9052 108.887 17.5553C108.887 16.2052 109.982 15.1107 111.332 15.1107C112.682 15.1107 113.776 16.2052 113.776 17.5553Z" fill="#242E54"/>
<path fill-rule="evenodd" clip-rule="evenodd" d="M0 19.5557V0H4.25393L12.3806 13.1195H12.4353V0H16.4442V19.5557H12.1626L4.06325 6.46389H4.00874V19.5557H0Z" fill="#242E54" fill-opacity="0.55"/>
<path fill-rule="evenodd" clip-rule="evenodd" d="M31.5327 13.1514H21.57C21.6769 15.5017 22.8074 16.6766 24.9621 16.6766C26.0305 16.6766 26.8941 16.309 27.5529 15.5733C27.7486 15.3403 27.8822 15.107 27.9534 14.8737H31.2922C30.2771 17.9952 28.1227 19.5563 24.8287 19.5563C22.3 19.5563 20.3859 18.641 19.0861 16.8111C18.2137 15.5556 17.7775 14.0305 17.7775 12.2364C17.7775 9.92171 18.5428 8.05639 20.0743 6.63864C21.3743 5.47292 22.959 4.88953 24.8287 4.88953C27.3033 4.88953 29.1463 5.89442 30.3573 7.90348C31.2654 9.37501 31.6569 11.1243 31.5327 13.1514ZM21.57 10.7291H27.7399C27.4369 9.09671 26.725 8.14561 25.6032 7.87685L24.722 7.76892C23.2263 7.76892 22.2466 8.42427 21.7839 9.73336C21.6591 10.0563 21.5876 10.3887 21.57 10.7291Z" fill="#242E54" fill-opacity="0.55"/>
<path fill-rule="evenodd" clip-rule="evenodd" d="M51.9993 5.33386L47.5734 19.5562H43.6088L41.1106 10.0106H41.0562L38.6666 19.5562H34.6751L30.2219 5.33386H34.295L36.8745 14.9898H36.929L39.264 5.33386H43.0115L45.401 14.9622H45.4552L48.035 5.33386H51.9993Z" fill="#242E54" fill-opacity="0.55"/>
<path fill-rule="evenodd" clip-rule="evenodd" d="M51.1105 14.6583H54.743C54.7609 15.8424 55.389 16.587 56.6267 16.8919C56.9495 16.9639 57.2996 16.9995 57.676 16.9995C58.86 16.9995 59.6311 16.6589 59.9901 15.977C60.1155 15.744 60.1784 15.4925 60.1784 15.2234C60.1784 14.6137 59.6404 14.1293 58.5641 13.77C58.0435 13.5908 57.138 13.3579 55.8464 13.0706C53.7653 12.6223 52.438 11.9315 51.864 10.9982C51.5769 10.5319 51.4336 9.98485 51.4336 9.35666C51.4336 6.79155 52.9672 5.32955 56.0347 4.9703C56.4828 4.91633 56.9673 4.88953 57.4877 4.88953C60.9495 4.88953 62.9589 6.11856 63.515 8.57628C63.5688 8.8096 63.6046 9.06092 63.6226 9.32968H59.9901C59.9001 8.0742 59.0305 7.44601 57.3801 7.44601C55.9629 7.44601 55.2544 7.87685 55.2544 8.73765C55.2544 9.38383 55.8284 9.87746 56.9763 10.2178L59.5865 10.8098C61.5953 11.2769 62.8963 11.9581 63.4882 12.8552C63.8287 13.3759 63.9992 13.9947 63.9992 14.7121C63.9992 17.0265 62.7973 18.5246 60.3939 19.2062C59.5685 19.4392 58.6536 19.5563 57.6492 19.5563C54.797 19.5563 52.8596 18.74 51.837 17.1072C51.3884 16.4256 51.1465 15.6094 51.1105 14.6583Z" fill="#242E54" fill-opacity="0.55"/>
<path fill-rule="evenodd" clip-rule="evenodd" d="M65.777 19.5557V0H69.6806V7.36779H69.7632C70.5508 6.10779 71.6691 5.35035 73.1172 5.09458C73.3919 5.03966 73.6575 5.01238 73.9142 5.01238C76.5164 5.01238 78.1295 5.9983 78.7529 7.97051L79.0001 9.14795C79.073 9.65931 79.1101 10.2258 79.1101 10.8463V19.5557H75.2065V11.5581C75.2065 9.60457 74.6381 8.4729 73.502 8.16202L72.7046 8.07982C71.2015 8.07982 70.2669 8.76456 69.9006 10.1339C69.7538 10.6637 69.6806 11.3303 69.6806 12.1335V19.5557H65.777Z" fill="#242E54"/>
<path fill-rule="evenodd" clip-rule="evenodd" d="M93.3321 5.33386V19.1809H89.6207V17.2527H89.5383C88.695 18.5564 87.4669 19.3149 85.8545 19.5292C85.6345 19.5467 85.4146 19.5562 85.1948 19.5562C82.5921 19.5562 80.9793 18.5917 80.3563 16.6634C80.118 15.9311 79.9989 14.994 79.9989 13.8509V5.33386H83.9027V13.1548C83.9027 15.0657 84.4705 16.1725 85.607 16.4756C85.8449 16.5295 86.1109 16.5562 86.4043 16.5562C87.9068 16.5562 88.8415 15.8864 89.2085 14.5475C89.3549 14.0295 89.4283 13.3782 89.4283 12.5924V5.33386H93.3321Z" fill="#242E54"/>
<path fill-rule="evenodd" clip-rule="evenodd" d="M94.6653 19.1793V0H98.5414V6.98412H98.596C99.4328 5.73095 100.771 5.05022 102.609 4.94266C102.754 4.92507 102.9 4.91591 103.046 4.91591C104.738 4.91591 106.139 5.5785 107.25 6.90386C108.341 8.22921 108.887 10.0019 108.887 12.2223C108.887 15.1413 107.987 17.2546 106.185 18.5617C105.238 19.2239 104.192 19.5557 103.046 19.5557C100.753 19.5557 99.2057 18.8394 98.4049 17.4065H98.3504V19.1793H94.6653ZM105.011 12.2493C105.011 10.3687 104.483 9.06167 103.428 8.32725C102.936 7.9692 102.363 7.79 101.708 7.79C100.252 7.79 99.26 8.56895 98.7325 10.1272C98.5142 10.7718 98.4049 11.4795 98.4049 12.2493C98.4049 14.0758 98.9142 15.3651 99.9336 16.1173C100.443 16.4933 101.034 16.6813 101.708 16.6813C103.164 16.6813 104.155 15.9023 104.684 14.3444C104.902 13.7177 105.011 13.0194 105.011 12.2493Z" fill="#242E54"/>
</svg>
