<svg width="24" height="24" viewBox="0 0 24 24" fill="none" xmlns="http://www.w3.org/2000/svg">
<path d="M12 2.25C13.2804 2.25 14.5485 2.5022 15.7314 2.99219C16.9143 3.48217 17.9892 4.20016 18.8945 5.10547C19.7998 6.01078 20.5178 7.08573 21.0078 8.26855C21.4978 9.45148 21.75 10.7196 21.75 12L21.7383 12.4795C21.6833 13.5961 21.4365 14.6964 21.0078 15.7314C20.5178 16.9143 19.7998 17.9892 18.8945 18.8945C18.7192 19.0699 18.5353 19.2355 18.3477 19.3965C18.3276 19.4155 18.3074 19.4343 18.2852 19.4512C17.5197 20.0967 16.6595 20.6234 15.7314 21.0078C14.6964 21.4365 13.5961 21.6833 12.4795 21.7383L12 21.75C10.7196 21.75 9.45148 21.4978 8.26855 21.0078C7.08573 20.5178 6.01078 19.7998 5.10547 18.8945C4.20016 17.9892 3.48217 16.9143 2.99219 15.7314C2.56346 14.6964 2.3167 13.5961 2.26172 12.4795L2.25 12C2.25 10.7196 2.5022 9.45148 2.99219 8.26855C3.48217 7.08573 4.20016 6.01078 5.10547 5.10547C6.01078 4.20016 7.08573 3.48217 8.26855 2.99219C9.45148 2.5022 10.7196 2.25 12 2.25ZM10 16.75C9.30119 16.7498 8.62038 16.9747 8.05957 17.3916C7.63042 17.7107 7.28927 18.1295 7.0625 18.6084C7.61056 19.0177 8.20799 19.3591 8.84277 19.6221C9.84371 20.0367 10.9166 20.25 12 20.25L12.4053 20.2402C13.3502 20.1938 14.2813 19.9849 15.1572 19.6221C15.792 19.3591 16.3894 19.0177 16.9375 18.6084C16.7109 18.1305 16.3706 17.7124 15.9424 17.3936C15.4513 17.0279 14.8685 16.8095 14.2617 16.7607L14 16.75H10ZM12 3.75C10.9166 3.75 9.84371 3.96333 8.84277 4.37793C7.84186 4.79253 6.93209 5.39995 6.16602 6.16602C5.39995 6.93209 4.79253 7.84186 4.37793 8.84277C3.96333 9.84371 3.75 10.9166 3.75 12L3.75977 12.4053C3.80624 13.3502 4.0151 14.2813 4.37793 15.1572C4.74622 16.0463 5.26738 16.8629 5.91602 17.5713C6.23498 17.0357 6.65869 16.565 7.16504 16.1885C7.98465 15.5791 8.97869 15.2498 10 15.25H14C15.0225 15.2497 16.0177 15.5798 16.8379 16.1904C17.3428 16.5664 17.7648 17.0368 18.083 17.5713C18.7318 16.8627 19.2537 16.0465 19.6221 15.1572C20.0367 14.1563 20.25 13.0834 20.25 12L20.2402 11.5947C20.1938 10.6498 19.9849 9.71871 19.6221 8.84277C19.2075 7.84186 18.6001 6.93209 17.834 6.16602C17.0679 5.39995 16.1581 4.79253 15.1572 4.37793C14.1563 3.96333 13.0834 3.75 12 3.75ZM12 6.25C12.9946 6.25 13.9481 6.64537 14.6514 7.34863C15.3546 8.05189 15.75 9.00544 15.75 10C15.75 10.9946 15.3546 11.9481 14.6514 12.6514C13.9481 13.3546 12.9946 13.75 12 13.75C11.0054 13.75 10.0519 13.3546 9.34863 12.6514C8.64537 11.9481 8.25 10.9946 8.25 10C8.25 9.00544 8.64537 8.05189 9.34863 7.34863C10.0519 6.64537 11.0054 6.25 12 6.25ZM12 7.75C11.4033 7.75 10.8311 7.98722 10.4092 8.40918C9.98722 8.83114 9.75 9.40326 9.75 10C9.75 10.5967 9.98722 11.1689 10.4092 11.5908C10.8311 12.0128 11.4033 12.25 12 12.25C12.5967 12.25 13.1689 12.0128 13.5908 11.5908C14.0128 11.1689 14.25 10.5967 14.25 10C14.25 9.40326 14.0128 8.83114 13.5908 8.40918C13.1689 7.98722 12.5967 7.75 12 7.75Z" fill="#242E54"/>
</svg>
