<svg width="16" height="16" viewBox="0 0 16 16" fill="none" xmlns="http://www.w3.org/2000/svg">
<path d="M9.80273 3.80334C10.0956 3.51051 10.5704 3.51061 10.8633 3.80334L14.5205 7.46057C14.5236 7.4636 14.5272 7.46626 14.5303 7.46936C14.5487 7.48775 14.5659 7.50724 14.582 7.52698C14.6187 7.57203 14.6462 7.62197 14.6709 7.67249C14.71 7.75245 14.7333 7.83674 14.7422 7.92346C14.7497 7.9968 14.7503 8.07063 14.7363 8.14319C14.7271 8.19064 14.7137 8.23754 14.6953 8.28284C14.6679 8.35035 14.6299 8.4145 14.582 8.47327C14.566 8.49295 14.5486 8.51254 14.5303 8.53088L10.8633 12.1969C10.5704 12.4895 10.0955 12.4897 9.80273 12.1969C9.51016 11.9041 9.51024 11.4292 9.80273 11.1364L12.1895 8.74963H2.66699C2.25293 8.74946 1.91602 8.41374 1.91602 7.99963C1.91621 7.5857 2.25305 7.24981 2.66699 7.24963H12.1885L9.80273 4.86389C9.51013 4.57111 9.51027 4.09621 9.80273 3.80334Z" fill="#242E54"/>
</svg>
