<svg width="32" height="32" viewBox="0 0 32 32" fill="none" xmlns="http://www.w3.org/2000/svg">
<path d="M0 16C0 7.16344 7.16344 0 16 0C24.8366 0 32 7.16344 32 16C32 24.8366 24.8366 32 16 32C7.16344 32 0 24.8366 0 16Z" fill="#F3F5F9"/>
<path d="M16 10.583C16.4141 10.583 16.7498 10.9189 16.75 11.333V15.25H20.667C21.081 15.2503 21.417 15.5859 21.417 16C21.417 16.4141 21.081 16.7497 20.667 16.75H16.75V20.666C16.75 21.0802 16.4142 21.416 16 21.416C15.5858 21.416 15.25 21.0802 15.25 20.666V16.75H11.334C10.9198 16.75 10.583 16.4142 10.583 16C10.583 15.5858 10.9198 15.25 11.334 15.25H15.25V11.333C15.2502 10.9189 15.5859 10.583 16 10.583Z" fill="#242E54"/>
</svg>
