<svg width="24" height="24" viewBox="0 0 24 24" fill="none" xmlns="http://www.w3.org/2000/svg">
<path d="M12 2.25C13.2804 2.25 14.5485 2.5022 15.7314 2.99219C16.9143 3.48217 17.9892 4.20016 18.8945 5.10547C19.7998 6.01078 20.5178 7.08573 21.0078 8.26855C21.4978 9.45148 21.75 10.7196 21.75 12L21.7383 12.4795C21.6833 13.5961 21.4365 14.6964 21.0078 15.7314C20.5178 16.9143 19.7998 17.9892 18.8945 18.8945C17.9892 19.7998 16.9143 20.5178 15.7314 21.0078C14.6964 21.4365 13.5961 21.6833 12.4795 21.7383L12 21.75C10.7196 21.75 9.45148 21.4978 8.26855 21.0078C7.08573 20.5178 6.01078 19.7998 5.10547 18.8945C4.20016 17.9892 3.48217 16.9143 2.99219 15.7314C2.56346 14.6964 2.3167 13.5961 2.26172 12.4795L2.25 12C2.25 10.7196 2.5022 9.45148 2.99219 8.26855C3.48217 7.08573 4.20016 6.01078 5.10547 5.10547C6.01078 4.20016 7.08573 3.48217 8.26855 2.99219C9.45148 2.5022 10.7196 2.25 12 2.25ZM12 3.75C10.9166 3.75 9.84371 3.96333 8.84277 4.37793C7.84186 4.79253 6.93209 5.39995 6.16602 6.16602C5.39995 6.93209 4.79253 7.84186 4.37793 8.84277C3.96333 9.84371 3.75 10.9166 3.75 12L3.75977 12.4053C3.80624 13.3502 4.0151 14.2813 4.37793 15.1572C4.79253 16.1581 5.39995 17.0679 6.16602 17.834C6.93209 18.6001 7.84186 19.2075 8.84277 19.6221C9.84371 20.0367 10.9166 20.25 12 20.25L12.4053 20.2402C13.3502 20.1938 14.2813 19.9849 15.1572 19.6221C16.1581 19.2075 17.0679 18.6001 17.834 17.834C18.6001 17.0679 19.2075 16.1581 19.6221 15.1572C20.0367 14.1563 20.25 13.0834 20.25 12L20.2402 11.5947C20.1938 10.6498 19.9849 9.71871 19.6221 8.84277C19.2075 7.84186 18.6001 6.93209 17.834 6.16602C17.0679 5.39995 16.1581 4.79253 15.1572 4.37793C14.1563 3.96333 13.0834 3.75 12 3.75ZM11.8564 15.1338C12.5002 15.134 12.9755 15.5821 12.9756 16.2119C12.9756 16.8138 12.4862 17.2615 11.8564 17.2617C11.2264 17.2617 10.7363 16.8139 10.7363 16.2119C10.7364 15.582 11.2125 15.1338 11.8564 15.1338ZM12.1221 7C13.942 7.00003 15.1602 8.0782 15.1602 9.53418C15.1601 10.3881 14.684 11.0325 13.9141 11.6904L13.0879 12.3623C12.4021 12.9501 12.2484 13.328 12.3604 14.4336H11.4082C11.1003 13.16 11.1142 12.5302 11.9258 11.8164L12.7656 11.0742C13.2976 10.5983 13.6064 10.2481 13.6064 9.66016C13.6064 8.86227 12.9902 8.25993 11.9824 8.25977C11.0304 8.25977 10.3857 8.86247 10.3438 9.73047H9C9.056 8.12047 10.3581 7 12.1221 7Z" fill="#242E54"/>
</svg>
