<svg width="24" height="24" viewBox="0 0 24 24" fill="none" xmlns="http://www.w3.org/2000/svg">
<path d="M12 2.25C15.5946 2.25 18.142 2.68103 19.7305 4.26953C21.319 5.85804 21.75 8.40536 21.75 12C21.75 15.5946 21.319 18.142 19.7305 19.7305C18.142 21.319 15.5946 21.75 12 21.75C8.40536 21.75 5.85804 21.319 4.26953 19.7305C2.68103 18.142 2.25 15.5946 2.25 12C2.25 8.40536 2.68103 5.85804 4.26953 4.26953C5.85804 2.68103 8.40536 2.25 12 2.25ZM12 3.75C8.39464 3.75 6.44157 4.21858 5.33008 5.33008C4.21858 6.44157 3.75 8.39464 3.75 12C3.75 15.6054 4.21858 17.5584 5.33008 18.6699C6.44157 19.7814 8.39464 20.25 12 20.25C15.6054 20.25 17.5584 19.7814 18.6699 18.6699C19.7814 17.5584 20.25 15.6054 20.25 12C20.25 8.39464 19.7814 6.44157 18.6699 5.33008C17.5584 4.21858 15.6054 3.75 12 3.75ZM11.4697 7.46973C11.7626 7.17686 12.2374 7.17684 12.5303 7.46973L16.5303 11.4697C16.5787 11.5181 16.616 11.5732 16.6484 11.6299C16.664 11.657 16.6803 11.6838 16.6924 11.7129C16.7131 11.7629 16.7279 11.8146 16.7373 11.8672C16.745 11.9103 16.75 11.9546 16.75 12C16.75 12.045 16.7449 12.089 16.7373 12.1318C16.7279 12.1845 16.713 12.2361 16.6924 12.2861C16.6803 12.3153 16.6639 12.342 16.6484 12.3691C16.616 12.4261 16.5789 12.4817 16.5303 12.5303L12.5303 16.5303C12.2374 16.8232 11.7626 16.8231 11.4697 16.5303C11.1768 16.2374 11.1768 15.7626 11.4697 15.4697L14.1895 12.75H8C7.58579 12.75 7.25 12.4142 7.25 12C7.25 11.5858 7.58579 11.25 8 11.25H14.1895L11.4697 8.53027C11.1768 8.23738 11.1768 7.76262 11.4697 7.46973Z" fill="#242E54"/>
</svg>
