<svg width="24" height="24" viewBox="0 0 24 24" fill="none" xmlns="http://www.w3.org/2000/svg">
<path d="M11.9933 1.25195C12.2786 1.25208 12.5388 1.41415 12.6652 1.66992L15.5763 7.56836L22.0861 8.5127C22.3688 8.55366 22.6043 8.75178 22.6925 9.02344C22.7806 9.29497 22.7066 9.59281 22.5021 9.79199L17.7843 14.3838L18.8976 20.8682C18.9458 21.1495 18.8297 21.4338 18.5988 21.6016C18.3677 21.7693 18.0614 21.7912 17.8087 21.6582L12.0001 18.5967L6.1769 21.6592C5.92426 21.7919 5.61776 21.7693 5.38686 21.6016C5.15607 21.4337 5.04076 21.1494 5.08901 20.8682L6.20034 14.3838L1.48354 9.79199C1.27914 9.59276 1.20592 9.29494 1.29409 9.02344C1.38231 8.75178 1.61689 8.55366 1.89956 8.5127L8.40835 7.56836L11.3205 1.66992L11.3742 1.57812C11.5127 1.37585 11.7437 1.25195 11.9933 1.25195ZM9.57925 8.58691C9.46997 8.80821 9.25903 8.96159 9.01479 8.99707L3.62026 9.77832L7.53042 13.585C7.70718 13.7573 7.78798 14.0057 7.74624 14.249L6.82436 19.623L11.6505 17.0859C11.8693 16.9709 12.1311 16.9717 12.3498 17.0869L17.1613 19.6211L16.2394 14.249C16.1976 14.0056 16.2792 13.7573 16.4562 13.585L20.3654 9.77832L14.9718 8.99707C14.7274 8.96165 14.5157 8.80835 14.4064 8.58691L11.9923 3.69629L9.57925 8.58691Z" fill="#242E54"/>
</svg>
