<svg width="26" height="32" viewBox="0 0 26 32" fill="none" xmlns="http://www.w3.org/2000/svg">
<path d="M17.752 0C19.9124 3.65971e-05 21.3052 0.550927 22.6982 1.71875L23.8584 0.675781L24.25 1.02637L20.3213 4.78027C19.5705 3.47893 18.1351 1.67649 16.2832 1.43457V11.8789C19.8369 9.35964 20.7881 8.4502 20.7881 8.4502C21.0801 8.62538 24.367 10.6362 25.4014 11.2451V11.3701L25.418 11.3867C25.0259 11.687 24.751 12.3211 24.751 13.1553V25.3096C24.7509 28.4877 21.8896 31.099 18.6113 32L18.2109 31.7832C19.7375 30.4402 20.9717 28.7629 20.9717 26.1436V12.9717L18.2686 11.0781L16.2998 12.5381V25.9434L16.375 25.9854L17.7188 24.6924L18.1357 25.0928L14.1143 28.9795C12.8546 27.9704 10.8775 27.4365 8.52539 27.4365C5.93114 27.4365 4.27923 27.8542 2.80273 29.0137L2.59473 28.5791C3.69597 26.5189 6.38994 24.6086 8.95898 24.1914C9.63468 23.4406 10.5195 22.1558 10.5195 19.9619V7.29883C10.5196 5.13849 10.978 3.67006 13.4971 1.83496C14.9319 0.775534 16.4506 0 17.752 0ZM15.8584 1.50195C14.9992 1.53532 14.2979 2.0776 14.2979 3.4707V18.085C14.2979 20.988 12.0372 22.9649 10.0352 24.041C12.2207 24.0827 14.4315 24.7839 15.8496 25.543L15.8584 1.50195ZM10.5312 3.09277C9.9491 3.82677 9.40137 4.90933 9.40137 6.39844V17.9355C9.40123 21.1886 7.21573 23.3322 4.52148 24.9004L4.0127 24.751C5.00539 23.6999 5.62207 22.3146 5.62207 20.6045V19.0781C5.07168 18.8696 4.66256 18.7197 3.94531 18.7197C2.33595 18.7199 1.54359 19.4366 1.24316 20.0537L0.958984 19.7793C1.1008 17.4853 2.20233 15.4824 4.0459 15.4824C4.59626 15.4824 5.29659 15.6998 5.62207 15.7666V13.5059C5.0717 13.2557 4.66313 13.1465 4.0127 13.1465C2.88653 13.1465 1.97726 13.339 1.24316 14.4902L0.993164 14.2061C1.03498 11.8371 2.16909 9.95215 4.1377 9.95215C4.72136 9.95216 5.37991 10.1524 5.62207 10.2275V8.70117C5.62207 6.27367 7.28247 4.19591 10.2021 2.98633L10.5312 3.09277ZM10.7734 0.287109C9.19018 2.50295 8.12357 3.44531 6.40625 3.44531C5.13839 3.44515 3.3286 2.61927 2.11914 2.61914C1.14313 2.61914 0.758823 2.84429 0.158203 3.32812L0 3.07812C0.934207 1.3599 2.53565 0.141853 3.94531 0.141602C5.3551 0.141602 7.59962 1.03418 8.0918 1.03418C8.98435 1.03415 9.80227 0.684298 10.5947 0.0419922L10.7734 0.287109ZM10.5361 3.09473L10.5312 3.09277C10.5328 3.09078 10.5346 3.0889 10.5361 3.08691V3.09473ZM10.7773 0.291992L10.7734 0.287109C10.7745 0.285661 10.7763 0.284652 10.7773 0.283203V0.291992Z" fill="#242E54"/>
</svg>
